STARTFONT 2.1
COMMENT @(#)10  1.2.1.1  src/bos/usr/lpp/tls/fonts/Chtp317.bdf, cmdtw, bos411, 9434B411a 8/24/94 19:26:00
COMMENT
COMMENT COMPONENT_NAME: CMDTW
COMMENT
COMMENT FUNCTIONS: none
COMMENT
COMMENT ORIGINS: 27
COMMENT
COMMENT
COMMENT (C) COPYRIGHT International Business Machines Corp. 1993
COMMENT All Rights Reserved
COMMENT Licensed Materials - Property of IBM
COMMENT US Government Users Restricted Rights - Use, duplication or
COMMENT disclosure restricted by GSA ADP Schedule Contract with IBM Corp.
COMMENT
FONT -IBM_AIX-Sung-Medium-R-Normal--27-170-100-100-M-260-CNS11643.1992-3
SIZE 17 100 100
FONTBOUNDINGBOX 26 27 0 -1
STARTPROPERTIES 27
FONTNAME_REGISTRY "_"
_FOUNDRY "IBM AIX "
FAMILY "Sung"
_WEIGHT_NAME "Medium "
SLANT "R"
SETWIDTH_NAME "Normal"
ADD_STYLE_NAME ""
PIXEL_SIZE 27
POINT_SIZE 170
RESOLUTION_X 100
RESOLUTION_Y 100
SPACING "M"
AVERAGE_WIDTH 260
CHARSET_REGISTRY "CNS11643.1992"
CHARSET_ENCODING "3"
CAP_HEIGHT 27
COPYRIGHT "Copyright, 1993 by IBM."
FOUNDRY "IBM_AIX"
FAMILY_NAME "Sung"
WEIGHT_NAME "Medium"
X_HEIGHT 26
WEIGHT 10
RESOLUTION 138
QUAD_WIDTH 26
DEFAULT_CHAR 0
FONT_ASCENT 26
FONT_DESCENT 1
ENDPROPERTIES
CHARS 6148
STARTCHAR 2121
ENCODING 8481
SWIDTH 1529 0
DWIDTH 26 0
BBX 26 27 0 -1
BITMAP
00000000
00100000
001c0000
00180000
00180000
00180000
00180000
00180000
00180000
00180000
00180000
00180000
00180000
00180000
00180000
00180000
00180000
00180000
00180000
00180000
00180000
00180000
00180000
00180000
00100000
00000000
00000000
ENDCHAR
STARTCHAR 2122
ENCODING 8482
SWIDTH 1529 0
DWIDTH 26 0
BBX 26 27 0 -1
BITMAP
00000000
00000000
00000000
00000000
00000000
00000000
00000000
00000000
00000000
01800000
00700000
001c0000
00070000
00038000
00018000
00000000
00000000
00000000
00000000
00000000
00000000
00000000
00000000
00000000
00000000
00000000
00000000
ENDCHAR
STARTCHAR 2123
ENCODING 8483
SWIDTH 1529 0
DWIDTH 26 0
BBX 26 27 0 -1
BITMAP
00000000
00000000
00020000
00038000
00030000
00030000
00030000
00030000
00030000
00030000
00060000
00060000
00060000
000c0000
000c0000
000c0000
00180000
00180000
00300000
00300000
00600000
00c00000
01800000
06000000
00000000
00000000
00000000
ENDCHAR
STARTCHAR 2124
ENCODING 8484
SWIDTH 1529 0
DWIDTH 26 0
BBX 26 27 0 -1
BITMAP
00000000
00100000
001c0000
00180000
00180000
00180000
00180000
00180000
00180000
00180000
00180000
00180000
00180000
00180000
00180000
00180000
00180000
00180000
00180000
00180000
00180000
00180000
00180000
07f80000
00700000
00000000
00000000
ENDCHAR
STARTCHAR 2125
ENCODING 8485
SWIDTH 1529 0
DWIDTH 26 0
BBX 26 27 0 -1
BITMAP
00000000
00000000
00000c00
7ffffe00
00180000
00180000
00180000
00180000
00180000
00180000
00180000
00180000
00180000
00180000
00180000
00180000
00180000
00180000
00180000
00180000
00180000
00180000
00180000
00180000
00100000
00000000
00000000
ENDCHAR
STARTCHAR 2126
ENCODING 8486
SWIDTH 1529 0
DWIDTH 26 0
BBX 26 27 0 -1
BITMAP
00000000
00000000
00100000
001c0000
00180000
00180000
00180000
00180000
00180000
00180000
00180000
00180000
00180000
00180000
00180000
00180000
00180000
00180000
00180000
00180000
00180000
00180c00
7ffffe00
00000000
00000000
00000000
00000000
ENDCHAR
STARTCHAR 2127
ENCODING 8487
SWIDTH 1529 0
DWIDTH 26 0
BBX 26 27 0 -1
BITMAP
00000000
00000000
20000c00
3ffffe00
30000c00
30000c00
30000c00
30000c00
30000c00
30000c00
30000c00
30000c00
30000c00
30000c00
30000c00
30000c00
30000c00
30000c00
30000c00
30000c00
30000c00
30000c00
30000c00
3000fc00
20001800
00000000
00000000
ENDCHAR
STARTCHAR 2128
ENCODING 8488
SWIDTH 1529 0
DWIDTH 26 0
BBX 26 27 0 -1
BITMAP
00000000
00000000
00000000
00000000
00000000
00000000
00000000
10000000
10000c00
1ffffe00
30000c00
30000c00
70001800
60001000
00000000
00000000
00000000
00000000
00000000
00000000
00000000
00000000
00000000
00000000
00000000
00000000
00000000
ENDCHAR
STARTCHAR 2129
ENCODING 8489
SWIDTH 1529 0
DWIDTH 26 0
BBX 26 27 0 -1
BITMAP
00000000
00000000
00000000
00000400
00000e00
ffffff00
18000000
18000000
18000000
18000000
18000000
18000000
18000000
18000000
18000000
18000000
18000000
18000000
18000000
18000000
1ffffe00
0fffff00
00000000
00000000
00000000
00000000
00000000
ENDCHAR
STARTCHAR 212a
ENCODING 8490
SWIDTH 1529 0
DWIDTH 26 0
BBX 26 27 0 -1
BITMAP
00000000
0200c000
03ffe000
0300c000
0300c000
0300c000
0300c000
0300c000
0300c000
0300c000
0300c000
0300c000
0300c000
0300c000
0300c000
0300c000
0300c000
0300c000
033fc000
03038000
03000000
03000000
03000000
03000000
02000000
00000000
00000000
ENDCHAR
STARTCHAR 212b
ENCODING 8491
SWIDTH 1529 0
DWIDTH 26 0
BBX 26 27 0 -1
BITMAP
00000000
00000000
00000000
00200000
00380000
00300000
00700000
00600000
00e00000
00c00000
01c00000
01800000
03008000
06004000
0c006000
18003000
30001800
7ffffc00
3f801c00
18000c00
00000800
00000000
00000000
00000000
00000000
00000000
00000000
ENDCHAR
STARTCHAR 212c
ENCODING 8492
SWIDTH 1529 0
DWIDTH 26 0
BBX 26 27 0 -1
BITMAP
00000000
001c0000
00180000
00340000
00360000
00630000
00c18000
0180c000
03006000
06103800
0c1c1c00
18180f00
30180600
c0180000
00180000
00180000
00180000
00180000
00180000
00180000
00180000
00180000
00180000
00180000
00100000
00000000
00000000
ENDCHAR
STARTCHAR 212d
ENCODING 8493
SWIDTH 1529 0
DWIDTH 26 0
BBX 26 27 0 -1
BITMAP
00000000
01000000
01c00000
01800000
01800000
03000400
03000e00
07ffff00
06060000
0c060000
18060000
30060000
40060000
00060000
00060000
00060000
00060000
00060000
00060000
00060000
00060000
00060000
00060000
00fe0000
001c0000
00000000
00000000
ENDCHAR
STARTCHAR 212e
ENCODING 8494
SWIDTH 1529 0
DWIDTH 26 0
BBX 26 27 0 -1
BITMAP
00000000
00002000
00003800
04003000
04303000
02183000
021c6000
010c6000
0188c000
0080c000
00c18000
00418000
00630000
00230000
00360000
001c0000
001c0000
00360000
00630000
00c18000
0180e000
06007800
18001f00
60000600
80000000
00000000
00000000
ENDCHAR
STARTCHAR 212f
ENCODING 8495
SWIDTH 1529 0
DWIDTH 26 0
BBX 26 27 0 -1
BITMAP
00000000
00200000
00380000
00300000
00600000
02c0c000
03ffe000
0300c000
0300c000
0300c000
0300c000
0300c000
0300c000
0300c000
0300c000
0300c000
0300c000
0600c200
0600c200
0600c200
0c00c200
0c00c300
1800ff00
30007e00
c0000000
00000000
00000000
ENDCHAR
STARTCHAR 2130
ENCODING 8496
SWIDTH 1529 0
DWIDTH 26 0
BBX 26 27 0 -1
BITMAP
00000000
00020000
00038000
02030000
03830000
03030000
06030000
06060000
0c060000
18060000
180c0000
300c0000
7ffc0000
201a0000
003a0000
00330000
00718000
00618000
00c0c000
0180e000
03007000
06003800
0c001c00
30000f00
c0000600
00000000
00000000
ENDCHAR
STARTCHAR 2131
ENCODING 8497
SWIDTH 1529 0
DWIDTH 26 0
BBX 26 27 0 -1
BITMAP
00000000
00000000
00003000
1ffff800
00000000
00000000
00000400
00000e00
ffffff00
06000000
06000000
0c000000
0c001800
1ffffc00
08001800
00001800
00001800
00001800
00001800
00001800
00003000
00003000
00006000
003fc000
00078000
00000000
00000000
ENDCHAR
STARTCHAR 2132
ENCODING 8498
SWIDTH 1529 0
DWIDTH 26 0
BBX 26 27 0 -1
BITMAP
00000000
00000000
00200000
003c0000
00380000
00300000
00680000
006c0000
00c60000
00c20000
01830000
01818000
0300c000
06006000
0c003800
18001c00
30000f00
40000600
80000000
00000000
00001800
3ffffc00
00000000
00000000
00000000
00000000
00000000
ENDCHAR
STARTCHAR 2133
ENCODING 8499
SWIDTH 1529 0
DWIDTH 26 0
BBX 26 27 0 -1
BITMAP
00000000
00000000
00080000
400e0000
700c0000
600c0000
600c0000
600c0000
600c0000
600c0000
600e0000
601a0000
601a0000
60190000
60310000
60308000
6060c000
60606000
60c03800
61801e00
66000800
60000000
7ffffe00
3fffff00
00000000
00000000
00000000
ENDCHAR
STARTCHAR 2134
ENCODING 8500
SWIDTH 1529 0
DWIDTH 26 0
BBX 26 27 0 -1
BITMAP
00000000
00000000
00c00000
40600000
70300000
60300000
60180000
60180000
600c0000
601c0000
601e0000
601a0000
60330000
60330000
60618000
6061c000
60c0e000
61807800
63003c00
66001000
68000000
60000000
7ffffe00
3fffff00
00000000
00000000
00000000
ENDCHAR
STARTCHAR 2135
ENCODING 8501
SWIDTH 1529 0
DWIDTH 26 0
BBX 26 27 0 -1
BITMAP
00000000
00100000
001c0000
00180000
00180000
00180000
0218c000
03ffe000
0300c000
0300c000
0300c000
0300c000
0300c000
0300c000
0300c000
0300c000
0300c000
0600c200
0600c200
0600c200
0c00c200
0c00c300
1800ff00
30007e00
c0000000
00000000
00000000
ENDCHAR
STARTCHAR 2136
ENCODING 8502
SWIDTH 1529 0
DWIDTH 26 0
BBX 26 27 0 -1
BITMAP
00000000
00000000
00006000
1ffff000
00c06000
00c06000
00c06000
20c06000
18c06000
0cc06000
06c06000
03c06000
01c06000
01e06000
01b06000
01986000
030e6000
03076000
0601e000
0600f000
0c00dc00
1801cf00
30038600
407f0000
800e0000
00000000
00000000
ENDCHAR
STARTCHAR 2137
ENCODING 8503
SWIDTH 1529 0
DWIDTH 26 0
BBX 26 27 0 -1
BITMAP
00000000
04020000
07038000
06030000
06030000
06030000
06330000
7ffb0000
06330000
06330000
06330000
06330000
06330000
06330000
06330000
06330000
0c330200
0c330200
0c330200
18330200
18330300
30330300
3073ff00
63e1fe00
80c00000
00000000
00000000
ENDCHAR
STARTCHAR 2138
ENCODING 8504
SWIDTH 1529 0
DWIDTH 26 0
BBX 26 27 0 -1
BITMAP
00000000
02010000
0381c000
03018000
03018000
03018000
03018000
03018000
03018000
03018400
03018e00
ffffff00
03018000
03018000
03018000
03018000
03018000
03018000
03018000
03018000
03018000
03018000
03018000
03018000
02010000
00000000
00000000
ENDCHAR
STARTCHAR 2139
ENCODING 8505
SWIDTH 1529 0
DWIDTH 26 0
BBX 26 27 0 -1
BITMAP
00000000
02000000
03800000
03000000
07000000
0600c000
07ffe000
0c00c000
0c00c000
1a00c000
32018000
21018000
41030000
80830000
00c60000
00660000
003c0000
00180000
003c0000
00660000
00c30000
0181c000
0700f800
1c003f00
e0000e00
00000000
00000000
ENDCHAR
STARTCHAR 213a
ENCODING 8506
SWIDTH 1529 0
DWIDTH 26 0
BBX 26 27 0 -1
BITMAP
00000000
00800000
00e00000
00c00000
00c00000
01806000
21fff000
13806000
1b006000
0e006000
0600c000
0b00c000
11818000
20c38000
40630000
00360000
001c0000
001c0000
00360000
00738000
00e1c000
01c0f800
07003f00
1c000c00
e0000000
00000000
00000000
ENDCHAR
STARTCHAR 213b
ENCODING 8507
SWIDTH 1529 0
DWIDTH 26 0
BBX 26 27 0 -1
BITMAP
00000000
00000000
00000000
00000000
00000000
00600000
00300000
00380000
00180000
20100600
3fffff00
60000600
60000600
e0000c00
c0000800
00000000
00000000
00000000
00000000
00000000
00000000
00000000
00000000
00000000
00000000
00000000
00000000
ENDCHAR
STARTCHAR 213c
ENCODING 8508
SWIDTH 1529 0
DWIDTH 26 0
BBX 26 27 0 -1
BITMAP
00000000
00000000
00000000
04081000
070e1c00
060c1800
060c3000
0c183000
0c183000
18306000
18306000
3060c000
60c18000
60c18000
3060c000
18306000
08102000
0c183000
060c1800
070e1c00
03060c00
02040800
00000000
00000000
00000000
00000000
00000000
ENDCHAR
STARTCHAR 213d
ENCODING 8509
SWIDTH 1529 0
DWIDTH 26 0
BBX 26 27 0 -1
BITMAP
00000000
00200000
00380000
00300000
00600000
00600000
00c00000
00c00000
01820000
03038000
0c030000
06060000
03060000
018c0000
00cc0000
00780000
00300000
00308000
00604000
00c06000
01803000
0207f000
0ffc3800
0f801800
06001000
00000000
00000000
ENDCHAR
STARTCHAR 213e
ENCODING 8510
SWIDTH 1529 0
DWIDTH 26 0
BBX 26 27 0 -1
BITMAP
00000000
00180000
000c0000
000e0000
10040600
1fffff00
18000000
18000000
18000000
18000000
18000000
18000000
18000000
18000000
18000000
18000000
18000000
18000000
30000000
30000000
20000000
60000000
40000000
80000000
00000000
00000000
00000000
ENDCHAR
STARTCHAR 213f
ENCODING 8511
SWIDTH 1529 0
DWIDTH 26 0
BBX 26 27 0 -1
BITMAP
00000000
00000000
03000000
7f800000
03000000
06000000
06000000
0c000000
18000000
33000000
7f800000
23000000
03000000
03000000
43000000
26000000
36000000
1c000000
0e000000
1e000000
1b000000
31e00000
607fff00
801ffc00
00000000
00000000
00000000
ENDCHAR
STARTCHAR 2140
ENCODING 8512
SWIDTH 1529 0
DWIDTH 26 0
BBX 26 27 0 -1
BITMAP
00000000
00000000
00000000
00006000
1ffff000
00006000
00006000
00006000
00006000
00006000
00006000
00006000
00006000
0fffe000
00006000
00006000
00006000
00006000
00006000
00006000
00006000
00006600
ffffff00
00000000
00000000
00000000
00000000
ENDCHAR
STARTCHAR 2141
ENCODING 8513
SWIDTH 1529 0
DWIDTH 26 0
BBX 26 27 0 -1
BITMAP
00000000
00800000
00e00000
00c00000
00c00000
01800000
01800000
0180c000
03ffe000
0300c000
0300c000
0300c000
0601c000
06018000
06018000
06018000
0fff8000
0c018000
00018000
00030000
00030000
00030000
00030600
ffffff00
00000000
00000000
00000000
ENDCHAR
STARTCHAR 2142
ENCODING 8514
SWIDTH 1529 0
DWIDTH 26 0
BBX 26 27 0 -1
BITMAP
00000000
00020000
00078000
000e0000
001c0000
00380000
00600000
01c00000
07010000
0003c000
00070000
000e0000
001c0000
00380000
00e00000
03808000
0001e000
0003c000
00070000
000e0000
001c0000
00380000
00e00000
03800000
1c000000
00000000
00000000
ENDCHAR
STARTCHAR 2143
ENCODING 8515
SWIDTH 1529 0
DWIDTH 26 0
BBX 26 27 0 -1
BITMAP
00000000
01030000
01ff8000
01830000
01830000
01860000
01840000
018c0000
01880000
01900000
01880000
018c0000
01860000
01830000
01830000
01818000
01818000
01818000
01818000
01838000
01bf0000
01860000
01800000
01800000
01000000
00000000
00000000
ENDCHAR
STARTCHAR 2144
ENCODING 8516
SWIDTH 1529 0
DWIDTH 26 0
BBX 26 27 0 -1
BITMAP
00000000
00080000
000ec000
000c6000
000c7000
000c2000
000c0600
ffffff00
000c0000
080c0000
0c0c0000
040c0000
06180000
03180000
03180000
01b00000
00f00000
00600000
00f00000
00dc0000
018e0000
03038000
0600f000
18003f00
e0000e00
00000000
00000000
ENDCHAR
STARTCHAR 2145
ENCODING 8517
SWIDTH 1529 0
DWIDTH 26 0
BBX 26 27 0 -1
BITMAP
00000000
04040000
07070000
0e060000
0c060000
1c060000
18860000
30e60000
60c60000
c0c60000
31860000
19860000
0f060000
03060000
06060000
06060000
0c860400
18460400
30660400
63e60400
fe360600
f8360600
6027fe00
0003fc00
00000000
00000000
00000000
ENDCHAR
STARTCHAR 2146
ENCODING 8518
SWIDTH 1529 0
DWIDTH 26 0
BBX 26 27 0 -1
BITMAP
00000000
08040000
0e070000
0c060000
0c060000
0c060000
0c060000
8c860000
ece60000
ccc60000
ccc60000
ccc60000
ccc60000
ccc60000
ccc60000
ccc60000
ccc60000
ccc60200
ccc60200
ccc60200
ffc60300
80860300
0007ff00
0003fe00
00000000
00000000
00000000
ENDCHAR
STARTCHAR 2147
ENCODING 8519
SWIDTH 1529 0
DWIDTH 26 0
BBX 26 27 0 -1
BITMAP
00000000
00600000
00380000
00180000
00180400
00000e00
ffffff00
01818000
01818000
01818000
01818000
01818000
01818000
01818000
01818000
03018000
03018000
03018000
06018000
06018000
0c018000
0c018000
18018000
10018000
20010000
00000000
00000000
ENDCHAR
STARTCHAR 2148
ENCODING 8520
SWIDTH 1529 0
DWIDTH 26 0
BBX 26 27 0 -1
BITMAP
00000000
00100000
001c0000
00180000
00180000
00180000
20180c00
3ffffe00
30180c00
30180c00
30180c00
30380c00
30340c00
30620c00
30630c00
30c18c00
3180cc00
33006c00
32006c00
34000c00
30000c00
30000c00
30000c00
3000fc00
20003800
00000000
00000000
ENDCHAR
STARTCHAR 2149
ENCODING 8521
SWIDTH 1529 0
DWIDTH 26 0
BBX 26 27 0 -1
BITMAP
00000000
08000000
0e000000
0c003000
0cfff800
18203000
18203000
18203000
30303000
38107000
58106000
98186000
1808c000
180cc000
18058000
18078000
18030000
18078000
18068000
180cc000
18186000
18307000
18603c00
18c01f00
13000c00
00000000
00000000
ENDCHAR
STARTCHAR 214a
ENCODING 8522
SWIDTH 1529 0
DWIDTH 26 0
BBX 26 27 0 -1
BITMAP
00000000
04000000
07000000
06000000
06020000
0c038000
0c030000
0c030000
18030000
1c060000
3c060000
6c060000
4c0c0000
8c0c2000
0c0c1000
0c181800
0c181800
0c300c00
0c200c00
0c61fc00
0cff0e00
0c780600
0c200600
0c000400
08000000
00000000
00000000
ENDCHAR
STARTCHAR 214b
ENCODING 8523
SWIDTH 1529 0
DWIDTH 26 0
BBX 26 27 0 -1
BITMAP
00000000
04010000
0701c000
06018000
06018000
06018000
06018000
06018000
06018000
06018000
0e018000
0c018000
0d03c000
0d834000
1c834000
18c36000
18c66000
18662000
30663000
306c1000
204c1800
60180c00
40300e00
80200700
00400200
00000000
00000000
ENDCHAR
STARTCHAR 214c
ENCODING 8524
SWIDTH 1529 0
DWIDTH 26 0
BBX 26 27 0 -1
BITMAP
00000000
00200000
00380000
00300000
00300000
00780000
006c0000
00c60000
01830000
03018000
0600e000
0c207800
18381f00
60300c00
80300000
00780000
00680000
00e40000
00c60000
01830000
03018000
0600e000
0c007800
30001f00
c0000c00
00000000
00000000
ENDCHAR
STARTCHAR 214d
ENCODING 8525
SWIDTH 1529 0
DWIDTH 26 0
BBX 26 27 0 -1
BITMAP
00000000
04006000
07fff000
06006000
06006000
06006000
06006000
06006000
06006400
7ffffe00
06006000
06006000
06006000
06006000
06006000
06006600
ffffff00
06006000
06006000
06006000
06006000
06006000
06006000
060fe000
0401c000
00000000
00000000
ENDCHAR
STARTCHAR 214e
ENCODING 8526
SWIDTH 1529 0
DWIDTH 26 0
BBX 26 27 0 -1
BITMAP
00000000
10001800
1ffffc00
18181800
18181800
18181800
18181800
18181800
18181800
18181800
18181800
18181800
1ffff800
18001800
18001800
18001800
18001800
18001800
18001800
18001800
18001800
18001800
18001800
1803f800
10007000
00000000
00000000
ENDCHAR
STARTCHAR 214f
ENCODING 8527
SWIDTH 1529 0
DWIDTH 26 0
BBX 26 27 0 -1
BITMAP
00000000
20000000
20000600
3fffff00
60000600
60000600
e0000c00
c0000800
01020000
01c38000
01830000
01830000
01830000
01830000
01830000
01830000
03030200
03030200
06030200
06030200
0c030200
18030300
3003ff00
6001fe00
80000000
00000000
00000000
ENDCHAR
STARTCHAR 2150
ENCODING 8528
SWIDTH 1529 0
DWIDTH 26 0
BBX 26 27 0 -1
BITMAP
00000000
40000000
30000600
19ffff00
18018000
00018000
02018000
02018000
02018000
04018000
04018000
0c018000
0c018000
18018000
18018000
30018000
30018000
f0018000
60018000
60018000
60018000
30018000
30018000
303f8000
30070000
00000000
00000000
ENDCHAR
STARTCHAR 2151
ENCODING 8529
SWIDTH 1529 0
DWIDTH 26 0
BBX 26 27 0 -1
BITMAP
00000000
10003000
1ffff800
18003000
18003000
18033000
1bffb000
19033000
19033000
18863000
18863000
18c63000
18443000
186c3000
18383000
18383000
187c3200
186c3200
30c63200
30c71a00
31839a00
6301da00
66008f00
cc000700
80000200
00000000
00000000
ENDCHAR
STARTCHAR 2152
ENCODING 8530
SWIDTH 1529 0
DWIDTH 26 0
BBX 26 27 0 -1
BITMAP
00000000
00006000
3ffff000
00c06000
00c06000
00c06000
00c06000
00c06000
00c06000
20c06000
18c06000
0ec07000
07c06c00
03806600
01806700
01806300
03006200
03006000
06006000
0600e000
0c00c000
1801c000
30038000
407f0000
80060000
00000000
00000000
ENDCHAR
STARTCHAR 2153
ENCODING 8531
SWIDTH 1529 0
DWIDTH 26 0
BBX 26 27 0 -1
BITMAP
00000000
00400000
00700000
00600000
00600000
00600000
00606000
7ffff000
00606000
00606000
04606000
08c06000
18c07000
30c06c00
71806600
61806700
03006300
03006200
06006000
06006000
0c00c000
1800c000
3001c000
601f8000
80070000
00000000
00000000
ENDCHAR
STARTCHAR 2154
ENCODING 8532
SWIDTH 1529 0
DWIDTH 26 0
BBX 26 27 0 -1
BITMAP
00000000
00010000
0001c000
00018000
00c18000
7fe18000
00c18000
00c18600
00dfff00
40c18600
31818600
19818600
0d818600
0f018600
07018600
07830600
0f830600
0cc30600
18c60600
18660600
306c0600
200c0600
40180e00
8030fc00
00403800
00000000
00000000
ENDCHAR
STARTCHAR 2155
ENCODING 8533
SWIDTH 1529 0
DWIDTH 26 0
BBX 26 27 0 -1
BITMAP
00000000
04000000
07000000
06000000
06000000
0c000c00
0ffffe00
18000c00
18000c00
30400c00
60700c00
40600c00
80600c00
00e00c00
00d00c00
00880c00
018c0c00
03060c00
06038c00
0c01cc00
30009c00
00001800
00003800
0003f000
00006000
00000000
00000000
ENDCHAR
STARTCHAR 2156
ENCODING 8534
SWIDTH 1529 0
DWIDTH 26 0
BBX 26 27 0 -1
BITMAP
00000000
04000000
07000000
06000000
06000000
0c000c00
0ffffe00
0c000c00
18000c00
18000c00
30e00c00
203c0c00
400e0c00
80060c00
00000c00
00000c00
0001cc00
000f0c00
00f80c00
0fc00c00
07001c00
04001800
00003800
0007f000
0000e000
00000000
00000000
ENDCHAR
STARTCHAR 2157
ENCODING 8535
SWIDTH 1529 0
DWIDTH 26 0
BBX 26 27 0 -1
BITMAP
00000000
00000600
7fffff00
30000000
30000000
30002000
31003800
30807000
30606000
3030c000
30198000
300f0000
30060000
300f0000
300d8000
3018c000
30306000
30607000
30c03800
31801800
32001000
30000000
3ffffe00
1fffff00
00000000
00000000
00000000
ENDCHAR
STARTCHAR 2158
ENCODING 8536
SWIDTH 1529 0
DWIDTH 26 0
BBX 26 27 0 -1
BITMAP
00000000
08010000
0e01c000
0c018000
0c018000
0c018000
0c818000
ffc18600
0c1fff00
0c018600
0c018600
0c018600
0c018600
0c018600
0c030600
0c030600
0c030600
0c060600
0c060600
0c060600
0c0c0600
0c0c0600
0c180c00
0c30fc00
08403800
00000000
00000000
ENDCHAR
STARTCHAR 2159
ENCODING 8537
SWIDTH 1529 0
DWIDTH 26 0
BBX 26 27 0 -1
BITMAP
00000000
00400000
00700000
00600000
0060c000
3fffe000
00c0c000
00c0c000
0180c200
0300c200
0600c300
0c00ff00
30107e00
c01c0000
00180000
00180600
ffffff00
00180000
00180000
00180000
00180000
00180000
00180000
00180000
00100000
00000000
00000000
ENDCHAR
STARTCHAR 215a
ENCODING 8538
SWIDTH 1529 0
DWIDTH 26 0
BBX 26 27 0 -1
BITMAP
00000000
00000000
00820000
00e38000
00c30000
00c30000
00c30000
00c30000
00c30000
00c30000
00c30600
ffc3ff00
00c30000
00c30000
00c30000
00c30000
00c30000
00c30000
00c30000
00c30000
00c30000
00c30000
00820000
00000000
00000000
00000000
00000000
ENDCHAR
STARTCHAR 215b
ENCODING 8539
SWIDTH 1529 0
DWIDTH 26 0
BBX 26 27 0 -1
BITMAP
00000000
20000600
3fffff00
30000000
30080000
300e0000
300c0000
300c0000
300c1800
33fffc00
300c1800
300c1800
300c1800
300c1800
30181800
30181800
30181800
20301800
60301800
60601800
40601800
40c01800
81803800
8303f000
0400e000
00000000
00000000
ENDCHAR
STARTCHAR 215c
ENCODING 8540
SWIDTH 1529 0
DWIDTH 26 0
BBX 26 27 0 -1
BITMAP
00000000
00200000
00380000
00300000
00300000
00300600
ffffff00
00600000
00600000
00600000
00c00000
00c40000
00c70000
01860000
018c0000
030c0000
03180000
06182000
0e301800
0c200c00
18400600
3080fe00
63ff8700
81e00300
00000200
00000000
00000000
ENDCHAR
STARTCHAR 215d
ENCODING 8541
SWIDTH 1529 0
DWIDTH 26 0
BBX 26 27 0 -1
BITMAP
00000000
00400000
00700000
00e00000
00c00000
01810000
0300c000
06006000
0c07f000
3ffc3800
1f001800
00401000
00700000
00e00000
00c00000
01800000
01804000
03003000
06001800
0c000c00
1007fc00
7ffc0e00
7f800600
30000400
00000000
00000000
00000000
ENDCHAR
STARTCHAR 215e
ENCODING 8542
SWIDTH 1529 0
DWIDTH 26 0
BBX 26 27 0 -1
BITMAP
00000000
00000000
00c00c00
ffeffe00
00c80c00
00c80c00
00cc0c00
40c40c00
21861800
31861800
11821800
19833000
0d033000
0f016000
0601e000
0700c000
0781e000
0d81e000
0cc33000
18e33000
18661800
306c1c00
20180e00
40300700
80c00200
00000000
00000000
ENDCHAR
STARTCHAR 215f
ENCODING 8543
SWIDTH 1529 0
DWIDTH 26 0
BBX 26 27 0 -1
BITMAP
00000000
0000c000
0fffe000
0400c000
0301c000
01838000
00e60000
007c0000
003e0000
00e7c000
0780fe00
3c001c00
0000c000
07ffe000
0200c000
01018000
01830000
00c60000
006c0000
00380000
003c0000
00e78000
0381f000
0e007f00
f0000e00
00000000
00000000
ENDCHAR
STARTCHAR 2160
ENCODING 8544
SWIDTH 1529 0
DWIDTH 26 0
BBX 26 27 0 -1
BITMAP
00000000
01000000
01c00000
41801800
719ffc00
61801800
61881800
61881800
61841800
61841800
61843800
61823000
61823000
61836000
61816000
6181c000
ff80c000
4181c000
01836000
01832000
01863000
018c1800
01981c00
01b00f00
01400600
00000000
00000000
ENDCHAR
STARTCHAR 2161
ENCODING 8545
SWIDTH 1529 0
DWIDTH 26 0
BBX 26 27 0 -1
BITMAP
00000000
00100000
001c0000
00180000
00180000
00180000
00180000
00180000
00180000
00181800
3ffffc00
00180000
00180000
00180000
00190000
00188000
0018c000
00186000
00186000
00186000
00180000
00180400
00180e00
ffffff00
00000000
00000000
00000000
ENDCHAR
STARTCHAR 2162
ENCODING 8546
SWIDTH 1529 0
DWIDTH 26 0
BBX 26 27 0 -1
BITMAP
00000000
00100000
001c0000
10181000
1c181c00
18181800
18181800
18181800
18181800
18181800
18181800
18181800
18181800
18181800
18181800
3ffff800
10181000
00180000
00180000
00180000
00180000
00180400
00180e00
ffffff00
00000000
00000000
00000000
ENDCHAR
STARTCHAR 2163
ENCODING 8547
SWIDTH 1529 0
DWIDTH 26 0
BBX 26 27 0 -1
BITMAP
00000000
00000000
00000600
ffffff00
00180000
00180000
00180000
00180000
20180c00
3ffffe00
30180c00
30180c00
30180c00
30180c00
30180c00
30180c00
30180c00
30180c00
30180c00
3018fc00
20181800
00180000
00180000
00180000
00100000
00000000
00000000
ENDCHAR
STARTCHAR 2164
ENCODING 8548
SWIDTH 1529 0
DWIDTH 26 0
BBX 26 27 0 -1
BITMAP
00000000
00040000
00074000
00063000
00061800
00061800
00060000
00060600
ffffff00
00060000
00060000
00060000
00060000
00060000
00030000
00330000
7ffb0000
00018200
00018200
0000c200
0000c200
00006200
00003b00
00001f00
00000600
00000000
00000000
ENDCHAR
STARTCHAR 2165
ENCODING 8549
SWIDTH 1529 0
DWIDTH 26 0
BBX 26 27 0 -1
BITMAP
00000000
00600000
001c0000
000e0000
00060000
08041800
0ffffc00
0c001800
0c001800
0c001800
0c001800
0c001800
0c001800
0ffff800
0c001800
0c001000
0c000000
18000000
18000000
18000000
30000000
30000000
60000000
40000000
80000000
00000000
00000000
ENDCHAR
STARTCHAR 2166
ENCODING 8550
SWIDTH 1529 0
DWIDTH 26 0
BBX 26 27 0 -1
BITMAP
00000000
00001800
0ffffc00
00000000
00000000
00000000
08001800
0ffffc00
0c001800
0c001800
0c001800
0c001800
0c001800
0ffff800
0c001800
0c001000
0c000000
18000000
18000000
18000000
30000000
30000000
60000000
40000000
80000000
00000000
00000000
ENDCHAR
STARTCHAR 2167
ENCODING 8551
SWIDTH 1529 0
DWIDTH 26 0
BBX 26 27 0 -1
BITMAP
00000000
00100000
001c0000
00180000
00181800
001ffc00
00180000
00180000
00180000
00183000
3ffff800
02007000
03006000
0100c000
0180c000
00c18000
00630000
00360000
001c0000
003e0000
00630000
01c1c000
0700f000
1c003f00
e0000e00
00000000
00000000
ENDCHAR
STARTCHAR 2168
ENCODING 8552
SWIDTH 1529 0
DWIDTH 26 0
BBX 26 27 0 -1
BITMAP
00000000
01000000
01c00000
01800000
03800800
03001c00
07fffe00
0600c000
0f00e000
1d00c000
19818000
30c18000
60c30000
80660000
00360000
003c0000
00180000
003c0000
00660000
00c38000
0181c000
03007000
06003c00
1c001f00
e0000600
00000000
00000000
ENDCHAR
STARTCHAR 2169
ENCODING 8553
SWIDTH 1529 0
DWIDTH 26 0
BBX 26 27 0 -1
BITMAP
00000000
00000000
00001800
3ffffc00
00300000
00300000
00300000
00300000
00300000
00300400
00300e00
ffffff00
00340000
00370000
00360000
00660000
00660000
00c60000
00c60000
01860200
03060200
06060300
0c07ff00
1803fe00
60000000
00000000
00000000
ENDCHAR
STARTCHAR 216a
ENCODING 8554
SWIDTH 1529 0
DWIDTH 26 0
BBX 26 27 0 -1
BITMAP
00000000
10003000
1ffff800
180c0000
180c0000
180c0000
180c0000
180c0000
300c0000
300c0c00
7ffffe00
200c0000
020c0000
018c0000
00ec0000
003c0000
001c0000
000e0000
000f8000
000de000
000c7800
000c1f00
000c0e00
01fc0400
00380000
00000000
00000000
ENDCHAR
STARTCHAR 216b
ENCODING 8555
SWIDTH 1529 0
DWIDTH 26 0
BBX 26 27 0 -1
BITMAP
00000000
08000000
0e000000
0c001000
0c003800
1ffffc00
18180000
18180000
30180000
30180000
60180000
40180000
80180000
00181800
3ffffc00
00180000
00180000
00180000
00180000
00180000
00180000
00180400
00180e00
ffffff00
00000000
00000000
00000000
ENDCHAR
STARTCHAR 216c
ENCODING 8556
SWIDTH 1529 0
DWIDTH 26 0
BBX 26 27 0 -1
BITMAP
00000000
00100000
001c0000
10181000
1c181c00
18181800
18181800
18181800
18181800
18181800
3ffff800
10001000
00000000
00000000
00000000
00003000
1ffff800
00000000
00000000
00000000
00000000
00000400
00000e00
ffffff00
00000000
00000000
00000000
ENDCHAR
STARTCHAR 216d
ENCODING 8557
SWIDTH 1529 0
DWIDTH 26 0
BBX 26 27 0 -1
BITMAP
00000000
04000000
07001800
067ffc00
0e030000
0c030000
0c030000
18030000
18030000
3c030000
2c030600
4dffff00
8c030000
0c030000
0c030000
0c030000
0c030000
0c030000
0c030000
0c030000
0c030000
0c030000
0c030000
0c030000
08020000
00000000
00000000
ENDCHAR
STARTCHAR 216e
ENCODING 8558
SWIDTH 1529 0
DWIDTH 26 0
BBX 26 27 0 -1
BITMAP
00000000
04040000
07070000
06060000
0e060000
0c060000
0c060000
18060000
18060c00
39fffe00
38060000
58060000
98070000
180d0000
180c8000
180cc000
18184000
18186000
18183000
18303000
18301800
18601c00
18c00e00
19800700
12000200
00000000
00000000
ENDCHAR
STARTCHAR 216f
ENCODING 8559
SWIDTH 1529 0
DWIDTH 26 0
BBX 26 27 0 -1
BITMAP
00000000
08000000
0e406000
0c7ff000
0c606000
18606000
18606000
30606000
30706000
386c6000
78666000
58676000
98636000
18606000
18606000
18606000
18606000
18606200
18606200
18c06200
18c06200
18c06300
19807f00
19003e00
12000000
00000000
00000000
ENDCHAR
STARTCHAR 2170
ENCODING 8560
SWIDTH 1529 0
DWIDTH 26 0
BBX 26 27 0 -1
BITMAP
00000000
00200000
00380000
00300000
00306000
003ff000
00300000
00300000
00300000
00300600
ffffff00
00000000
00200000
00380000
00300000
00700000
00680000
00cc0000
00c60000
01830000
0301c000
0600f000
0c007c00
30001f00
c0000600
00000000
00000000
ENDCHAR
STARTCHAR 2171
ENCODING 8561
SWIDTH 1529 0
DWIDTH 26 0
BBX 26 27 0 -1
BITMAP
00000000
08000000
0e000000
0c000000
0c000600
19ffff00
180c6000
180c6000
300c6000
380c6000
780c6000
580c6000
980c6000
180c6000
180c6000
180c6000
18186000
18186200
18306200
18306200
18606200
18606300
18c07f00
19803e00
12000000
00000000
00000000
ENDCHAR
STARTCHAR 2172
ENCODING 8562
SWIDTH 1529 0
DWIDTH 26 0
BBX 26 27 0 -1
BITMAP
00000000
08010000
0e01c000
0c018000
18018000
18018000
18018000
30018000
30018000
38219000
78398800
58318c00
98618600
18618600
18c18300
18c18300
19818300
19018200
1a018000
18018000
18018000
18018000
18018000
181f8000
10030000
00000000
00000000
ENDCHAR
STARTCHAR 2173
ENCODING 8563
SWIDTH 1529 0
DWIDTH 26 0
BBX 26 27 0 -1
BITMAP
00000000
02040000
03870000
03060000
060c0000
060c0c00
0c0ffe00
0c180c00
18180c00
3c180c00
2c301800
4c361800
8c631800
0c43b000
0c81b000
0c016000
0c006000
0c00c000
0c00c000
0c018000
0c030000
0c060000
0c0c0000
0c300000
08c00000
00000000
00000000
ENDCHAR
STARTCHAR 2174
ENCODING 8564
SWIDTH 1529 0
DWIDTH 26 0
BBX 26 27 0 -1
BITMAP
00000000
08080000
0e0e0000
0c0c0000
0c0c0000
180c2000
180c3000
180c3600
33ffff00
38183000
78183000
58183000
98302000
18306000
18606000
18606000
18f8c000
185ec000
18038000
1803c000
18066000
180c3800
18181c00
18600e00
11c00600
00000000
00000000
ENDCHAR
STARTCHAR 2175
ENCODING 8565
SWIDTH 1529 0
DWIDTH 26 0
BBX 26 27 0 -1
BITMAP
00000000
00100000
001c0000
00180000
00360000
00630000
00c0c000
01887000
030e3c00
0c1c0f00
30380600
c0600000
00c10000
0303c000
0c078000
001c0000
00702000
01c07800
0600f000
1801c000
00070000
001c0000
00700000
03800000
3c000000
00000000
00000000
ENDCHAR
STARTCHAR 2176
ENCODING 8566
SWIDTH 1529 0
DWIDTH 26 0
BBX 26 27 0 -1
BITMAP
00000000
00e00000
00300000
00380000
006c0000
00660000
00c30000
01818000
0300c000
06006000
0c003800
18001c00
3000cf00
c7ffe600
00180000
00180000
00180000
00180000
00180000
00180000
00180000
00180000
00180c00
7ffffe00
00000000
00000000
00000000
ENDCHAR
STARTCHAR 2177
ENCODING 8567
SWIDTH 1529 0
DWIDTH 26 0
BBX 26 27 0 -1
BITMAP
00000000
00000000
20000c00
3ffffe00
30000c00
30000c00
30000c00
31018c00
31ffcc00
31818c00
31818c00
31818c00
31818c00
31818c00
31ff8c00
31810c00
31800c00
31808c00
31808c00
31808c00
31ffcc00
30ff8c00
30000c00
30007c00
20001800
00000000
00000000
ENDCHAR
STARTCHAR 2178
ENCODING 8568
SWIDTH 1529 0
DWIDTH 26 0
BBX 26 27 0 -1
BITMAP
00000000
00000000
40000c00
7ffffe00
60000c00
60000c00
60000c00
60000c00
61030c00
61ff8c00
61830c00
61830c00
61830c00
61830c00
61830c00
61830c00
61830c00
61ff0c00
61820c00
61000c00
60000c00
60000c00
60000c00
6001fc00
40003800
00000000
00000000
ENDCHAR
STARTCHAR 2179
ENCODING 8569
SWIDTH 1529 0
DWIDTH 26 0
BBX 26 27 0 -1
BITMAP
00000000
10c43000
1fe7f800
18c63000
18c63000
18c63000
18c63000
18c63000
18c63000
18c63000
18c63600
ffffff00
18c63000
18c63000
18c63000
18c63000
18c63000
18c63000
18c63000
18c63000
18c63000
18c63000
18c63000
1bc6f000
11846000
00000000
00000000
ENDCHAR
STARTCHAR 217a
ENCODING 8570
SWIDTH 1529 0
DWIDTH 26 0
BBX 26 27 0 -1
BITMAP
00000000
20000000
20000600
3fffff00
60000600
60000600
c1000400
c1c00800
0180c000
01ffe000
01800000
01800000
03006000
07fff000
02006000
00006000
00006c00
3ffffe00
00006000
00006000
0000e000
0000c000
0001c000
003f8000
00070000
00000000
00000000
ENDCHAR
STARTCHAR 217b
ENCODING 8571
SWIDTH 1529 0
DWIDTH 26 0
BBX 26 27 0 -1
BITMAP
00000000
10000c00
1ffffe00
18000c00
18000c00
18000c00
18000c00
1ffffc00
18000800
18000000
1840c000
187fe000
1860c000
1860c000
1860c000
1860c000
1860c000
3860c000
30c0c000
30c0c200
6180c200
4180c300
8300ff00
06007e00
18000000
00000000
00000000
ENDCHAR
STARTCHAR 217c
ENCODING 8572
SWIDTH 1529 0
DWIDTH 26 0
BBX 26 27 0 -1
BITMAP
00000000
08000000
0e000600
0c3fff00
0c030600
0c030600
0c030600
0c830600
ffc30600
0c030600
0c030600
0c030600
0c030600
0c030600
0c070600
0c060600
0c060600
0c0c0600
0fcc0600
fe180600
70180c00
40300c00
00601c00
00c3f800
03007000
00000000
00000000
ENDCHAR
STARTCHAR 217d
ENCODING 8573
SWIDTH 1529 0
DWIDTH 26 0
BBX 26 27 0 -1
BITMAP
00000000
00e00400
03f00700
0f000600
73010600
0301c600
03018600
03018600
03018600
03018600
03318600
fff98600
03018600
03018600
03018600
03018600
03018600
03018600
06018600
06010600
06000600
0c000600
08000600
1000fe00
20001c00
00000000
00000000
ENDCHAR
STARTCHAR 217e
ENCODING 8574
SWIDTH 1529 0
DWIDTH 26 0
BBX 26 27 0 -1
BITMAP
00000000
08000000
0e000000
0c000600
181fff00
18030600
30830600
20e30600
40c30600
c0c30600
71830600
19830600
0f030600
06030600
06030600
0c030600
0c860600
18c60600
30660600
43ec0600
fe6c0c00
70580c00
40301c00
0063f800
01807000
00000000
00000000
ENDCHAR
STARTCHAR 2221
ENCODING 8737
SWIDTH 1529 0
DWIDTH 26 0
BBX 26 27 0 -1
BITMAP
00000000
40000600
7fffff00
60000600
60200600
60380600
60300600
60300600
60306600
67fff600
60306600
60306600
60306600
60606600
60606600
60c06600
60c06600
6180e600
6180c600
6301c600
660f8600
68030600
60000600
7ffffe00
40000400
00000000
00000000
ENDCHAR
STARTCHAR 2222
ENCODING 8738
SWIDTH 1529 0
DWIDTH 26 0
BBX 26 27 0 -1
BITMAP
00000000
08000000
0e000000
0c000000
18000c00
1ffffe00
18000c00
30000c00
20c00c00
40700c00
80300c00
0020cc00
7fffec00
0c000c00
0c000c00
0c000c00
0c000c00
0c000c00
0c000c00
0fff8c00
07ffdc00
00001800
00003800
0003f000
0000e000
00000000
00000000
ENDCHAR
STARTCHAR 2223
ENCODING 8739
SWIDTH 1529 0
DWIDTH 26 0
BBX 26 27 0 -1
BITMAP
00000000
04000000
07000000
06000000
0c000600
0fffff00
18000600
30080600
600e0600
800c0600
080c0600
0e180600
0c1c0600
0c320600
0c330600
0c618600
0cc0c600
0d808600
0e000600
0c004600
1fffee00
08000c00
00001c00
0003f800
00007000
00000000
00000000
ENDCHAR
STARTCHAR 2224
ENCODING 8740
SWIDTH 1529 0
DWIDTH 26 0
BBX 26 27 0 -1
BITMAP
00000000
04000000
07000000
06000000
0c000600
0fffff00
18000600
31000600
61c00600
81818600
03ffc600
03018600
06018600
06018600
0d830600
08c30600
10660600
20360600
002c0600
00180600
00300e00
00600c00
01801c00
0603f800
38007000
00000000
00000000
ENDCHAR
STARTCHAR 2225
ENCODING 8741
SWIDTH 1529 0
DWIDTH 26 0
BBX 26 27 0 -1
BITMAP
00000000
04000000
07000000
06000000
0c001800
0ffffc00
1c631800
18631800
30631800
66c31800
83c61800
01c61800
01761800
033c1800
060e1800
0c0f9800
1819d800
60187800
00303c00
00601f00
00c03600
01803000
06007000
180fe000
0001c000
00000000
00000000
ENDCHAR
STARTCHAR 2226
ENCODING 8742
SWIDTH 1529 0
DWIDTH 26 0
BBX 26 27 0 -1
BITMAP
00000000
00000000
40000c00
7ffffe00
60000000
60000000
60000000
60003000
63fff800
600c0000
600c0000
600c0000
600c0000
600c0000
600c0000
600c0000
600c0c00
6ffffe00
60000000
60000000
60000000
60000600
ffffff00
40000000
00000000
00000000
00000000
ENDCHAR
STARTCHAR 2227
ENCODING 8743
SWIDTH 1529 0
DWIDTH 26 0
BBX 26 27 0 -1
BITMAP
00000000
00020000
00038000
20c30000
3fe30000
30c30000
30c30000
30c38000
30c36000
30c33800
30c31c00
30c30e00
30c30600
30c30400
30c30000
30c30000
30c30000
3fc30000
30830000
20030000
00030000
00030000
00030000
00030000
00020000
00000000
00000000
ENDCHAR
STARTCHAR 2228
ENCODING 8744
SWIDTH 1529 0
DWIDTH 26 0
BBX 26 27 0 -1
BITMAP
00000000
00080c00
00cffe00
ffec0c00
0c0c0c00
0c0c0c00
0c0c0c00
0c0c0c00
0c0c0c00
0c0c0c00
0c0c0c00
0c0c0c00
0c0c0c00
0c0c0c00
0c0c0c00
0c0c0c00
0c0c0c00
0dcc0c00
ff0cfc00
f00c3800
400c0000
000c0000
000c0000
000c0000
00080000
00000000
00000000
ENDCHAR
STARTCHAR 2229
ENCODING 8745
SWIDTH 1529 0
DWIDTH 26 0
BBX 26 27 0 -1
BITMAP
00000000
20000600
3fffff00
30000000
30000000
30000000
30000600
37ffff00
30180000
30180000
30180000
30181800
303ffc00
30301800
30301800
30601800
30601800
20c01800
60c01800
61801800
41803800
43003000
86007000
8c0fe000
1000c000
00000000
00000000
ENDCHAR
STARTCHAR 222a
ENCODING 8746
SWIDTH 1529 0
DWIDTH 26 0
BBX 26 27 0 -1
BITMAP
00000000
00100000
001c0000
00180400
00180e00
ffffff00
00320000
00630000
00610000
00c18000
0180c000
03206000
06383000
0c301c00
18300f00
30600600
c0620000
00c18000
00c0c000
01806000
03003000
0407f000
1ffc3800
1fc01800
0c001000
00000000
00000000
ENDCHAR
STARTCHAR 222b
ENCODING 8747
SWIDTH 1529 0
DWIDTH 26 0
BBX 26 27 0 -1
BITMAP
00000000
0001c000
003ff000
3ff80000
00600000
00600000
00600400
00600e00
ffffff00
00c00000
00c00000
00c06000
01fff000
01806000
0340c000
0360c000
06218000
0c330000
181e0000
300c0000
401e0000
80738000
01c1f000
07007f00
38001c00
00000000
00000000
ENDCHAR
STARTCHAR 222c
ENCODING 8748
SWIDTH 1529 0
DWIDTH 26 0
BBX 26 27 0 -1
BITMAP
00000000
00020000
00038000
43030000
7f830000
63030000
63030000
63030000
63030000
63070000
63070000
63068000
630e8000
630cc000
630cc000
631c4000
7f186000
62386000
40303000
00703000
00601800
00c01c00
01800e00
03000700
0c000200
00000000
00000000
ENDCHAR
STARTCHAR 222d
ENCODING 8749
SWIDTH 1529 0
DWIDTH 26 0
BBX 26 27 0 -1
BITMAP
00000000
00010000
0001c000
00018000
43018000
7f818000
63018000
63018000
63018600
637fff00
63018000
63018000
63018000
63018000
63018000
63018000
63018000
63018000
7f018000
62018000
40018000
00018000
00018000
00018000
00010000
00000000
00000000
ENDCHAR
STARTCHAR 222e
ENCODING 8750
SWIDTH 1529 0
DWIDTH 26 0
BBX 26 27 0 -1
BITMAP
00000000
04006000
07fff000
06006000
06006000
06006000
06006000
07ffe000
06004000
04000000
00000600
ffffff00
03000000
03000000
06006000
0ffff000
04006000
00006000
00006000
00006000
00006000
0000c000
0001c000
007f8000
000f0000
00000000
00000000
ENDCHAR
STARTCHAR 222f
ENCODING 8751
SWIDTH 1529 0
DWIDTH 26 0
BBX 26 27 0 -1
BITMAP
00000000
00000000
00001800
007ffc00
43201800
7fa01800
63201800
63303800
63103000
63183000
63187000
63086000
630c6000
630cc000
6306c000
63078000
63030000
7f030000
62078000
400cc000
0018e000
00307000
00603c00
01c01f00
07000c00
00000000
00000000
ENDCHAR
STARTCHAR 2230
ENCODING 8752
SWIDTH 1529 0
DWIDTH 26 0
BBX 26 27 0 -1
BITMAP
00000000
00040000
00070000
00060000
41860000
7fc60000
61860000
61863000
61bff800
61863000
61863000
61863000
61863000
61863000
618c3000
618c3000
618c3000
7f983000
61183200
40303200
00303200
00603300
00c03f00
01801e00
06000000
00000000
00000000
ENDCHAR
STARTCHAR 2231
ENCODING 8753
SWIDTH 1529 0
DWIDTH 26 0
BBX 26 27 0 -1
BITMAP
00000000
00800000
00e00000
00c00000
00c18000
3fffc000
00c18000
00c18000
01818200
01818200
03018200
03018200
06018300
0c01ff00
3000fe00
c0000000
08003000
0ffff800
0c003000
0c003000
0c003000
0c003000
0c003000
0ffff000
08002000
00000000
00000000
ENDCHAR
STARTCHAR 2232
ENCODING 8754
SWIDTH 1529 0
DWIDTH 26 0
BBX 26 27 0 -1
BITMAP
00000000
40000600
7fffff00
60000600
60000600
6000c600
67ffe600
6000c600
6100c600
61818600
60c18600
60430600
60630600
60360600
601c0600
601c0600
60360600
60630600
60c38600
6181c600
6300f600
6c006600
60000600
7ffffe00
40000400
00000000
00000000
ENDCHAR
STARTCHAR 2233
ENCODING 8755
SWIDTH 1529 0
DWIDTH 26 0
BBX 26 27 0 -1
BITMAP
00000000
10020000
1c038000
18030000
18030000
18030000
18030600
187fff00
19030600
ff830600
18030600
18030600
18030600
18030600
18060600
18060600
18060600
180c0600
1f8c0600
fc180600
f0180e00
40300c00
00601c00
00c1f800
03003000
00000000
00000000
ENDCHAR
STARTCHAR 2234
ENCODING 8756
SWIDTH 1529 0
DWIDTH 26 0
BBX 26 27 0 -1
BITMAP
00000000
00020000
08038000
0e030000
0c030000
0c030000
0c030000
0c030000
0cc30000
ffe30000
0c03c000
0c033000
0c031800
0c030c00
0c030e00
0c030400
0c030000
0c030000
0dc30000
ff030000
f8030000
40030000
00030000
00030000
00020000
00000000
00000000
ENDCHAR
STARTCHAR 2235
ENCODING 8757
SWIDTH 1529 0
DWIDTH 26 0
BBX 26 27 0 -1
BITMAP
00000000
00000000
08008000
0e00e000
0c00c000
0c00c000
1860c000
1ff0c000
1860c000
1860e000
3061a000
30c1b000
30c1b000
68c31800
4d831800
85860c00
070c0e00
03180700
07a00200
0cc00000
18600000
30380000
601fff00
8007fe00
00000000
00000000
00000000
ENDCHAR
STARTCHAR 2236
ENCODING 8758
SWIDTH 1529 0
DWIDTH 26 0
BBX 26 27 0 -1
BITMAP
00000000
08020600
0e03ff00
0c030600
0c330600
1ffb0600
18330600
18330600
30330600
30330600
70730600
4c630600
86630600
06c30600
04c30600
01837e00
01831c00
03030000
06030000
0c030000
18030000
30030000
60030000
80030000
00020000
00000000
00000000
ENDCHAR
STARTCHAR 2237
ENCODING 8759
SWIDTH 1529 0
DWIDTH 26 0
BBX 26 27 0 -1
BITMAP
00000000
00100000
001c0000
00180000
00180000
00180000
00300c00
7ffffe00
00340000
00620000
00630000
00c18000
0190c000
031c6000
06183000
0c181c00
18180f00
30180600
c018c000
07ffe000
00180000
00180000
00180000
00180000
00100000
00000000
00000000
ENDCHAR
STARTCHAR 2238
ENCODING 8760
SWIDTH 1529 0
DWIDTH 26 0
BBX 26 27 0 -1
BITMAP
00000000
00100000
001c0000
00180000
00180600
ffffff00
00360000
00630000
00c18000
0180c000
03007000
06003c00
0d009f00
31c0e600
c180c000
0180c000
0180c000
0180c000
0300c000
0300c000
0600c000
0600c000
0c00c000
0800c000
10008000
00000000
00000000
ENDCHAR
STARTCHAR 2239
ENCODING 8761
SWIDTH 1529 0
DWIDTH 26 0
BBX 26 27 0 -1
BITMAP
00000000
00040000
0c070000
07060000
03860000
01860000
00060000
10060000
0c060000
07060000
03860000
01060000
00060400
000c0e00
ffffff00
000c0000
00190000
0018c000
00306000
00603000
00c03800
01801c00
03000e00
0c000e00
70000400
00000000
00000000
ENDCHAR
STARTCHAR 223a
ENCODING 8762
SWIDTH 1529 0
DWIDTH 26 0
BBX 26 27 0 -1
BITMAP
00000000
00100000
001c0000
00180000
00180400
00180e00
ffffff00
00340000
00620000
00630000
00c18000
0180c000
03006000
06003800
0c001f00
30000e00
c8002000
0e003800
0c003000
0c003000
0c003000
0c003000
0c003000
1ffff000
08002000
00000000
00000000
ENDCHAR
STARTCHAR 223b
ENCODING 8763
SWIDTH 1529 0
DWIDTH 26 0
BBX 26 27 0 -1
BITMAP
00000000
10000000
1c000600
183fff00
1800c000
1980c000
1980c000
ffe0c000
d980c000
1980c000
1980c000
1980c000
3180c000
3180c000
3300c000
2300c000
7300c000
3b00c000
0e00c000
0f00c000
0d80c000
19c0c000
30c0c000
6007c000
80018000
00000000
00000000
ENDCHAR
STARTCHAR 223c
ENCODING 8764
SWIDTH 1529 0
DWIDTH 26 0
BBX 26 27 0 -1
BITMAP
00000000
00600000
00380000
001c0000
20080600
3fffff00
60000600
60000600
c000cc00
c7ffe800
0100c000
0180c000
00818000
00c18000
00430000
00630000
00360000
001c0000
003c0000
00760000
00c30000
0181c000
0600f000
18007e00
60001c00
00000000
00000000
ENDCHAR
STARTCHAR 223d
ENCODING 8765
SWIDTH 1529 0
DWIDTH 26 0
BBX 26 27 0 -1
BITMAP
00000000
00c00000
00700000
10380000
10100600
3fffff00
30000600
60000600
e0000c00
c1020800
01c38000
01830000
01830000
01830000
01830000
01830000
01830000
03830000
03030200
03030200
06030200
06030300
0c03ff00
1801fe00
60000000
00000000
00000000
ENDCHAR
STARTCHAR 223e
ENCODING 8766
SWIDTH 1529 0
DWIDTH 26 0
BBX 26 27 0 -1
BITMAP
00000000
00002000
00003800
00c03000
7fe03000
00c03000
00c03200
00dfff00
40c03000
20c03000
11803000
19903000
0d8c3000
0f063000
07073000
07033000
07833000
0d803000
0cc03000
18603000
18603000
30303000
60303000
4003f000
80006000
00000000
00000000
ENDCHAR
STARTCHAR 223f
ENCODING 8767
SWIDTH 1529 0
DWIDTH 26 0
BBX 26 27 0 -1
BITMAP
00000000
04000000
07000000
06000000
0e000000
0c000c00
1ffffe00
180c0c00
300c0c00
200c1800
400c1000
000c2000
020c0000
038c8000
030c6000
070c3000
060c1800
0e0c1c00
0c0c0c00
180c0e00
300c0600
600c0600
800c0000
00fc0000
00380000
00000000
00000000
ENDCHAR
STARTCHAR 2240
ENCODING 8768
SWIDTH 1529 0
DWIDTH 26 0
BBX 26 27 0 -1
BITMAP
00000000
10000c00
1ffffe00
18000c00
18000c00
18000c00
18000c00
1ffffc00
18000800
18000000
18006000
1bfff000
18806000
18806000
1840c000
1860c000
18318000
181b0000
180e0000
300e0000
301b0000
2031c000
40c07800
83003f00
0c000c00
00000000
00000000
ENDCHAR
STARTCHAR 2241
ENCODING 8769
SWIDTH 1529 0
DWIDTH 26 0
BBX 26 27 0 -1
BITMAP
00000000
08083000
0e0ff800
0c0c3000
0c0c3000
0c0c3000
0c0c3000
8c8c3000
ecec3000
cccc3000
cccc3000
cccc3000
cccc3000
cccc3000
cccc3000
cccc3000
cccc3000
cccc3200
cccc3200
ffcc3200
80983200
00183300
00303f00
00601e00
00800000
00000000
00000000
ENDCHAR
STARTCHAR 2242
ENCODING 8770
SWIDTH 1529 0
DWIDTH 26 0
BBX 26 27 0 -1
BITMAP
00000000
00100000
001c0000
10181000
1c181c00
18181800
18181800
18181800
3ffff800
10101000
001c0000
00180000
00180000
00180000
003c0000
00340000
00620000
00630000
00c18000
0180c000
03007000
06003c00
0c001f00
30000600
c0000000
00000000
00000000
ENDCHAR
STARTCHAR 2243
ENCODING 8771
SWIDTH 1529 0
DWIDTH 26 0
BBX 26 27 0 -1
BITMAP
00000000
00100000
001c0000
10181000
1c181c00
18181800
18181800
18181800
18181800
3ffff800
10601000
00300000
00180000
001c0000
00340000
00360000
00630000
00630000
00c18000
0180c000
0300e000
06007000
0c003c00
30001f00
c0000600
00000000
00000000
ENDCHAR
STARTCHAR 2244
ENCODING 8772
SWIDTH 1529 0
DWIDTH 26 0
BBX 26 27 0 -1
BITMAP
00000000
00100000
201c0800
38180e00
30180c00
30180c00
30180c00
7ffffc00
20000800
00000000
0000c000
7fffe000
0180c000
0180c000
0181c000
01818600
0181ff00
03000600
03000600
06000600
0c000600
18000e00
30001c00
6007f800
8000f000
00000000
00000000
ENDCHAR
STARTCHAR 2245
ENCODING 8773
SWIDTH 1529 0
DWIDTH 26 0
BBX 26 27 0 -1
BITMAP
00000000
00003000
1ffff800
00003000
00003000
00003000
10003000
1c003000
18003000
1ffff000
18002000
18000000
18000000
18000000
18001800
1ffffc00
18001800
18001800
18001800
18001800
18001800
18001800
1ffff800
18001000
10000000
00000000
00000000
ENDCHAR
STARTCHAR 2246
ENCODING 8774
SWIDTH 1529 0
DWIDTH 26 0
BBX 26 27 0 -1
BITMAP
00000000
08040000
0e070000
0c060000
0c060000
8cc60000
ffe60000
ccc60000
ccc60000
ccc60c00
ccc7fe00
ccc60000
ccc60000
ccc60000
ccc60000
ccc60000
ccc60000
cdc60200
8c860200
0c060200
0c060200
0c060300
0c07ff00
0c03fe00
08000000
00000000
00000000
ENDCHAR
STARTCHAR 2247
ENCODING 8775
SWIDTH 1529 0
DWIDTH 26 0
BBX 26 27 0 -1
BITMAP
00000000
00300000
001c0000
000c0000
20080600
3fffff00
30000000
30000000
30000000
30000c00
37fffe00
30060000
30060000
30060000
30060000
30060000
30060000
20060000
20060000
60060000
40060000
40060000
80060000
807e0000
001c0000
00000000
00000000
ENDCHAR
STARTCHAR 2248
ENCODING 8776
SWIDTH 1529 0
DWIDTH 26 0
BBX 26 27 0 -1
BITMAP
00000000
00300000
001c0000
000c0000
20080600
3fffff00
30000000
30000000
30080000
300e0000
300c0000
30180000
30180000
30300000
30300000
30608000
30606000
20c03000
20c03000
61801800
4103fc00
47fe0e00
87c00e00
82000400
00000000
00000000
00000000
ENDCHAR
STARTCHAR 2249
ENCODING 8777
SWIDTH 1529 0
DWIDTH 26 0
BBX 26 27 0 -1
BITMAP
00000000
00070000
00064000
00062000
00063000
00063000
00060600
ffffff00
00060000
00060000
00060000
00060000
00c60000
3fe30000
00030000
00030000
00018000
00018000
0000c200
0030c200
7ff86200
00003200
00001e00
00000f00
00000300
00000000
00000000
ENDCHAR
STARTCHAR 224a
ENCODING 8778
SWIDTH 1529 0
DWIDTH 26 0
BBX 26 27 0 -1
BITMAP
00000000
01000000
01c00000
01800c00
019ffe00
81800c00
41800c00
61800c00
31800c00
39800c00
19800c00
19800c00
118ffc00
01800c00
01800c00
01800c00
03000c00
03000c00
03000c00
06000c00
06000c00
0c3ffc00
18000c00
30000800
c0000000
00000000
00000000
ENDCHAR
STARTCHAR 224b
ENCODING 8779
SWIDTH 1529 0
DWIDTH 26 0
BBX 26 27 0 -1
BITMAP
00000000
04000000
07000600
0e3fff00
0c00c000
1800c000
3000c000
6200c000
8380c000
0700c000
0600c000
0c00c000
1800c000
3c00c000
6c00c000
8c00c000
0c00c000
0c00c000
0c00c000
0c00c000
0c00c000
0c00c000
0c00c000
0c0fc000
08018000
00000000
00000000
ENDCHAR
STARTCHAR 224c
ENCODING 8780
SWIDTH 1529 0
DWIDTH 26 0
BBX 26 27 0 -1
BITMAP
00000000
08000000
0e000600
0cffff00
0c018000
0c018000
0e018000
4d018000
4d818000
4cc18000
ccc18000
cc018000
cc018000
0c018000
0c018000
0c018000
0c018000
0c018000
0c018000
0c018000
0c018000
0c018000
0c018000
0c1f8000
08030000
00000000
00000000
ENDCHAR
STARTCHAR 224d
ENCODING 8781
SWIDTH 1529 0
DWIDTH 26 0
BBX 26 27 0 -1
BITMAP
00000000
10020000
1c038000
18030000
18030000
18030000
1c030600
5a7fff00
5b030600
59830600
d9830600
d8030600
d8060600
18060600
18060600
180c0600
180c0600
180c0600
18180600
18180600
18300e00
18300c00
18601c00
18c3f800
11007000
00000000
00000000
ENDCHAR
STARTCHAR 224e
ENCODING 8782
SWIDTH 1529 0
DWIDTH 26 0
BBX 26 27 0 -1
BITMAP
00000000
0003c000
10fff000
1fc00000
18000c00
1ffffe00
18000c00
18000c00
18000c00
1ffffc00
18000800
18000000
18006000
1bfff000
1800e000
1801c000
18070000
300e0000
30380400
20600400
61c00400
43800600
83fffe00
01fffc00
00000000
00000000
00000000
ENDCHAR
STARTCHAR 224f
ENCODING 8783
SWIDTH 1529 0
DWIDTH 26 0
BBX 26 27 0 -1
BITMAP
00000000
08000000
0e000600
0c3fff00
0c030600
0cc30600
ffe30600
0c030600
0c030600
0c030600
0c030600
0c030600
0cc30600
0f030600
fc030600
6c060600
0c060600
0c060600
0c0c0600
0c0c0600
0c180c00
0c180c00
0c301c00
7c63f800
18807000
00000000
00000000
ENDCHAR
STARTCHAR 2250
ENCODING 8784
SWIDTH 1529 0
DWIDTH 26 0
BBX 26 27 0 -1
BITMAP
00000000
10100000
1c1c0000
18180000
18180000
19180000
ff980000
18186000
19fff000
18186000
18186000
18186000
18186000
1f186000
f8186000
d8186000
18186000
18186000
18306200
18306200
18606200
18606300
18c07f00
f9803e00
32000000
00000000
00000000
ENDCHAR
STARTCHAR 2251
ENCODING 8785
SWIDTH 1529 0
DWIDTH 26 0
BBX 26 27 0 -1
BITMAP
00000000
00000000
10000000
1c400c00
187ffe00
18600c00
18600c00
18600c00
18600c00
18600c00
18600c00
18600c00
187ffc00
18600c00
18600c00
18600c00
18600c00
18600c00
18600c00
18600c00
18600c00
187ffc00
18600800
10400000
00000000
00000000
00000000
ENDCHAR
STARTCHAR 2252
ENCODING 8786
SWIDTH 1529 0
DWIDTH 26 0
BBX 26 27 0 -1
BITMAP
00000000
00100000
001cc000
00187000
00183000
00182000
00180600
ffffff00
00380000
007c0000
007c0000
00da0000
00db0000
01998000
0198c000
03186000
06183800
0c181e00
18180f00
30180400
c0180000
00180000
00180000
00180000
00100000
00000000
00000000
ENDCHAR
STARTCHAR 2253
ENCODING 8787
SWIDTH 1529 0
DWIDTH 26 0
BBX 26 27 0 -1
BITMAP
00000000
00080000
000e0000
000c1800
000ffc00
000c0000
010c0000
01cc0000
018c3000
03fff800
03003000
07003000
06807000
0c606000
1830e000
2018c000
001dc000
000b8000
00070000
000e0000
001c0000
00380000
00e00000
03800000
3c000000
00000000
00000000
ENDCHAR
STARTCHAR 2254
ENCODING 8788
SWIDTH 1529 0
DWIDTH 26 0
BBX 26 27 0 -1
BITMAP
00000000
01800000
ffc20000
01838000
03030000
03030800
06030e00
061b1c00
0dff3000
0c1ba000
181b4000
18336000
30333000
30633800
60631c00
60c30f00
61830600
c2030000
c0030000
c01f0200
c0060200
70000300
3fffff00
1ffffe00
00000000
00000000
00000000
ENDCHAR
STARTCHAR 2255
ENCODING 8789
SWIDTH 1529 0
DWIDTH 26 0
BBX 26 27 0 -1
BITMAP
00000000
00100000
181c0000
0e180000
06180000
00180000
00180000
01180000
61180000
33183800
3219fc00
061f8000
06180000
0c180000
0c180000
18180000
18180000
78180000
30180400
30180400
18180400
18180600
181ffe00
180ffc00
00000000
00000000
00000000
ENDCHAR
STARTCHAR 2256
ENCODING 8790
SWIDTH 1529 0
DWIDTH 26 0
BBX 26 27 0 -1
BITMAP
00000000
00206000
103ff000
0c306000
06306000
06306000
00306000
81306000
61306000
33306000
33306000
02306000
06306000
06306000
0c306000
0c306000
18306000
f8306000
38606200
30606200
30606200
18c06300
18807f00
19003e00
1a000000
00000000
00000000
ENDCHAR
STARTCHAR 2257
ENCODING 8791
SWIDTH 1529 0
DWIDTH 26 0
BBX 26 27 0 -1
BITMAP
00000000
00100000
301c0000
1c180000
0e180000
06180800
00181e00
01983c00
7fdc7000
019cc000
019b0000
019a0000
019b0000
03190000
03198000
0618c000
0618e000
0c187000
18183800
18181e00
30180f00
60180600
80180000
01f80000
00300000
00000000
00000000
ENDCHAR
STARTCHAR 2258
ENCODING 8792
SWIDTH 1529 0
DWIDTH 26 0
BBX 26 27 0 -1
BITMAP
00000000
00040000
30070000
1c060000
0c060000
00060000
00060000
c2060000
62060000
64060000
04070000
0c0f0000
080d0000
180d8000
180c8000
301cc000
3018c000
f0186000
60307000
30303000
30603800
18601c00
18c01f00
19800c00
02000000
00000000
00000000
ENDCHAR
STARTCHAR 2259
ENCODING 8793
SWIDTH 1529 0
DWIDTH 26 0
BBX 26 27 0 -1
BITMAP
00000000
20000000
18000600
0cffff00
0c060000
01060000
41060000
62060000
320c0000
360c0c00
041ffe00
04080c00
0c000c00
0c000c00
18000c00
18000c00
38000c00
f0000c00
30000c00
30000c00
18001c00
18001800
18003800
1807f000
1800e000
00000000
00000000
ENDCHAR
STARTCHAR 225a
ENCODING 8794
SWIDTH 1529 0
DWIDTH 26 0
BBX 26 27 0 -1
BITMAP
00000000
00040000
00870000
ffc60000
0c060000
0c060000
0c060000
0c060000
0c060000
0c060000
0c860000
ffc60000
0c060000
0c060000
0c060000
0c060000
0c060000
0c060200
0c060200
0fc60200
fe060200
70060300
0007ff00
0003fe00
00000000
00000000
00000000
ENDCHAR
STARTCHAR 225b
ENCODING 8795
SWIDTH 1529 0
DWIDTH 26 0
BBX 26 27 0 -1
BITMAP
00000000
00180000
000e0000
00060400
08040e00
0fffff00
0c000000
8c000000
4c000000
6c000000
3c000000
2c000000
0c000000
0c000000
1c000000
2c000000
6c000000
cc000000
48000000
08000000
18000000
10000000
20000000
20000000
40000000
00000000
00000000
ENDCHAR
STARTCHAR 225c
ENCODING 8796
SWIDTH 1529 0
DWIDTH 26 0
BBX 26 27 0 -1
BITMAP
00000000
00040000
00640800
3ff61c00
00623800
00626000
00638000
60610400
38c18e00
1cc09c00
0d80f000
01806000
03006000
03003000
06003800
0c001c00
18000f00
30000600
c0000000
00000000
00000000
00000000
00000000
00000000
00000000
00000000
00000000
ENDCHAR
STARTCHAR 225d
ENCODING 8797
SWIDTH 1529 0
DWIDTH 26 0
BBX 26 27 0 -1
BITMAP
00000000
00020c00
0003fe00
00030c00
00630c00
7ff31800
00631000
00632000
00c34000
40c32000
30c31000
19831800
0d830c00
0f030c00
07030600
07830600
0dc30600
0cc30600
18e30e00
18637c00
30631800
60030000
c0030000
00030000
00020000
00000000
00000000
ENDCHAR
STARTCHAR 225e
ENCODING 8798
SWIDTH 1529 0
DWIDTH 26 0
BBX 26 27 0 -1
BITMAP
00000000
00640c00
fff7fe00
06060c00
06060c00
06061800
06061000
06062000
06064000
06062000
06061000
06061800
06060c00
06060c00
06060600
06060600
06060600
06060600
06060e00
0606fc00
06061800
06060000
06060000
3e060000
0c040000
00000000
00000000
ENDCHAR
STARTCHAR 225f
ENCODING 8799
SWIDTH 1529 0
DWIDTH 26 0
BBX 26 27 0 -1
BITMAP
00000000
10608600
1ff0ff00
1860c600
1860c600
1860cc00
1860c800
1860d000
1860d000
1860c800
1860cc00
1860c600
1860c600
1860c300
1860c300
1860c300
1860c300
3060c700
3060fe00
3066cc00
206cc000
6078c000
4070c000
4020c000
80008000
00000000
00000000
ENDCHAR
STARTCHAR 2260
ENCODING 8800
SWIDTH 1529 0
DWIDTH 26 0
BBX 26 27 0 -1
BITMAP
00000000
43000600
7fbfff00
6300c000
6300c000
6600c000
6400c000
6800c000
6800c000
6400c000
6600c000
6300c000
6300c000
6180c000
6180c000
6180c000
6180c000
6380c000
7f00c000
6600c000
6000c000
6000c000
6000c000
600fc000
40038000
00000000
00000000
ENDCHAR
STARTCHAR 2261
ENCODING 8801
SWIDTH 1529 0
DWIDTH 26 0
BBX 26 27 0 -1
BITMAP
00000000
00000600
ffffff00
00180000
00180000
00180000
40180600
7fffff00
60180600
60180600
60180600
60180600
64184600
67187600
66186600
66186600
66186600
66186600
6fffe600
64004600
60000600
60000600
60000600
60007e00
40001c00
00000000
00000000
ENDCHAR
STARTCHAR 2262
ENCODING 8802
SWIDTH 1529 0
DWIDTH 26 0
BBX 26 27 0 -1
BITMAP
00000000
01040000
01c70000
01860000
01860000
01860000
01860000
01860c00
ff87fe00
01860000
01860000
01860000
01860000
01860200
01860200
01860200
01860300
0f87ff00
f983fe00
61000000
00000000
00000400
00000e00
ffffff00
00000000
00000000
00000000
ENDCHAR
STARTCHAR 2263
ENCODING 8803
SWIDTH 1529 0
DWIDTH 26 0
BBX 26 27 0 -1
BITMAP
00000000
00007000
0003f800
007f0000
3ff80000
00180000
00180000
00180000
00183000
1ffff800
00180000
00180000
00180000
00180600
ffffff00
00300000
00600000
00c00000
01804000
03003000
06001800
0c07fc00
3ffe0e00
1f800600
0c000400
00000000
00000000
ENDCHAR
STARTCHAR 2264
ENCODING 8804
SWIDTH 1529 0
DWIDTH 26 0
BBX 26 27 0 -1
BITMAP
00000000
08020000
0e038000
0c030000
18030000
18030000
10830000
30430000
20630000
60630000
c7b30000
fc330000
60230000
00030000
40630000
7ff30000
60630000
60630200
60630200
60630200
60630200
60630300
7fe3ff00
6041fe00
40000000
00000000
00000000
ENDCHAR
STARTCHAR 2265
ENCODING 8805
SWIDTH 1529 0
DWIDTH 26 0
BBX 26 27 0 -1
BITMAP
00000000
01000000
01c00000
03818000
03ffc000
06018000
0c030000
18060000
600c3000
1ffff800
00183000
00183000
00183200
ffffff00
00183000
00183000
00183000
00183000
1ffff000
00182000
00180000
00180000
00180000
03f80000
00700000
00000000
00000000
ENDCHAR
STARTCHAR 2266
ENCODING 8806
SWIDTH 1529 0
DWIDTH 26 0
BBX 26 27 0 -1
BITMAP
00000000
00000000
00001800
3ffffc00
00000000
00000000
00000000
08003000
0ffff800
0c003000
0c003000
0c003000
0c003000
0ffff000
0c003000
0c003000
0c003000
0c003000
0ffff000
0c002000
08000000
00000400
00000e00
ffffff00
00000000
00000000
00000000
ENDCHAR
STARTCHAR 2267
ENCODING 8807
SWIDTH 1529 0
DWIDTH 26 0
BBX 26 27 0 -1
BITMAP
00000000
04020000
07038000
06030000
06037000
0c03f800
0c7f0000
18030000
18030000
3c030000
3c030c00
4cfffe00
8c030000
0c030000
0c030000
0c030000
0c030600
0dffff00
0c030000
0c030000
0c030000
0c030000
0c030000
0c030000
08020000
00000000
00000000
ENDCHAR
STARTCHAR 2268
ENCODING 8808
SWIDTH 1529 0
DWIDTH 26 0
BBX 26 27 0 -1
BITMAP
00000000
02010000
0381c000
03018000
07018000
06219000
06398c00
0c318600
0c318300
18618300
1c618300
2c418000
4c818800
0d018e00
0c018c00
0c019800
0c011800
0c003000
0c006000
0c00c000
0c018000
0c030000
0c060000
0c180000
08600000
00000000
00000000
ENDCHAR
STARTCHAR 2269
ENCODING 8809
SWIDTH 1529 0
DWIDTH 26 0
BBX 26 27 0 -1
BITMAP
00000000
080c0000
0e060000
0c030000
0c030000
18818600
18ffff00
18c18600
30c38600
38c38600
78c6c600
58c6c600
98cc6600
18cc6600
18d83600
18d03e00
18e01600
18c00600
18c00600
18c00600
18c00600
18c00600
18c00600
18c07e00
10800c00
00000000
00000000
ENDCHAR
STARTCHAR 226a
ENCODING 8810
SWIDTH 1529 0
DWIDTH 26 0
BBX 26 27 0 -1
BITMAP
00000000
04044000
071f7000
06f86000
06186000
0c186000
0c186000
18186000
18186000
30186000
38186600
79ffff00
98186000
18186000
18186000
18186000
18186000
18306000
18306000
18206000
18606000
18406000
18c06000
18806000
11004000
00000000
00000000
ENDCHAR
STARTCHAR 226b
ENCODING 8811
SWIDTH 1529 0
DWIDTH 26 0
BBX 26 27 0 -1
BITMAP
00000000
04000000
07003800
0601fc00
0c0fc000
0c7b0000
18030000
18030000
30030000
38030000
78030600
59ffff00
98030000
18030000
18078000
18068000
1806c000
180cc000
180c6000
18186000
18183000
18303800
18601c00
18c00f00
13000600
00000000
00000000
ENDCHAR
STARTCHAR 226c
ENCODING 8812
SWIDTH 1529 0
DWIDTH 26 0
BBX 26 27 0 -1
BITMAP
00000000
08100000
0e1c0000
0c180000
0c380000
18300600
187fff00
18666600
30c66600
39866600
7a066600
580c6600
980ce600
1818c600
1818c600
1831c600
18618600
18c38600
19030600
18060600
180c0e00
18180c00
18301c00
18c1f800
10007000
00000000
00000000
ENDCHAR
STARTCHAR 226d
ENCODING 8813
SWIDTH 1529 0
DWIDTH 26 0
BBX 26 27 0 -1
BITMAP
00000000
04001800
073ffc00
06003800
06006000
0c0cc000
0c030000
18018000
1801c000
1c008600
3c7fff00
2c018600
4c018600
0c018c00
0c018800
0c018000
0c018000
0c018000
0c018000
0c018000
0c018000
0c018000
0c018000
0c1f8000
08030000
00000000
00000000
ENDCHAR
STARTCHAR 226e
ENCODING 8814
SWIDTH 1529 0
DWIDTH 26 0
BBX 26 27 0 -1
BITMAP
00000000
04000000
07000000
06000600
0e7fff00
0c018000
0c018000
18018000
18018000
1c018000
3c018000
2c018000
4c018c00
0c3ffe00
0c018000
0c018000
0c018000
0c018000
0c018000
0c018000
0c018000
0c018000
0c018600
0cffff00
08000000
00000000
00000000
ENDCHAR
STARTCHAR 226f
ENCODING 8815
SWIDTH 1529 0
DWIDTH 26 0
BBX 26 27 0 -1
BITMAP
00000000
08000000
0e401800
0c7ffc00
1c600000
18600000
18600000
30600000
30601800
387ffc00
78681800
58681800
986c1800
18643000
18663000
18626000
18636000
1861c000
18c18000
18c1c000
18836000
19863000
190c1c00
19180f00
12600600
00000000
00000000
ENDCHAR
STARTCHAR 2270
ENCODING 8816
SWIDTH 1529 0
DWIDTH 26 0
BBX 26 27 0 -1
BITMAP
00000000
08100000
0e1c0000
0c180000
0c180000
18180600
19ffff00
18180000
30180000
38180000
78181800
581ffc00
98341800
18341800
18363000
18623000
18622000
18c36000
1881c000
1981c000
19036000
1a063800
180c1c00
18300f00
10c00600
00000000
00000000
ENDCHAR
STARTCHAR 2271
ENCODING 8817
SWIDTH 1529 0
DWIDTH 26 0
BBX 26 27 0 -1
BITMAP
00000000
08400000
0e700000
0c600c00
0cfffe00
18c00000
19800000
1a003000
307ff800
38000000
78000000
58003000
99fff800
18003000
18003000
18003000
18003000
18003200
18003200
18003200
18001a00
18001a00
18000e00
18000700
10000300
00000000
00000000
ENDCHAR
STARTCHAR 2272
ENCODING 8818
SWIDTH 1529 0
DWIDTH 26 0
BBX 26 27 0 -1
BITMAP
00000000
08100000
0e1c0000
0c180000
0c180000
18300600
183fff00
18600600
30600600
38c00600
79000600
5800c600
983fe600
18000600
18000600
18000600
18000600
18006600
187ff600
18000600
18000e00
18000c00
18001c00
1801f800
10003000
00000000
00000000
ENDCHAR
STARTCHAR 2273
ENCODING 8819
SWIDTH 1529 0
DWIDTH 26 0
BBX 26 27 0 -1
BITMAP
00000000
04040000
07070000
06060000
06063000
0c7ff800
0c063000
0c063000
180c3000
1c0c3200
3c183200
6c303300
8c423f00
0d839e00
0c030000
0c030000
0c030600
0dffff00
0c030000
0c030000
0c030000
0c030000
0c030000
0c030000
08020000
00000000
00000000
ENDCHAR
STARTCHAR 2274
ENCODING 8820
SWIDTH 1529 0
DWIDTH 26 0
BBX 26 27 0 -1
BITMAP
00000000
08106000
0e1ff000
0c186000
0c186000
18186000
18186000
18306000
30306000
38607e00
78c03f00
59000000
98003000
187ff800
18203000
18103000
18106000
18086000
180cc000
18078000
18070000
180d8000
1838f000
18e03f00
13000e00
00000000
00000000
ENDCHAR
STARTCHAR 2275
ENCODING 8821
SWIDTH 1529 0
DWIDTH 26 0
BBX 26 27 0 -1
BITMAP
00000000
001c0000
00180000
00340000
00630000
00c18000
0180c000
03006000
06003800
0c019f00
33ffc600
c0000000
00000000
00000c00
7ffffe00
00700000
00600000
00c08000
00c06000
01803000
03003000
0607f800
0ffc1800
07e01800
03000000
00000000
00000000
ENDCHAR
STARTCHAR 2276
ENCODING 8822
SWIDTH 1529 0
DWIDTH 26 0
BBX 26 27 0 -1
BITMAP
00000000
00100000
001c0000
00380000
00340000
00630000
00c18000
0180e000
03003800
0c001f00
30000600
c400c000
07ffe000
06000000
06000000
06000000
06018000
07ffc000
06000000
06000000
06000000
06003000
0ffff800
06000000
00000000
00000000
00000000
ENDCHAR
STARTCHAR 2277
ENCODING 8823
SWIDTH 1529 0
DWIDTH 26 0
BBX 26 27 0 -1
BITMAP
00000000
00100000
001c0000
00180000
00180000
00380000
00340000
00660000
00c30000
0181c000
03007000
0c003c00
30000f00
c2008600
0380e000
0300c000
0300c000
0700c000
0680e000
0cc1a000
0c619000
18731800
30260e00
600c0700
80300200
00000000
00000000
ENDCHAR
STARTCHAR 2278
ENCODING 8824
SWIDTH 1529 0
DWIDTH 26 0
BBX 26 27 0 -1
BITMAP
00000000
000c0000
02030000
03818000
0700c000
06006000
0c403000
18701c00
30e00f00
c0c20600
01818000
0300c000
02006000
041ff000
1ffe3000
0ec62000
00c60000
00c60000
01860000
01860200
03060200
06060300
0c07ff00
1803fe00
e0000000
00000000
00000000
ENDCHAR
STARTCHAR 2279
ENCODING 8825
SWIDTH 1529 0
DWIDTH 26 0
BBX 26 27 0 -1
BITMAP
00000000
00600000
00300000
00180000
003c0000
00360000
00630000
00c18000
0180c000
03007000
06003c00
0c001f00
38000600
cffff000
0c003000
0c003000
0c003000
0c003000
0ffff000
0c003000
0c003000
0c003000
0c003000
0ffff000
08002000
00000000
00000000
ENDCHAR
STARTCHAR 227a
ENCODING 8826
SWIDTH 1529 0
DWIDTH 26 0
BBX 26 27 0 -1
BITMAP
00000000
00001800
3ffffc00
00180000
00180000
00186000
1ffff000
00180000
00180000
00180000
00180600
ffffff00
00000000
001c0000
00060000
01030000
01c30000
01818000
03818000
0300c000
0600e000
0c007000
18003c00
60001f00
80000c00
00000000
00000000
ENDCHAR
STARTCHAR 227b
ENCODING 8827
SWIDTH 1529 0
DWIDTH 26 0
BBX 26 27 0 -1
BITMAP
00000000
00000600
ffffff00
00180000
00180000
08183000
0ffff800
0c183000
0c183000
0c183000
0c183400
7ffffe00
0c183000
0c183000
0c183000
0c183200
ffffff00
0c003000
0c003000
0c003000
0c003000
0c003000
0c003000
0c03f000
0800e000
00000000
00000000
ENDCHAR
STARTCHAR 227c
ENCODING 8828
SWIDTH 1529 0
DWIDTH 26 0
BBX 26 27 0 -1
BITMAP
00000000
00000c00
601ffe00
30183000
38183000
19183000
11183000
01183000
02303000
02303000
06303600
043fff00
0c00f000
0c01b000
1801b000
18033000
38033000
f0063000
700c3000
30183000
30303000
18603000
19803000
1807f000
0000e000
00000000
00000000
ENDCHAR
STARTCHAR 227d
ENCODING 8829
SWIDTH 1529 0
DWIDTH 26 0
BBX 26 27 0 -1
BITMAP
00000000
00020000
60038000
30030000
38030000
19031800
113ffc00
01031800
02031800
02031800
06031800
04031800
0c031a00
0cffff00
18030000
38070000
f0060000
700e6000
300c3800
301c1c00
30180e00
18300700
18600700
18c00300
03000000
00000000
00000000
ENDCHAR
STARTCHAR 227e
ENCODING 8830
SWIDTH 1529 0
DWIDTH 26 0
BBX 26 27 0 -1
BITMAP
00000000
00010000
6001c000
38018000
1c018000
0c018000
01418600
017fff00
02618600
02618600
06618600
04618600
0c618600
0c618600
18618600
387ffe00
f0618600
70418400
30018000
30018000
18018000
18018000
18018000
18018000
00010000
00000000
00000000
ENDCHAR
STARTCHAR 2321
ENCODING 8993
SWIDTH 1529 0
DWIDTH 26 0
BBX 26 27 0 -1
BITMAP
00000000
00000000
60003800
3803fc00
1c7f8000
09030000
01030000
01030000
02030000
02030000
06030600
04ffff00
0c030000
0c030000
18078000
38068000
f00cc000
700cc000
30186000
30186000
18303000
18603800
18c01c00
19800f00
06000600
00000000
00000000
ENDCHAR
STARTCHAR 2322
ENCODING 8994
SWIDTH 1529 0
DWIDTH 26 0
BBX 26 27 0 -1
BITMAP
00000000
20003000
3ffff800
30003000
30003000
30023000
33ff3000
30003000
30003000
30003000
30033000
37ffb000
30603000
30603000
30603000
30c41800
30c21800
31831900
61019900
621f9900
6ff0cd00
4700cd00
c4008700
80000700
80000300
00000000
00000000
ENDCHAR
STARTCHAR 2323
ENCODING 8995
SWIDTH 1529 0
DWIDTH 26 0
BBX 26 27 0 -1
BITMAP
00000000
00600000
00300000
00380000
00180400
00180e00
ffffff00
00000000
00010000
2001c800
3a018e00
31830c00
30c30c00
30360c00
301c0c00
300c0c00
301e0c00
30338c00
3061cc00
3180ec00
36004c00
30000c00
7ffffc00
20000800
00000000
00000000
00000000
ENDCHAR
STARTCHAR 2324
ENCODING 8996
SWIDTH 1529 0
DWIDTH 26 0
BBX 26 27 0 -1
BITMAP
00000000
04000400
07000700
06000600
06008600
0630e600
7ff8c600
0630c600
0630c600
0630c600
0630c600
0630c600
0634c600
fffec600
0600c600
0600c600
0d80c600
0cc0c600
0c60c600
18308600
18380600
30180600
20180600
40003e00
80000c00
00000000
00000000
ENDCHAR
STARTCHAR 2325
ENCODING 8997
SWIDTH 1529 0
DWIDTH 26 0
BBX 26 27 0 -1
BITMAP
00000000
10000400
1c000700
18000600
30188600
3ffce600
6000c600
4030c600
9ff8c600
0000c600
0030c600
3ff8c600
0030c600
0060c600
00c0c600
0180c600
0300c600
0600c600
0c00c600
18088600
30080600
600c0600
7ffc0600
3ff87e00
00001c00
00000000
00000000
ENDCHAR
STARTCHAR 2326
ENCODING 8998
SWIDTH 1529 0
DWIDTH 26 0
BBX 26 27 0 -1
BITMAP
00000000
00003000
1ffff800
00303000
00303000
00603000
00603000
00c03000
01807000
0703e000
1c00c000
00000000
00600600
7ff7ff00
0c60c600
0c60c600
0c60c600
0c60c600
0c60c600
0c60c600
18618600
18618600
30e30e00
67c67c00
81881800
00000000
00000000
ENDCHAR
STARTCHAR 2327
ENCODING 8999
SWIDTH 1529 0
DWIDTH 26 0
BBX 26 27 0 -1
BITMAP
00000000
08000800
04000e00
06010c00
0301cc00
02318c00
7ff98c00
00618c00
00618c00
00618c00
20618c00
10c18c00
08c18c00
0cc18c00
07818c00
03818c00
07818c00
06c18c00
0c618c00
0c610c00
18300c00
30300c00
60000c00
8000fc00
00001800
00000000
00000000
ENDCHAR
STARTCHAR 2328
ENCODING 9000
SWIDTH 1529 0
DWIDTH 26 0
BBX 26 27 0 -1
BITMAP
00000000
00008000
0000e000
0060c000
7ff0c000
0000c000
0000c600
000fff00
0000c600
0030c600
fff8c600
0c00c600
0c00c600
0c018600
18018600
18018600
30818600
20c30600
60630600
43f60600
fe360e00
602c0c00
00181c00
0030f800
00c03000
00000000
00000000
ENDCHAR
STARTCHAR 2329
ENCODING 9001
SWIDTH 1529 0
DWIDTH 26 0
BBX 26 27 0 -1
BITMAP
00000000
00100000
001c0000
00180000
00180c00
7ffffe00
00180000
00180000
02184000
03987000
03186000
03106000
03006000
03606600
fff7ff00
03006000
03006000
03006000
06006000
06006000
0c006000
0c006000
18006000
30006000
40004000
00000000
00000000
ENDCHAR
STARTCHAR 232a
ENCODING 9002
SWIDTH 1529 0
DWIDTH 26 0
BBX 26 27 0 -1
BITMAP
00000000
00100000
001c0000
00180000
00180000
00183000
1ffff800
00180000
00180000
04184000
07187000
06106000
06006000
06006600
ffffff00
06006000
06006000
06006000
06006000
06006000
06006000
06006000
07ffe000
06004000
04000000
00000000
00000000
ENDCHAR
STARTCHAR 232b
ENCODING 9003
SWIDTH 1529 0
DWIDTH 26 0
BBX 26 27 0 -1
BITMAP
00000000
10020000
1c038000
18030000
18030000
18030000
1b030000
ff831800
183ffc00
18031800
18031800
18271800
18661e00
18c61b00
19c61b00
198e1a00
180c1800
180c1800
18181800
18181800
18303800
18303000
18607000
18c3e000
1300c000
00000000
00000000
ENDCHAR
STARTCHAR 232c
ENCODING 9004
SWIDTH 1529 0
DWIDTH 26 0
BBX 26 27 0 -1
BITMAP
00000000
00000600
ffffff00
001c0000
00390000
007cc000
00d87000
03983800
06181c00
18180c00
60180000
00100000
00000000
00100000
001c0000
00180000
00180c00
7ffffe00
00180000
00180000
00180000
00180000
00180000
00180000
00100000
00000000
00000000
ENDCHAR
STARTCHAR 232d
ENCODING 9005
SWIDTH 1529 0
DWIDTH 26 0
BBX 26 27 0 -1
BITMAP
00000000
00000000
20001800
381ffc00
30180000
30180000
30180000
30180000
30180000
30180000
30180000
30180c00
7ffffe00
20180c00
00180c00
00180c00
00180c00
00180c00
00180c00
00180c00
00180c00
00180c00
3ff80c00
00000800
00000000
00000000
00000000
ENDCHAR
STARTCHAR 232e
ENCODING 9006
SWIDTH 1529 0
DWIDTH 26 0
BBX 26 27 0 -1
BITMAP
00000000
20000600
3fffff00
30000000
30000000
30001800
37fffc00
30100000
301c0000
30380000
30300000
30608000
30c0e000
3181c000
33818000
30e30000
30760000
302c0000
30182000
30303000
60601800
60c01800
4107fc00
87fc0c00
03800800
00000000
00000000
ENDCHAR
STARTCHAR 232f
ENCODING 9007
SWIDTH 1529 0
DWIDTH 26 0
BBX 26 27 0 -1
BITMAP
00000000
20000600
3fffff00
30000000
30080000
300e0000
300c0000
300c0000
300c0000
300c0000
300c0000
300c3000
33fff800
300c0000
300c0000
300c0000
300c8000
300c4000
600c6000
600c3000
400c3000
400c2000
800c0c00
8ffffe00
00000000
00000000
00000000
ENDCHAR
STARTCHAR 2330
ENCODING 9008
SWIDTH 1529 0
DWIDTH 26 0
BBX 26 27 0 -1
BITMAP
00000000
20000600
3fffff00
30040000
30070000
30060000
300d0000
30198000
3030c000
30607000
30c03c00
3180cf00
337fe600
34000000
30000000
30006000
31fff000
30006000
60006000
6000c000
4000c000
40008000
80018000
00010000
00020000
00000000
00000000
ENDCHAR
STARTCHAR 2331
ENCODING 9009
SWIDTH 1529 0
DWIDTH 26 0
BBX 26 27 0 -1
BITMAP
00000000
00003000
3ffff800
00003000
00203000
00383000
00303000
00301800
0030d800
3fffec00
00300600
00300300
00300100
00300000
00300c00
fffffe00
00600000
00e00000
00c10000
0180c000
03006000
06003000
0c3ff800
1ff01800
0f001800
00000000
00000000
ENDCHAR
STARTCHAR 2332
ENCODING 9010
SWIDTH 1529 0
DWIDTH 26 0
BBX 26 27 0 -1
BITMAP
00000000
00100000
001c0000
00180000
10181800
1ffffc00
18181800
18181800
18181800
18181800
1ffff800
10181000
00180000
00180000
00186000
0ffff000
02006000
0180c000
00c18000
00670000
003c0000
003f0000
01e3e000
0f00ff00
f0001e00
00000000
00000000
ENDCHAR
STARTCHAR 2333
ENCODING 9011
SWIDTH 1529 0
DWIDTH 26 0
BBX 26 27 0 -1
BITMAP
00000000
00006000
0ffff000
0000e000
0300c000
00c18000
00330000
001e0000
001f0000
0031c000
00c0e000
03007000
1c003000
00600c00
3ff7fe00
00600c00
10620c00
0cc11800
06c19800
0380f000
03c06000
06e0f000
0c619c00
18030f00
600c0600
00000000
00000000
ENDCHAR
STARTCHAR 2334
ENCODING 9012
SWIDTH 1529 0
DWIDTH 26 0
BBX 26 27 0 -1
BITMAP
00000000
00800400
00600700
00300e00
43181c00
7f8e3800
63077000
6303c000
63018000
63018000
63018000
63018000
63018000
63018000
63018000
63018000
63018000
7f018000
62018000
40018000
00018000
00018000
00018000
00018000
00010000
00000000
00000000
ENDCHAR
STARTCHAR 2335
ENCODING 9013
SWIDTH 1529 0
DWIDTH 26 0
BBX 26 27 0 -1
BITMAP
00000000
00000000
00000c00
837ffe00
ff818000
c3018000
c3018000
c3018000
c3018000
c3018000
c3018000
c3018000
c3018000
c3018000
c3018000
c3018000
c3018000
c3018000
ff018000
c2018000
80018600
01ffff00
00000000
00000000
00000000
00000000
00000000
ENDCHAR
STARTCHAR 2336
ENCODING 9014
SWIDTH 1529 0
DWIDTH 26 0
BBX 26 27 0 -1
BITMAP
00000000
00200600
003fff00
86300600
ff300600
c6300600
c6300600
c6300600
c6300600
c63ffe00
c6300400
c6300000
c6300000
c6300000
c6300000
c6300000
c6300000
fe300000
c4600000
80600000
00600000
00c00000
00800000
01000000
02000000
00000000
00000000
ENDCHAR
STARTCHAR 2337
ENCODING 9015
SWIDTH 1529 0
DWIDTH 26 0
BBX 26 27 0 -1
BITMAP
00000000
00001c00
0001fe00
003f8000
43018000
7f818000
63018000
63018000
63018000
63018000
63018600
637fff00
63018000
63018000
63018000
63018000
63018000
63018000
63018000
7f018000
62018000
40018000
00018000
00018000
00010000
00000000
00000000
ENDCHAR
STARTCHAR 2338
ENCODING 9016
SWIDTH 1529 0
DWIDTH 26 0
BBX 26 27 0 -1
BITMAP
00000000
08003000
0ffff800
0c003000
0c003000
0c003000
0c003000
0c003000
0ffff000
0c102000
081c0000
00180000
00180000
00180600
ffffff00
00340000
00720000
00630000
00c18000
0180c000
03006000
06003800
0c001f00
30000c00
c0000000
00000000
00000000
ENDCHAR
STARTCHAR 2339
ENCODING 9017
SWIDTH 1529 0
DWIDTH 26 0
BBX 26 27 0 -1
BITMAP
00000000
00000000
00000000
20c40c00
3fe7fe00
30c60c00
30c60c00
30c60c00
30c60c00
30c60c00
30c60c00
30c60c00
30c60c00
30c60c00
30c60c00
30c60c00
30c60c00
30c60c00
30c60c00
30c60c00
3fc7fc00
30860800
20040000
00000000
00000000
00000000
00000000
ENDCHAR
STARTCHAR 233a
ENCODING 9018
SWIDTH 1529 0
DWIDTH 26 0
BBX 26 27 0 -1
BITMAP
00000000
00000000
00000600
01ffff00
00030000
86030000
ff030000
c6030000
c6030000
c6038000
c6036000
c6033000
c6031800
c6031c00
c6030800
c6030000
c6030000
c6030000
c6030000
fe030000
c4030000
80030000
00030000
00030000
00020000
00000000
00000000
ENDCHAR
STARTCHAR 233b
ENCODING 9019
SWIDTH 1529 0
DWIDTH 26 0
BBX 26 27 0 -1
BITMAP
00000000
10003000
1ffff800
18003000
18003000
18003000
18003000
18003000
18003000
1ffff000
10002000
00000000
00000000
00000000
20001800
3ffffc00
30001800
30001800
30001800
30001800
30001800
30001800
3ffff800
30001000
20000000
00000000
00000000
ENDCHAR
STARTCHAR 233c
ENCODING 9020
SWIDTH 1529 0
DWIDTH 26 0
BBX 26 27 0 -1
BITMAP
00000000
00020000
00038000
86070000
ff060000
c60e0000
c60c0000
c6180000
c6188000
c630e000
c661c000
c6818000
c6038000
c6030000
c6062000
c6061800
c60c0c00
fe180600
c4300600
80607f00
00ffe300
00fe0300
00600000
00000000
00000000
00000000
00000000
ENDCHAR
STARTCHAR 233d
ENCODING 9021
SWIDTH 1529 0
DWIDTH 26 0
BBX 26 27 0 -1
BITMAP
00000000
40000600
7fffff00
60000600
60000600
60820600
60e38600
60c30600
60c30600
60c30600
60c36600
6ffff600
60c30600
60c30600
60c30600
61830600
61830600
63030600
62030600
64030600
68020600
60000600
7ffffe00
60000400
40000000
00000000
00000000
ENDCHAR
STARTCHAR 233e
ENCODING 9022
SWIDTH 1529 0
DWIDTH 26 0
BBX 26 27 0 -1
BITMAP
00000000
40000600
7fffff00
60000600
60020600
60038600
60030600
60030600
60032600
6ffff600
60030600
60030600
61030600
60c30600
60630600
60630600
60030600
60030600
60030600
603f0600
60060600
60000600
7ffffe00
40000400
00000000
00000000
00000000
ENDCHAR
STARTCHAR 233f
ENCODING 9023
SWIDTH 1529 0
DWIDTH 26 0
BBX 26 27 0 -1
BITMAP
00000000
00020000
00038000
08030000
0e030000
0c030000
0c030000
0c030000
0c030000
0cc30000
ffe30c00
0c03fe00
0c030000
0c030000
0c030000
0c030000
0c030000
0ce30000
0f830000
fc030000
f0030000
60030000
00030600
01ffff00
00000000
00000000
00000000
ENDCHAR
STARTCHAR 2340
ENCODING 9024
SWIDTH 1529 0
DWIDTH 26 0
BBX 26 27 0 -1
BITMAP
00000000
00100000
001c0000
00180000
00180c00
7ffffe00
00340000
00720000
00630000
00c18000
0180c000
03107000
061c3c00
0c181f00
30180c00
c0180000
00183000
1ffff800
00180000
00180000
00180000
00180000
00180600
ffffff00
00000000
00000000
00000000
ENDCHAR
STARTCHAR 2341
ENCODING 9025
SWIDTH 1529 0
DWIDTH 26 0
BBX 26 27 0 -1
BITMAP
00000000
03810000
07c1c000
1e018000
76018000
06018000
06018000
06018000
06018000
06418000
ffe19800
061ffc00
06018000
06018000
06018000
06018000
06018000
06018000
0c018000
0c018000
0c018000
18018000
18018600
107fff00
20000000
00000000
00000000
ENDCHAR
STARTCHAR 2342
ENCODING 9026
SWIDTH 1529 0
DWIDTH 26 0
BBX 26 27 0 -1
BITMAP
00000000
08001800
0e007c00
0c03e000
0c1f8000
0c018000
0c018000
0c818000
ffc18000
0c018000
0c018600
0c7fff00
0c018000
0c018000
0c018000
0c018000
0c018000
0c018000
0ce18000
0f818000
fe018000
f0018000
40018000
00018000
00010000
00000000
00000000
ENDCHAR
STARTCHAR 2343
ENCODING 9027
SWIDTH 1529 0
DWIDTH 26 0
BBX 26 27 0 -1
BITMAP
00000000
02010000
0381c000
03018000
03018000
83018000
63018000
33018000
1b018000
1f018600
0b7fff00
03018000
03018000
03018000
03018000
07018000
0b018000
1b018000
33018000
73018000
e3018000
63018000
03018c00
033ffe00
02000000
00000000
00000000
ENDCHAR
STARTCHAR 2344
ENCODING 9028
SWIDTH 1529 0
DWIDTH 26 0
BBX 26 27 0 -1
BITMAP
00000000
02000000
03800000
0300c000
07ffe000
0600c000
0d818000
10e70000
203c0000
007e0000
01e3c000
0390f800
0e1c3f00
38180e00
c0183000
0ffff800
0c180000
0c180000
0c180000
0c181800
1ffffc00
08180000
00180000
00180000
00100000
00000000
00000000
ENDCHAR
STARTCHAR 2345
ENCODING 9029
SWIDTH 1529 0
DWIDTH 26 0
BBX 26 27 0 -1
BITMAP
00000000
0001e000
003ff000
1ff00000
00300000
00300000
00300600
ffffff00
00660000
00c30000
01818000
0300c000
06007000
0e023c00
33839f00
c3030600
03030000
03030000
03030000
03030000
06030000
06030000
0c030000
18030000
20020000
00000000
00000000
ENDCHAR
STARTCHAR 2346
ENCODING 9030
SWIDTH 1529 0
DWIDTH 26 0
BBX 26 27 0 -1
BITMAP
00000000
00200000
00380000
00300c00
7ffffe00
00640000
00c30000
01818000
0300e000
06003800
18001f00
e1008600
01c0e000
0180c000
0180c000
0180c600
ffffff00
0180c000
0300c000
0300c000
0300c000
0600c000
0600c000
0c00c000
30008000
00000000
00000000
ENDCHAR
STARTCHAR 2347
ENCODING 9031
SWIDTH 1529 0
DWIDTH 26 0
BBX 26 27 0 -1
BITMAP
00000000
08010000
0e01c000
0c018000
0c018000
0c018000
0cc18c00
ffeffe00
0c018000
0c018000
0c01c000
0c014000
0e034000
0e036000
19036000
19822000
19863000
18c63000
30c61000
30e41800
306c0c00
20480c00
60180e00
40300700
80c00200
00000000
00000000
ENDCHAR
STARTCHAR 2348
ENCODING 9032
SWIDTH 1529 0
DWIDTH 26 0
BBX 26 27 0 -1
BITMAP
00000000
00100000
001c0000
00180000
00300c00
7ffffe00
00630000
00c18000
0180e000
07007800
0c003e00
30200c00
c0380000
00300000
00300600
ffffff00
00680000
00640000
00c60000
01830000
03018000
0600e000
0c007800
30001f00
c0000600
00000000
00000000
ENDCHAR
STARTCHAR 2349
ENCODING 9033
SWIDTH 1529 0
DWIDTH 26 0
BBX 26 27 0 -1
BITMAP
00000000
20003000
387ff800
300c3000
300c3000
320c3000
330c3000
ffcc3000
f30c3000
330c3000
330d3000
333fb000
330c3000
330c3000
630c3000
660c3000
f60c3000
5e0c3200
0f0c3200
0d8c3200
198c3200
198c3300
300c3f00
200c1e00
40080000
00000000
00000000
ENDCHAR
STARTCHAR 234a
ENCODING 9034
SWIDTH 1529 0
DWIDTH 26 0
BBX 26 27 0 -1
BITMAP
00000000
20040000
38073000
30060c00
30060600
32060600
33060000
ffc60c00
f33ffe00
33060000
33060000
33060000
33060000
33030000
63030000
66030000
f6018000
5e018000
0f00c200
1b80c200
19806200
31807200
60003b00
40001f00
80000600
00000000
00000000
ENDCHAR
STARTCHAR 234b
ENCODING 9035
SWIDTH 1529 0
DWIDTH 26 0
BBX 26 27 0 -1
BITMAP
00000000
20040000
38070000
30060000
30060000
32063000
330ff800
ffcc3000
f30c3000
33183000
33187000
33106000
63206000
6340e000
6300e000
6601b000
f6019000
5c031000
0e031800
1b061800
19840c00
31880c00
20100600
40200700
80400200
00000000
00000000
ENDCHAR
STARTCHAR 234c
ENCODING 9036
SWIDTH 1529 0
DWIDTH 26 0
BBX 26 27 0 -1
BITMAP
00000000
00700000
0060cc00
7ffffe00
00c0c000
01818000
03030000
07fe0000
001f8000
0071e000
03c07000
1e203000
00380000
00300000
00606600
ffffff00
00c0c000
0180c000
03018000
07e30000
003e0000
000f8000
0038f000
01e03c00
7e000c00
00000000
00000000
ENDCHAR
STARTCHAR 234d
ENCODING 9037
SWIDTH 1529 0
DWIDTH 26 0
BBX 26 27 0 -1
BITMAP
00000000
02040000
03870000
03060000
83061000
63061800
33061a00
3b7fff00
1b061800
13061800
03061800
030c1800
030c1800
030c1800
07083000
0b1c3000
1b3f3000
3311e000
e300f000
63019c00
43030e00
03060700
030c0300
03300000
02400000
00000000
00000000
ENDCHAR
STARTCHAR 234e
ENCODING 9038
SWIDTH 1529 0
DWIDTH 26 0
BBX 26 27 0 -1
BITMAP
00000000
08102000
0e1c3800
18306000
3060c000
60c18000
3060c000
18307000
1c383800
08101000
00000000
0000c000
0fffe000
0001c000
00038000
00060000
00180000
00180600
ffffff00
00180000
00180000
00180000
00180000
01f80000
00300000
00000000
00000000
ENDCHAR
STARTCHAR 234f
ENCODING 9039
SWIDTH 1529 0
DWIDTH 26 0
BBX 26 27 0 -1
BITMAP
00000000
00600000
20380000
20180600
7fffff00
60000600
c0800c00
c0e00800
00c00000
01830000
01ff8000
03030000
03030000
06060000
0c060000
180e0000
201b0000
00310000
00618000
00c0c000
01806000
03007000
06003c00
18001f00
60000e00
00000000
00000000
ENDCHAR
STARTCHAR 2350
ENCODING 9040
SWIDTH 1529 0
DWIDTH 26 0
BBX 26 27 0 -1
BITMAP
00000000
00600000
20380000
20180600
7fffff00
60000600
c0000400
c0003000
1ffff800
00003000
00003000
10003000
1ffff000
18000000
30000000
30001800
7ffffc00
20001800
00001800
00001800
00003800
00003000
00007000
001fe000
0003c000
00000000
00000000
ENDCHAR
STARTCHAR 2351
ENCODING 9041
SWIDTH 1529 0
DWIDTH 26 0
BBX 26 27 0 -1
BITMAP
00000000
00100000
001c2000
10183800
0c187000
06186000
0318c000
03998000
011a0000
00181800
1ffffc00
00001800
00001800
00001800
00001800
00001800
0ffff800
00001800
00001800
00001800
00001800
00001800
00001800
1ffff800
00001000
00000000
00000000
ENDCHAR
STARTCHAR 2352
ENCODING 9042
SWIDTH 1529 0
DWIDTH 26 0
BBX 26 27 0 -1
BITMAP
00000000
00100000
001c0000
02180000
03988000
07186000
06183800
0c181c00
18180e00
30180600
c0180000
00100000
00000000
00100000
001c0000
00180000
00183000
1ffff800
00180000
00180000
00180000
00180000
00180600
ffffff00
00000000
00000000
00000000
ENDCHAR
STARTCHAR 2353
ENCODING 9043
SWIDTH 1529 0
DWIDTH 26 0
BBX 26 27 0 -1
BITMAP
00000000
20001800
3ffffc00
30001800
30001800
30001800
3ffff800
30000000
30006000
31fff000
30006000
3000c000
30018000
30030000
30040000
30060600
37ffff00
30060000
30060000
60060000
60060000
40060000
40060000
807e0000
000c0000
00000000
00000000
ENDCHAR
STARTCHAR 2354
ENCODING 9044
SWIDTH 1529 0
DWIDTH 26 0
BBX 26 27 0 -1
BITMAP
00000000
08003000
0ffff800
0c003000
0c003000
0c003000
0c003000
0c003000
0ffff000
0c102000
0c0c0000
0c060000
0c030000
0c018000
0c40c000
0c306000
181c3000
180e1c00
18060f00
30800600
30600000
60380000
401c0000
800e0000
00060000
00000000
00000000
ENDCHAR
STARTCHAR 2355
ENCODING 9045
SWIDTH 1529 0
DWIDTH 26 0
BBX 26 27 0 -1
BITMAP
00000000
08000000
0e000000
0c000c00
0c1ffe00
0c00c000
8c80c000
ece0c000
ccc0c000
ccc0c000
ccc0c000
ccc0c000
ccc0c000
ccc0c000
ccc0c000
ccc0c000
ccc0c000
ccc0c000
ccc0c000
ffc0c000
8080c000
0000c000
0000c600
007fff00
00000000
00000000
00000000
ENDCHAR
STARTCHAR 2356
ENCODING 9046
SWIDTH 1529 0
DWIDTH 26 0
BBX 26 27 0 -1
BITMAP
00000000
08000c00
0e0ffe00
0c000c00
0c001800
0c001000
8c802000
ece04000
ccc0c000
ccc0c000
ccc0c000
ccc0c600
ccdfff00
ccc0c000
ccc0c000
ccc0c000
ccc0c000
ccc0c000
ccc0c000
ffc0c000
8080c000
0000c000
0000c000
0007c000
00018000
00000000
00000000
ENDCHAR
STARTCHAR 2357
ENCODING 9047
SWIDTH 1529 0
DWIDTH 26 0
BBX 26 27 0 -1
BITMAP
00000000
00100000
001c0000
00180000
00180600
ffffff00
00340000
00620000
00c30000
01818000
0300c000
06006000
0c103000
301c1c00
c0180f00
00180600
08182000
0e183800
0c183000
0c183000
0c183000
0c183000
0c183000
1ffff000
08002000
00000000
00000000
ENDCHAR
STARTCHAR 2358
ENCODING 9048
SWIDTH 1529 0
DWIDTH 26 0
BBX 26 27 0 -1
BITMAP
00000000
00003000
1ffff800
00003000
00003000
00003000
10003000
1ffff000
18002000
18000400
18000400
18000600
1ffffe00
0ffffc00
00100000
001c0000
20180800
38180e00
30180c00
30180c00
30180c00
30180c00
30180c00
7ffffc00
20000800
00000000
00000000
ENDCHAR
STARTCHAR 2359
ENCODING 9049
SWIDTH 1529 0
DWIDTH 26 0
BBX 26 27 0 -1
BITMAP
00000000
08000000
0e080c00
0c0ffe00
0c0c0c00
0c0c0c00
8c8c0c00
ecec0c00
cccc0c00
cccc0c00
cccc0c00
cccffc00
cccc0800
cccc0000
cccc0000
cccc0000
cccc0000
cccc0000
cccc0200
cccc0200
ffcc0200
808c0300
000fff00
0007fe00
00000000
00000000
00000000
ENDCHAR
STARTCHAR 235a
ENCODING 9050
SWIDTH 1529 0
DWIDTH 26 0
BBX 26 27 0 -1
BITMAP
00000000
00100000
001c0000
00180000
10181000
1c181c00
18181800
18181800
18181800
18181800
18181800
3ffff800
10001000
00100000
001c0000
20180800
38180e00
30180c00
30180c00
30180c00
30180c00
30180c00
7ffffc00
20000800
00000000
00000000
00000000
ENDCHAR
STARTCHAR 235b
ENCODING 9051
SWIDTH 1529 0
DWIDTH 26 0
BBX 26 27 0 -1
BITMAP
00000000
10080000
1c0e0000
180c0000
180c0000
181c0000
181b0000
18318000
1860c000
18c06000
1b006000
18000c00
3ffffe00
10000000
04104000
071c7000
06186000
06186000
06186000
06186000
0c186000
0c186000
18187e00
30183f00
c0100000
00000000
00000000
ENDCHAR
STARTCHAR 235c
ENCODING 9052
SWIDTH 1529 0
DWIDTH 26 0
BBX 26 27 0 -1
BITMAP
00000000
02000c00
03bffe00
03018000
03018000
03018000
c3218c00
633ffe00
33318c00
3b318c00
1b318c00
13318c00
03318c00
03318c00
03318c00
03318c00
06318c00
06318c00
06318c00
0c31bc00
0c219800
18018000
10018000
20018000
40010000
00000000
00000000
ENDCHAR
STARTCHAR 235d
ENCODING 9053
SWIDTH 1529 0
DWIDTH 26 0
BBX 26 27 0 -1
BITMAP
00000000
08020000
0e038000
0c070000
8c060000
ffcc3000
cccff800
cccc3000
cccc3000
cccc3000
cccc3000
cccc3000
cccc3000
cccc3000
cccc3000
cccc3000
cccc3000
cfd83000
8d983200
0c183200
0c303200
0c303300
0c603f00
0cc01e00
09000000
00000000
00000000
ENDCHAR
STARTCHAR 235e
ENCODING 9054
SWIDTH 1529 0
DWIDTH 26 0
BBX 26 27 0 -1
BITMAP
00000000
00300000
001c0000
100c0600
1fffff00
18000000
18200000
18380000
18300000
18618000
187fc000
18c18000
18c18000
19818000
1b030000
1c038000
18068000
1806c000
180c6000
30186000
30303000
20603800
60c01c00
43000f00
8c000600
00000000
00000000
ENDCHAR
STARTCHAR 235f
ENCODING 9055
SWIDTH 1529 0
DWIDTH 26 0
BBX 26 27 0 -1
BITMAP
00000000
00300000
001c0000
200c0600
3fffff00
30000000
30000000
30003000
31fff800
30060000
30060000
30060000
30060000
30060c00
37fffe00
30060000
30060000
30060000
30060000
30060000
20060000
60060000
40060000
80fe0000
001c0000
00000000
00000000
ENDCHAR
STARTCHAR 2360
ENCODING 9056
SWIDTH 1529 0
DWIDTH 26 0
BBX 26 27 0 -1
BITMAP
00000000
00300000
001c0000
200c0600
3fffff00
30000000
30000000
3003e000
303ff000
33f80000
30180000
30180000
30180000
30181800
37fffc00
30180000
30180000
30180400
20180400
60180400
60180400
40180600
801ffe00
000ffc00
00000000
00000000
00000000
ENDCHAR
STARTCHAR 2361
ENCODING 9057
SWIDTH 1529 0
DWIDTH 26 0
BBX 26 27 0 -1
BITMAP
00000000
00000000
00108400
061ce700
ff18c600
06318c00
06318c00
0c211800
0c631000
08423000
10c42000
3e8c6000
06c63000
06431000
06611800
06318c00
c6318c00
6c18c600
2c18c600
38000000
1e000000
37800000
61ffff00
407ffc00
80000000
00000000
00000000
ENDCHAR
STARTCHAR 2362
ENCODING 9058
SWIDTH 1529 0
DWIDTH 26 0
BBX 26 27 0 -1
BITMAP
00000000
00070000
00064000
00062000
00063000
00063000
00060600
ffffff00
00060000
00060000
00660000
3ff60000
00060000
00030000
00030000
00c30000
1fe18000
00018000
0000c200
0000c200
00306200
7ff83200
00001e00
00000f00
00000300
00000000
00000000
ENDCHAR
STARTCHAR 2363
ENCODING 9059
SWIDTH 1529 0
DWIDTH 26 0
BBX 26 27 0 -1
BITMAP
00000000
03080000
ff8e0000
030c0000
030c0000
03180600
031fff00
03100600
7f300600
62200600
60400600
c0080600
c0060600
c3030600
ff838600
83018600
03010600
03000600
03000600
03000600
03000e00
06000c00
0e001c00
fc03f800
38007000
00000000
00000000
ENDCHAR
STARTCHAR 2364
ENCODING 9060
SWIDTH 1529 0
DWIDTH 26 0
BBX 26 27 0 -1
BITMAP
00000000
03001800
ff8ffc00
03000000
03000000
03000000
03000000
03000600
7f3fff00
62030000
60030000
c0030000
c0060000
c3060c00
ff8ffe00
03040c00
03000c00
03000c00
03000c00
03000c00
07000c00
06000c00
0e001c00
fc03f800
38007000
00000000
00000000
ENDCHAR
STARTCHAR 2365
ENCODING 9061
SWIDTH 1529 0
DWIDTH 26 0
BBX 26 27 0 -1
BITMAP
00000000
00004000
03007000
00c0e000
0071c000
001b8000
000e0000
001f0000
00398000
0070e000
01c07000
07003800
18001800
00200000
02180000
038c1000
13060800
13060c00
33004600
33004600
73004300
63006300
63ffe300
01ffc000
00000000
00000000
00000000
ENDCHAR
STARTCHAR 2366
ENCODING 9062
SWIDTH 1529 0
DWIDTH 26 0
BBX 26 27 0 -1
BITMAP
00000000
08000800
0e3ffc00
0c018000
0c018000
0c018000
0e018000
4d018000
4d818000
cd818600
cc7fff00
cc018000
cc018000
0c018000
0c018000
0c018000
0c018000
0c018000
0c018000
0c018000
0c018000
0c018000
0c018000
0c018000
08010000
00000000
00000000
ENDCHAR
STARTCHAR 2367
ENCODING 9063
SWIDTH 1529 0
DWIDTH 26 0
BBX 26 27 0 -1
BITMAP
00000000
10000000
1c010000
1801c000
18018000
18218000
1c398000
5a318000
5b318c00
db31be00
d837cc00
d8798c00
19b19800
18319800
18319000
18318000
18318000
18318000
18310200
18300200
18300200
18300300
183fff00
181ffe00
10000000
00000000
00000000
ENDCHAR
STARTCHAR 2368
ENCODING 9064
SWIDTH 1529 0
DWIDTH 26 0
BBX 26 27 0 -1
BITMAP
00000000
10000000
1c000c00
187ffe00
18060c00
18060c00
5c060c00
5a660c00
5b1e0c00
d98e0c00
d9870c00
d8078c00
9806cc00
18066c00
18066c00
180c0c00
180c0c00
180c0c00
18180c00
18180c00
18301c00
18301800
18603800
18c3f000
13006000
00000000
00000000
ENDCHAR
STARTCHAR 2369
ENCODING 9065
SWIDTH 1529 0
DWIDTH 26 0
BBX 26 27 0 -1
BITMAP
00000000
10000000
1c203000
183ff800
18303000
18303000
1c303000
5a303000
5b303000
db303000
d9303000
d8303000
d837b000
58303000
18303000
18303000
18603000
18603200
18603200
18c03200
18c03200
19803300
19003f00
1a001e00
14000000
00000000
00000000
ENDCHAR
STARTCHAR 236a
ENCODING 9066
SWIDTH 1529 0
DWIDTH 26 0
BBX 26 27 0 -1
BITMAP
00000000
00218000
0038c000
00304000
00301800
3ffffc00
00300000
00300000
00303000
1ffff800
00300000
00300000
00300600
ffffff00
00304000
00307000
0018e000
0019c000
000f0000
001e0200
003b0200
00e1c200
03807300
1e003f00
f0000e00
00000000
00000000
ENDCHAR
STARTCHAR 236b
ENCODING 9067
SWIDTH 1529 0
DWIDTH 26 0
BBX 26 27 0 -1
BITMAP
00000000
00020000
00039000
00030c00
00c30600
ffe30600
00c30000
00c30600
80dfff00
61830000
31830000
19830800
1b030e00
0f030c00
06019800
07019800
0781b000
0d81e000
0cc0c200
18e1c200
18636200
30463200
600c1b00
40300f00
80c00600
00000000
00000000
ENDCHAR
STARTCHAR 236c
ENCODING 9068
SWIDTH 1529 0
DWIDTH 26 0
BBX 26 27 0 -1
BITMAP
00000000
08000000
0e001800
0c1ffc00
0c000000
0c800000
ffc00000
0c000600
0c7fff00
0c060000
0c060000
0c060000
0c0c0000
0f8c0c00
fc1ffe00
6c080c00
0c000c00
0c000c00
0c000c00
0c000c00
0c001800
0c001800
0c003000
7c07e000
1801c000
00000000
00000000
ENDCHAR
STARTCHAR 236d
ENCODING 9069
SWIDTH 1529 0
DWIDTH 26 0
BBX 26 27 0 -1
BITMAP
00000000
08003000
0e3ff800
0c0c3000
0c0c3000
0c8c3000
ffcc3000
0c0c3000
0c0c3000
0c0c3000
0c0cb000
0c3ff000
0c0c3000
0f8c3000
fc0c3000
6c0c3000
0c0c3000
0c0c3000
0c0c3000
0c0c3100
0c0c1900
0c0c1900
0c0c0d00
7c0c0700
18080300
00000000
00000000
ENDCHAR
STARTCHAR 236e
ENCODING 9070
SWIDTH 1529 0
DWIDTH 26 0
BBX 26 27 0 -1
BITMAP
00000000
10080000
1c0e0000
180c0000
180c0000
190c0000
ff8c3000
183ff800
180c3000
180c3000
180c3000
180c3000
186c3000
1f1c3000
f80e3000
d80f3000
180db000
180db200
18183200
18183200
18303200
18303300
18603f00
f8c01e00
33000000
00000000
00000000
ENDCHAR
STARTCHAR 236f
ENCODING 9071
SWIDTH 1529 0
DWIDTH 26 0
BBX 26 27 0 -1
BITMAP
00000000
08010000
0e01c000
0c018000
0c018000
0c818000
ffc18000
0c018000
0c018c00
0c3ffe00
0c018000
0c018000
0c018000
0fc18000
fc018000
6c018000
0c018000
0c018000
0c018000
0c018000
0c018000
0c018000
0c018600
7cffff00
18000000
00000000
00000000
ENDCHAR
STARTCHAR 2370
ENCODING 9072
SWIDTH 1529 0
DWIDTH 26 0
BBX 26 27 0 -1
BITMAP
00000000
00600000
00380000
00180c00
7ffffe00
0100c000
00c18000
00630000
00360000
001c0000
00360000
00c38000
0300f000
1c003f00
e1010c00
01c1c000
01818000
01818000
01818000
01818000
03018000
03018000
06018000
04018000
08010000
00000000
00000000
ENDCHAR
STARTCHAR 2371
ENCODING 9073
SWIDTH 1529 0
DWIDTH 26 0
BBX 26 27 0 -1
BITMAP
00000000
20010000
1801c000
0c018000
0e018000
04c18000
ffe18000
18018000
18018000
18018000
1981c000
1fc34000
19834000
19834000
19836000
19862000
31863000
31863000
318c1000
318c1800
21981800
61980c00
63b00e00
4f200700
86400200
00000000
00000000
ENDCHAR
STARTCHAR 2372
ENCODING 9074
SWIDTH 1529 0
DWIDTH 26 0
BBX 26 27 0 -1
BITMAP
00000000
00000000
43000600
7fbfff00
63030600
63030600
63030600
63030600
63030600
63030600
63030600
7f030600
63030600
63030600
63060600
63060600
63060600
630c0600
630c0600
7f180600
62180e00
40300c00
00601c00
00c3f800
03007000
00000000
00000000
ENDCHAR
STARTCHAR 2373
ENCODING 9075
SWIDTH 1529 0
DWIDTH 26 0
BBX 26 27 0 -1
BITMAP
00000000
00010000
4301c000
7f818000
63018000
63018000
63018000
63018000
63018600
637fff00
63018000
7f018000
63018000
63018000
63018000
63018000
63018000
63018000
63018000
63018000
7f018000
62018000
40018000
00018000
00010000
00000000
00000000
ENDCHAR
STARTCHAR 2374
ENCODING 9076
SWIDTH 1529 0
DWIDTH 26 0
BBX 26 27 0 -1
BITMAP
00000000
00100000
001c0000
00180000
10181800
1ffffc00
18181800
18181800
18181800
18181800
1ffff800
18181800
18181800
18181800
18181800
1ffff800
10341000
00620000
00630000
00c18000
0180c000
03007000
06003c00
18001f00
e0000600
00000000
00000000
ENDCHAR
STARTCHAR 2375
ENCODING 9077
SWIDTH 1529 0
DWIDTH 26 0
BBX 26 27 0 -1
BITMAP
00000000
08000000
0e000600
0c3fff00
0c030600
0c830600
ffc30600
0c030600
0c030600
1e030600
1d030600
3d830600
2cc30600
6cc30600
4c030600
8c030600
0c060600
0c060600
0c060600
0c0c0600
0c0c0600
0c180600
0c300e00
0c60fc00
08801800
00000000
00000000
ENDCHAR
STARTCHAR 2376
ENCODING 9078
SWIDTH 1529 0
DWIDTH 26 0
BBX 26 27 0 -1
BITMAP
00000000
08001800
0e7ffc00
0c0c1800
0c0c1800
0c8c1800
ffcc3000
0c0c3000
0c0c6000
1c0c6600
1e0cff00
1d0c4600
3d8c0600
2ccc0600
4ccc0600
8c0c0600
0c0c0600
0c180600
0c180600
0c180600
0c300e00
0c300c00
0c601c00
0c41f800
08807000
00000000
00000000
ENDCHAR
STARTCHAR 2377
ENCODING 9079
SWIDTH 1529 0
DWIDTH 26 0
BBX 26 27 0 -1
BITMAP
00000000
08020000
0e038000
0c030000
0c030000
0c030000
0c830000
ffc30000
0c030000
1c030000
1c030000
3e030000
3d878000
2cc68000
6cc6c000
4c064000
8c0c6000
0c0c6000
0c0c3000
0c183000
0c181800
0c301c00
0c600e00
0cc00f00
09000400
00000000
00000000
ENDCHAR
STARTCHAR 2378
ENCODING 9080
SWIDTH 1529 0
DWIDTH 26 0
BBX 26 27 0 -1
BITMAP
00000000
0000c000
0fffe000
00c0c000
00c18000
00c31800
0187fc00
01821800
03001800
03001800
06001800
0c001800
1807f000
3000e000
c0100000
001c0000
00180600
ffffff00
00180000
02188000
03986000
07183800
0c181c00
30180c00
40100000
00000000
00000000
ENDCHAR
STARTCHAR 2379
ENCODING 9081
SWIDTH 1529 0
DWIDTH 26 0
BBX 26 27 0 -1
BITMAP
00000000
00040000
00070000
00060000
00c60000
ffe60000
00cc0c00
00cffe00
00cd8c00
c1d98c00
61918800
31a19000
1b018000
0b018000
0e03c000
06034000
0f036000
0d862000
19863000
18cc1000
30cc1800
30180c00
60300e00
40600700
81800200
00000000
00000000
ENDCHAR
STARTCHAR 237a
ENCODING 9082
SWIDTH 1529 0
DWIDTH 26 0
BBX 26 27 0 -1
BITMAP
00000000
04000000
07000000
06000c00
0ffffe00
0c000000
18000000
34003000
67fff800
860c3000
060e3000
060c3000
060c3000
060c3600
ffffff00
06183000
06183000
0c183000
0c183000
0c183000
1ffffc00
08006000
0000e000
000fc000
00038000
00000000
00000000
ENDCHAR
STARTCHAR 237b
ENCODING 9083
SWIDTH 1529 0
DWIDTH 26 0
BBX 26 27 0 -1
BITMAP
00000000
01800000
0fc03000
7c3ff800
0c063000
0c063000
0c066000
0c066000
0c864c00
ffc6fe00
0c064c00
0c060c00
0c0c0c00
0c0c0c00
0c8c0c00
ffd80c00
0c180c00
0c301c00
0c61f800
0c407200
0c800200
0c000300
0fffff00
07fffe00
00000000
00000000
00000000
ENDCHAR
STARTCHAR 237c
ENCODING 9084
SWIDTH 1529 0
DWIDTH 26 0
BBX 26 27 0 -1
BITMAP
00000000
30001c00
1801fe00
0c3f8000
08018000
00018000
01018000
c1018000
62018000
62018000
06018600
04ffff00
0c018000
0c018000
18018000
18018000
38018000
f0018000
70018000
30018000
30018000
18018000
18018000
18018000
18010000
00000000
00000000
ENDCHAR
STARTCHAR 237d
ENCODING 9085
SWIDTH 1529 0
DWIDTH 26 0
BBX 26 27 0 -1
BITMAP
00000000
30001800
1c003c00
0e01f000
041f8000
00818000
00818000
c0818000
71018000
31018000
23018600
027fff00
06018000
06018000
0c018000
0c018000
1c018000
78018000
38018200
18018200
18018200
0c018300
0c01ff00
0c00fe00
0c000000
00000000
00000000
ENDCHAR
STARTCHAR 237e
ENCODING 9086
SWIDTH 1529 0
DWIDTH 26 0
BBX 26 27 0 -1
BITMAP
00000000
00100000
301c0000
1c180000
0c180000
00301800
003ffc00
c2301800
62601800
32701800
36d03000
04983000
0d083000
0c0c6000
08046000
1806c000
18038000
f8038000
30038000
3006c000
300c6000
18183000
18301c00
18e00f00
03000600
00000000
00000000
ENDCHAR
STARTCHAR 2421
ENCODING 9249
SWIDTH 1529 0
DWIDTH 26 0
BBX 26 27 0 -1
BITMAP
00000000
00100000
001c0800
01981c00
7fdc3800
019b6000
01998000
0318c000
06186000
0c183800
18181f00
30f80600
c0300000
00000000
00200000
00380000
00300000
00700000
00680000
00c60000
01830000
0301c000
06007800
18003f00
e0000c00
00000000
00000000
ENDCHAR
STARTCHAR 2422
ENCODING 9250
SWIDTH 1529 0
DWIDTH 26 0
BBX 26 27 0 -1
BITMAP
00000000
08020000
0e038000
0c030000
0c030000
18030000
18030000
18030200
30330700
3bfb8c00
38339800
58336000
98334000
18636000
18632000
18633000
18c33000
18c31800
18830c00
19830e00
19030700
1a030200
18030000
183f0000
10060000
00000000
00000000
ENDCHAR
STARTCHAR 2423
ENCODING 9251
SWIDTH 1529 0
DWIDTH 26 0
BBX 26 27 0 -1
BITMAP
00000000
40000000
30001800
187ffc00
180c0000
000c0000
020c0000
820c0000
440c0600
65ffff00
6c180000
08180000
08300000
18300c00
187ffe00
30200c00
30000c00
f0000c00
60000c00
30000c00
30001c00
30001800
30003800
3007f000
0000e000
00000000
00000000
ENDCHAR
STARTCHAR 2424
ENCODING 9252
SWIDTH 1529 0
DWIDTH 26 0
BBX 26 27 0 -1
BITMAP
00000000
18000000
0c001800
063ffc00
04001800
00801800
c0801800
60801800
31001800
31001800
03201800
023ff800
06301000
06300000
0c300000
0c300000
1c300000
78300200
38300200
18300200
18300200
0c300300
0c3fff00
0c1ffe00
0c000000
00000000
00000000
ENDCHAR
STARTCHAR 2425
ENCODING 9253
SWIDTH 1529 0
DWIDTH 26 0
BBX 26 27 0 -1
BITMAP
00000000
20001800
183ffc00
0c003800
0c003000
00006000
01004000
81008000
61018000
32018000
32018000
06018600
06ffff00
0c018000
0c018000
18018000
38018000
f0018000
70018000
30018000
30018000
18018000
18018000
181f8000
18070000
00000000
00000000
ENDCHAR
STARTCHAR 2426
ENCODING 9254
SWIDTH 1529 0
DWIDTH 26 0
BBX 26 27 0 -1
BITMAP
00000000
08000000
0e000600
0c3fff00
0c00c000
0c80c000
8ce0c000
4cc0c000
4d80c000
6f00c000
6c00c000
2c00c000
0c00c000
0c00c000
0c00c000
0c00c000
0c00c000
1a00c000
1900c000
1980c000
30c0c000
30c0c000
6040c000
400fc000
80038000
00000000
00000000
ENDCHAR
STARTCHAR 2427
ENCODING 9255
SWIDTH 1529 0
DWIDTH 26 0
BBX 26 27 0 -1
BITMAP
00000000
04000400
07000700
06000600
06010600
0601c600
86218600
c6398600
46718600
66618600
66c18600
67018600
06018600
06018600
06018600
06018600
0e018600
0d818600
0cc18600
18610600
18700600
30300600
20200600
4000fe00
80001c00
00000000
00000000
ENDCHAR
STARTCHAR 2428
ENCODING 9256
SWIDTH 1529 0
DWIDTH 26 0
BBX 26 27 0 -1
BITMAP
00000000
00100000
001c0000
10182000
0c183800
07186000
033cc000
02350000
00620000
00c30000
01818000
0300e000
06007800
0c821f00
30e38c00
c0c30000
00c30000
00c30000
00c30200
01830200
01830200
03030300
0603ff00
1801fe00
60000000
00000000
00000000
ENDCHAR
STARTCHAR 2429
ENCODING 9257
SWIDTH 1529 0
DWIDTH 26 0
BBX 26 27 0 -1
BITMAP
00000000
00000000
20000c00
3ffffe00
30000000
30080000
300e0000
300c0000
300c2000
340c3800
330c3000
318c6000
318c4000
30cc8000
30da0000
301a0000
30190000
30310000
60308000
6060c000
60606000
40c03000
c1801c00
86000f00
18000400
00000000
00000000
ENDCHAR
STARTCHAR 242a
ENCODING 9258
SWIDTH 1529 0
DWIDTH 26 0
BBX 26 27 0 -1
BITMAP
00000000
20001800
3ffffc00
30001800
30001800
30201800
30381800
30301800
30301800
30311800
3431d800
32319800
33331800
33321800
31341800
30701800
30681800
206c1800
20c41900
60c61900
41830d00
43018d00
8601c700
8c00f700
30004300
00000000
00000000
ENDCHAR
STARTCHAR 242b
ENCODING 9259
SWIDTH 1529 0
DWIDTH 26 0
BBX 26 27 0 -1
BITMAP
00000000
02000000
03800000
03000000
06000600
07ffff00
0c000600
18000600
30200600
40380600
00300600
10308600
0830e600
0c70c600
06698600
066a0600
00cc0e00
00c47c00
01861800
01830000
03018000
0600e000
0c007800
18003e00
60001800
00000000
00000000
ENDCHAR
STARTCHAR 242c
ENCODING 9260
SWIDTH 1529 0
DWIDTH 26 0
BBX 26 27 0 -1
BITMAP
00000000
02080000
470e0000
260c0000
2c0c0000
1c0c3000
19fff800
3c0c3000
4c0c3000
860c3000
060c3000
0e6c3000
0f3c3000
1b1c3000
330e3000
630e3000
831f3000
031b3000
03333200
03303200
03203200
06603300
0e403f00
7c801e00
09000000
00000000
00000000
ENDCHAR
STARTCHAR 242d
ENCODING 9261
SWIDTH 1529 0
DWIDTH 26 0
BBX 26 27 0 -1
BITMAP
00000000
81002000
41c03800
33003000
1e003000
0c003000
1c003000
36003600
667fff00
82007000
0300f000
0700f000
0701b000
0f01b000
1b033000
33063000
630c3000
83083000
03103000
03203000
03403000
06003000
0e003000
7c07f000
1800e000
00000000
00000000
ENDCHAR
STARTCHAR 242e
ENCODING 9262
SWIDTH 1529 0
DWIDTH 26 0
BBX 26 27 0 -1
BITMAP
00000000
00010000
0181c000
ffc18000
0c018000
0c018000
0c018000
0c018000
0c030000
0c030000
0c830000
ffc30000
0c030000
0c060000
0c060000
0c061000
0c040800
0c0c0c00
0fc80400
fe180600
f0103e00
4031e700
007f0300
00780300
00200300
00000000
00000000
ENDCHAR
STARTCHAR 242f
ENCODING 9263
SWIDTH 1529 0
DWIDTH 26 0
BBX 26 27 0 -1
BITMAP
00000000
00020000
00838000
ffc30000
0c030000
0c030000
0c030600
0c3fff00
0c030600
0c030600
0c830600
ffc30600
0c030600
0c030600
0c030600
0c060600
0c060600
0c060600
0c0c0600
0dcc0600
ff080600
70180600
40100c00
0021fc00
00403800
00000000
00000000
ENDCHAR
STARTCHAR 2430
ENCODING 9264
SWIDTH 1529 0
DWIDTH 26 0
BBX 26 27 0 -1
BITMAP
00000000
00010000
0061c000
7ff18000
06018000
06018000
06018000
06018000
06018000
0601e000
0641b000
7fe19800
06018c00
06018e00
06018600
06018600
06018000
06018000
06018000
07f18000
fe018000
70018000
00018000
00018000
00010000
00000000
00000000
ENDCHAR
STARTCHAR 2431
ENCODING 9265
SWIDTH 1529 0
DWIDTH 26 0
BBX 26 27 0 -1
BITMAP
00000000
00000400
00400700
ffe00600
06020600
06038600
06030600
06030600
06030600
06030600
06430600
7fe30600
06030600
06030600
06030600
06030600
06030600
06030600
06030600
07e20600
fe000600
70000600
40000600
0001fe00
00001c00
00000000
00000000
ENDCHAR
STARTCHAR 2432
ENCODING 9266
SWIDTH 1529 0
DWIDTH 26 0
BBX 26 27 0 -1
BITMAP
00000000
00000000
00000600
ffffff00
00180000
00180000
00300000
00360000
00630000
0061c000
00c0e000
01806000
03006000
06000000
0c003000
37fff800
c6003000
06003000
06003000
06003000
06003000
06003000
07fff000
06002000
04000000
00000000
00000000
ENDCHAR
STARTCHAR 2433
ENCODING 9267
SWIDTH 1529 0
DWIDTH 26 0
BBX 26 27 0 -1
BITMAP
00000000
10040000
0c070000
06060000
06c60000
7fe60000
00c60000
01860000
03060000
03060000
06060000
0f060000
1f860000
36c60000
66c60000
86060000
06060000
06060200
06060200
06060200
06060200
06060300
0607ff00
0603fe00
04000000
00000000
00000000
ENDCHAR
STARTCHAR 2434
ENCODING 9268
SWIDTH 1529 0
DWIDTH 26 0
BBX 26 27 0 -1
BITMAP
00000000
00600000
00300000
00380000
00101800
3ffffc00
00008000
0400e000
0300c000
01818000
01c18000
00c30000
00820600
ffffff00
00180000
00180000
00180000
00180000
00180000
00180000
00180000
00180000
00180000
00180000
00100000
00000000
00000000
ENDCHAR
STARTCHAR 2435
ENCODING 9269
SWIDTH 1529 0
DWIDTH 26 0
BBX 26 27 0 -1
BITMAP
00000000
43040000
7f870000
63060000
63060000
63060000
63063000
7b3ff800
6f063000
67063000
63063000
63063000
63063000
63063000
67063000
6f063000
7b063000
63063200
630c3200
630c3200
630c3200
43183300
c3103f00
9f201e00
86400000
00000000
00000000
ENDCHAR
STARTCHAR 2436
ENCODING 9270
SWIDTH 1529 0
DWIDTH 26 0
BBX 26 27 0 -1
BITMAP
00000000
20000000
20000600
3fffff00
60000600
60000c00
e0000800
c4006000
07fff000
06006000
06006000
06006000
06e06000
063e6000
060e6000
06006000
06036000
060e6000
06386000
0cf06000
0c606000
18006000
10006000
2007e000
4000c000
00000000
00000000
ENDCHAR
STARTCHAR 2437
ENCODING 9271
SWIDTH 1529 0
DWIDTH 26 0
BBX 26 27 0 -1
BITMAP
00000000
04004000
07007000
06406400
7fe7fe00
06006000
06006000
04004000
00000c00
7ffffe00
01800000
01800000
01800000
03003000
07fff800
02003000
00003000
00003000
00003000
00003000
00007000
00006000
0000e000
001fc000
00038000
00000000
00000000
ENDCHAR
STARTCHAR 2438
ENCODING 9272
SWIDTH 1529 0
DWIDTH 26 0
BBX 26 27 0 -1
BITMAP
00000000
04004000
07007000
06406600
ffe3ff00
06006000
06006000
06206000
04384000
00300000
00300000
00301800
3ffffc00
00601800
00601800
00601800
00c01800
00c01800
01801800
01801800
03003800
06003000
0c007000
300fe000
c001c000
00000000
00000000
ENDCHAR
STARTCHAR 2439
ENCODING 9273
SWIDTH 1529 0
DWIDTH 26 0
BBX 26 27 0 -1
BITMAP
00000000
04004000
07007000
06406200
ffe7ff00
06006000
06006000
06006000
040c4000
00060000
01020000
01c30000
01830000
03810000
03018000
03008000
0600c000
0600c000
0c006000
0c006000
18003000
18003800
30001c00
60000f00
80000600
00000000
00000000
ENDCHAR
STARTCHAR 243a
ENCODING 9274
SWIDTH 1529 0
DWIDTH 26 0
BBX 26 27 0 -1
BITMAP
00000000
00100000
001c0000
00180000
00181800
3ffffc00
00180000
00180000
00180000
00180600
ffffff00
00000000
00003000
40007800
3000e000
18038000
0c0e0000
0c380000
00e00000
03800000
06000000
1f800000
78f80000
603fff00
0007fc00
00000000
00000000
ENDCHAR
STARTCHAR 243b
ENCODING 9275
SWIDTH 1529 0
DWIDTH 26 0
BBX 26 27 0 -1
BITMAP
00000000
00040000
40070000
30060000
18060000
18060000
00060c00
00fffe00
0c060c00
fe060c00
0c060c00
18060c00
18060c00
300c0c00
7c0c0c00
0c180c00
0c180c00
0c301c00
18603800
1843f000
30806000
fc000000
c7800000
01ffff00
007ffc00
00000000
00000000
ENDCHAR
STARTCHAR 243c
ENCODING 9276
SWIDTH 1529 0
DWIDTH 26 0
BBX 26 27 0 -1
BITMAP
00000000
04010600
0701ff00
06018600
06018600
06018c00
86218c00
e6398800
c6319000
c6319800
c6318c00
c6318600
c6318600
c6318300
c6318300
c6318300
c6318300
c6318300
c6318700
c631be00
c6318c00
fff18000
80218000
00018000
00010000
00000000
00000000
ENDCHAR
STARTCHAR 243d
ENCODING 9277
SWIDTH 1529 0
DWIDTH 26 0
BBX 26 27 0 -1
BITMAP
00000000
08010600
0e01ff00
0c018600
0c418600
0c618c00
0c798c00
ffe18800
cc619000
0c619800
18618c00
18618600
18618600
30618300
30c18300
78c18300
26c18300
03818300
01c18700
0361be00
06318c00
0c398000
30198000
c0018000
00010000
00000000
00000000
ENDCHAR
STARTCHAR 243e
ENCODING 9278
SWIDTH 1529 0
DWIDTH 26 0
BBX 26 27 0 -1
BITMAP
00000000
41800000
7fc00c00
619ffe00
63001c00
63001800
66003000
64006000
6800c000
6400c000
6600c000
6300c600
637fff00
6180c000
6180c000
6180c000
6180c000
6380c000
7f00c000
6600c000
6000c000
6000c000
6000c000
600fc000
40018000
00000000
00000000
ENDCHAR
STARTCHAR 243f
ENCODING 9279
SWIDTH 1529 0
DWIDTH 26 0
BBX 26 27 0 -1
BITMAP
00000000
00000000
00000600
ffffff00
01818000
01818000
01818000
01818000
41818600
7fffff00
61818600
61818600
61818600
61c18600
63634600
63332600
66363600
6c263600
700c1600
60180600
60600600
60000600
60000600
60007e00
40001c00
00000000
00000000
ENDCHAR
STARTCHAR 2440
ENCODING 9280
SWIDTH 1529 0
DWIDTH 26 0
BBX 26 27 0 -1
BITMAP
00000000
00710000
07f9c000
7f018000
03018000
03018000
03018000
03018000
03198000
fffd8000
03018000
03018000
03018000
03018000
23318000
3ff98000
30318000
30318200
30318200
30318200
30318200
30318300
3031ff00
3ff0fe00
20200000
00000000
00000000
ENDCHAR
STARTCHAR 2441
ENCODING 9281
SWIDTH 1529 0
DWIDTH 26 0
BBX 26 27 0 -1
BITMAP
00000000
00000000
00200c00
003ffe00
03300c00
ffb00c00
00300c00
00300c00
00300c00
00300c00
00300c00
003ffc00
00266800
00066000
00066000
01866000
ffc66000
000c6200
000c6200
000c6200
00186200
00186300
00307f00
00603e00
01800000
00000000
00000000
ENDCHAR
STARTCHAR 2442
ENCODING 9282
SWIDTH 1529 0
DWIDTH 26 0
BBX 26 27 0 -1
BITMAP
00000000
00000000
00000c00
3ffffe00
00c30000
00c30000
00c30000
00c30000
20c30c00
3ffffe00
30c30c00
30c30c00
30c30c00
30c30c00
30c30c00
30c30c00
3ffffc00
20c30800
00c30000
00c30000
00c30000
00c30000
00c30600
ffffff00
00000000
00000000
00000000
ENDCHAR
STARTCHAR 2443
ENCODING 9283
SWIDTH 1529 0
DWIDTH 26 0
BBX 26 27 0 -1
BITMAP
00000000
08020000
0e038000
0c030000
0c030000
18031800
18fffc00
18030000
30030000
38030000
78030000
58030c00
99fffe00
18070000
180f8000
180fc000
181b4000
181b6000
18333000
18331800
18631c00
18c30f00
19830600
1a030000
10020000
00000000
00000000
ENDCHAR
STARTCHAR 2444
ENCODING 9284
SWIDTH 1529 0
DWIDTH 26 0
BBX 26 27 0 -1
BITMAP
00000000
04010000
0701c000
06018000
0c018000
0c418600
187fff00
18618600
30618400
38618800
78618000
58619800
987ffc00
18681800
18681800
18643000
18663000
18c36000
18c1c000
1881c000
19836000
19063800
1a0c1c00
18300f00
11c00400
00000000
00000000
ENDCHAR
STARTCHAR 2445
ENCODING 9285
SWIDTH 1529 0
DWIDTH 26 0
BBX 26 27 0 -1
BITMAP
00000000
04000000
07203000
063ff800
06303000
0c303000
0c303000
0c303000
18303000
1c3ff000
3c303000
2c303000
4c303000
0c303000
0c303000
0c303000
0c3ff000
0c303000
0c303000
0c303000
0c303000
0c303000
0c303600
0dffff00
08000000
00000000
00000000
ENDCHAR
STARTCHAR 2446
ENCODING 9286
SWIDTH 1529 0
DWIDTH 26 0
BBX 26 27 0 -1
BITMAP
00000000
04010000
0701c000
06018000
06018000
0c018000
0c418600
0c7fff00
18618600
1c618600
3c618600
2c618600
4c618600
0c618600
0c7ffe00
0c618600
0c618600
0c618600
0c618600
0c618600
0c618600
0c618600
0c7ffe00
0c600400
08400000
00000000
00000000
ENDCHAR
STARTCHAR 2447
ENCODING 9287
SWIDTH 1529 0
DWIDTH 26 0
BBX 26 27 0 -1
BITMAP
00000000
08004000
0e207000
0c386000
0c306000
18606000
18606600
18c3ff00
30886600
3b0e6600
798c6600
58d86600
98786600
18306600
18606600
18486600
18c8c600
198cc600
1b3cc600
1fed8600
1b898600
18030600
18060e00
180c7c00
10301800
00000000
00000000
ENDCHAR
STARTCHAR 2448
ENCODING 9288
SWIDTH 1529 0
DWIDTH 26 0
BBX 26 27 0 -1
BITMAP
00000000
08400c00
0e7ffe00
0c600c00
0c600c00
18600c00
18600c00
18600c00
307ffc00
38600800
78640000
58670000
98660000
18660000
18660c00
1867fe00
18660000
18c60000
18c60200
18c60200
19860200
19860300
1907ff00
1a03fe00
10000000
00000000
00000000
ENDCHAR
STARTCHAR 2449
ENCODING 9289
SWIDTH 1529 0
DWIDTH 26 0
BBX 26 27 0 -1
BITMAP
00000000
04000000
07000c00
067ffe00
06018000
0c018000
0c018000
0c018000
18018000
1c218000
3c398000
2c318000
4c319800
0c31fc00
0c318000
0c318000
0c318000
0c318000
0c318000
0c318000
0c318000
0c318000
0c318600
0dffff00
08000000
00000000
00000000
ENDCHAR
STARTCHAR 244a
ENCODING 9290
SWIDTH 1529 0
DWIDTH 26 0
BBX 26 27 0 -1
BITMAP
00000000
04000000
07000600
067fff00
06018000
0c018000
0c018000
0c018000
18418600
1c7fff00
3c618600
2c618600
4c638600
0c634600
0c662600
0c663600
0c6c1e00
0c681e00
0c700600
0c600600
0c600600
0c600600
0c600600
0c607e00
08401c00
00000000
00000000
ENDCHAR
STARTCHAR 244b
ENCODING 9291
SWIDTH 1529 0
DWIDTH 26 0
BBX 26 27 0 -1
BITMAP
00000000
04101000
071c1c00
06181800
06181800
0c181800
0c181a00
0cffff00
18181800
1c181800
3c181800
2c181800
4c181800
0c181800
0c1ff800
0c181800
0c181800
0c181800
0c181800
0c181800
0c181800
0c181800
0c1ff800
0c181000
08100000
00000000
00000000
ENDCHAR
STARTCHAR 244c
ENCODING 9292
SWIDTH 1529 0
DWIDTH 26 0
BBX 26 27 0 -1
BITMAP
00000000
08000c00
0e7ffe00
0c060c00
0c060c00
18060c00
180c0c00
180c0c00
30180c00
38180c00
78301800
5861f000
98c06000
19000000
18200c00
183ffe00
18300c00
18300c00
18300c00
18300c00
18300c00
18300c00
183ffc00
18300800
10200000
00000000
00000000
ENDCHAR
STARTCHAR 244d
ENCODING 9293
SWIDTH 1529 0
DWIDTH 26 0
BBX 26 27 0 -1
BITMAP
00000000
08000000
0e401800
0c7ffc00
0c601800
18681800
18661800
18631800
10619800
38619800
38601800
58601800
9bfffe00
18c01800
18c81800
18c61800
18c31800
18c19800
18c19800
18c01800
19ffff00
18803000
18003000
1803f000
10006000
00000000
00000000
ENDCHAR
STARTCHAR 244e
ENCODING 9294
SWIDTH 1529 0
DWIDTH 26 0
BBX 26 27 0 -1
BITMAP
00000000
04200c00
073ffe00
06300c00
06300c00
0c300c00
0c300c00
0c300c00
18300c00
1c3ffc00
3c300800
2c300000
4c300000
0c300c00
0c3ffe00
0c300c00
0c300c00
0c300c00
0c300c00
0c300c00
0c300c00
0c300c00
0c3ffc00
0c300800
08200000
00000000
00000000
ENDCHAR
STARTCHAR 244f
ENCODING 9295
SWIDTH 1529 0
DWIDTH 26 0
BBX 26 27 0 -1
BITMAP
00000000
08000000
0e000000
0d000600
0dffff00
198cc600
198cc600
198cc600
318cc600
398cc600
798cc600
598cc600
998cc600
1998c600
1998c600
19b0fe00
19a07e00
19c00600
19800600
19800600
19800600
19fffe00
19800400
19000000
10000000
00000000
00000000
ENDCHAR
STARTCHAR 2450
ENCODING 9296
SWIDTH 1529 0
DWIDTH 26 0
BBX 26 27 0 -1
BITMAP
00000000
04038000
07030000
06068000
06064000
0c0c6000
0c183000
0c301c00
18600f00
1c810600
3d01c000
2c018000
4c118000
0c1da000
0c199000
0c319800
0c318c00
0c618600
0c418600
0c818300
0d018300
0c018000
0c018000
0c1f8000
08030000
00000000
00000000
ENDCHAR
STARTCHAR 2451
ENCODING 9297
SWIDTH 1529 0
DWIDTH 26 0
BBX 26 27 0 -1
BITMAP
00000000
10004000
0c007000
0700e000
0381c000
01c30000
08846000
0ffff000
0c006000
0c006000
0c006000
0c006000
0c006000
0c006000
0fffe000
08c64000
00c60000
01860000
01860200
03060200
06060200
0c060300
1807ff00
6003fe00
80000000
00000000
00000000
ENDCHAR
STARTCHAR 2452
ENCODING 9298
SWIDTH 1529 0
DWIDTH 26 0
BBX 26 27 0 -1
BITMAP
00000000
00006000
1ffff000
00c06000
00c06000
01806000
030fc000
06018000
0c003000
3ffff800
cc183000
0c183000
0c183000
0c183000
0ffff000
08362000
00360000
00660000
00c60000
01860200
03060200
06060300
0c07ff00
3003fe00
c0000000
00000000
00000000
ENDCHAR
STARTCHAR 2453
ENCODING 9299
SWIDTH 1529 0
DWIDTH 26 0
BBX 26 27 0 -1
BITMAP
00000000
08201800
0e3ffc00
0c301800
0c301800
0c301800
0c301800
0c3ff800
0c301800
0c301800
0c301800
0c301800
0c3ff800
08201000
01020000
01c38000
01830000
01830000
03030200
03030200
06030200
0c030300
1803ff00
3001fe00
c0000000
00000000
00000000
ENDCHAR
STARTCHAR 2454
ENCODING 9300
SWIDTH 1529 0
DWIDTH 26 0
BBX 26 27 0 -1
BITMAP
00000000
0003e000
007ff000
0ff80000
00180000
00180000
10181800
1ffffc00
18181800
18181800
18181800
18181800
1ffff800
10341000
00370000
00760000
00668000
00c66000
01863200
03063200
06060200
0c060300
1807ff00
6003fe00
80000000
00000000
00000000
ENDCHAR
STARTCHAR 2455
ENCODING 9301
SWIDTH 1529 0
DWIDTH 26 0
BBX 26 27 0 -1
BITMAP
00000000
00000000
40000600
7fffff00
60180600
60180600
60180600
6c1b0600
66198600
6318c600
6318c600
6318c600
6798e600
6699a600
6cd9b600
6c5b1600
787e1e00
70380e00
60180600
60180600
60180600
60180600
60180600
60187e00
40101c00
00000000
00000000
ENDCHAR
STARTCHAR 2456
ENCODING 9302
SWIDTH 1529 0
DWIDTH 26 0
BBX 26 27 0 -1
BITMAP
00000000
00000000
08003000
0ffff800
0c103000
0c1c3000
0c183000
0c183000
0c183000
0c3c3000
0c363000
0c633000
0c61b000
0cc1b000
0d80b000
0e003000
0c003600
ffffff00
00000000
01018000
03c06000
07003800
0e001c00
18000e00
60000600
00000000
00000000
ENDCHAR
STARTCHAR 2457
ENCODING 9303
SWIDTH 1529 0
DWIDTH 26 0
BBX 26 27 0 -1
BITMAP
00000000
00000000
20000600
3fffff00
60000600
60000400
c0000800
c400c000
07ffe000
0600c000
0600c000
0600c000
0600c000
07ffc000
0600c000
0600c000
0600c000
0600c000
07ffc000
0600c000
0600c000
0600c000
0600c600
ffffff00
00000000
00000000
00000000
ENDCHAR
STARTCHAR 2458
ENCODING 9304
SWIDTH 1529 0
DWIDTH 26 0
BBX 26 27 0 -1
BITMAP
00000000
00000000
40000600
31ffff00
18060000
0c060000
0c060000
000c0000
010c0000
030c0000
02180000
06380c00
0c3ffe00
0c780c00
18d80c00
38980c00
f1180c00
70180c00
60180c00
60180c00
30180c00
30180c00
301ffc00
30180800
00100000
00000000
00000000
ENDCHAR
STARTCHAR 2459
ENCODING 9305
SWIDTH 1529 0
DWIDTH 26 0
BBX 26 27 0 -1
BITMAP
00000000
00000000
40200c00
203ffe00
30300c00
19300c00
19300c00
01300c00
02300c00
02300c00
06300c00
043ffc00
0c366800
0c266000
18066000
18066000
38066000
f00e6200
700c6200
301c6200
30186200
18306300
18607f00
18c03e00
1b000000
00000000
00000000
ENDCHAR
STARTCHAR 245a
ENCODING 9306
SWIDTH 1529 0
DWIDTH 26 0
BBX 26 27 0 -1
BITMAP
00000000
00010000
4001c000
30018800
18418e00
18318c00
01199800
01199000
0209a000
02018c00
067ffe00
04018000
0c018000
0c018000
18018000
18018600
38ffff00
f0018000
70018000
30018000
30018000
18018000
18018000
18018000
18010000
00000000
00000000
ENDCHAR
STARTCHAR 245b
ENCODING 9307
SWIDTH 1529 0
DWIDTH 26 0
BBX 26 27 0 -1
BITMAP
00000000
20003000
3ffff800
30003000
30003000
30003000
30033000
37ffb000
30003000
30003000
32033000
33ffb000
33033000
33033000
33033000
33ff3000
33033000
33033200
63033200
63ff3200
63021a00
42001a00
c0000e00
80000700
80000300
00000000
00000000
ENDCHAR
STARTCHAR 245c
ENCODING 9308
SWIDTH 1529 0
DWIDTH 26 0
BBX 26 27 0 -1
BITMAP
00000000
08000400
0e000700
0c000600
0c008600
1840e600
1020c600
3030c600
2018c600
41fcc600
ff0cc600
6008c600
0000c600
2030c600
3ff8c600
3030c600
3030c600
3030c600
3030c600
3030c600
30300600
30300600
3ff00600
30207e00
20001c00
00000000
00000000
ENDCHAR
STARTCHAR 245d
ENCODING 9309
SWIDTH 1529 0
DWIDTH 26 0
BBX 26 27 0 -1
BITMAP
00000000
04000000
07000000
06000600
065fff00
7fe18600
06018600
06018600
06018600
06018600
06318600
fff98600
06018600
0c018600
0c018600
18830600
18430600
30630600
43e60600
fe360600
782c0e00
200c0c00
00181c00
0031f800
00c07000
00000000
00000000
ENDCHAR
STARTCHAR 245e
ENCODING 9310
SWIDTH 1529 0
DWIDTH 26 0
BBX 26 27 0 -1
BITMAP
00000000
02000400
03800700
03008600
0300e600
0300c600
0310c600
7ff8c600
0300c600
0300c600
0300c600
0300c600
0318c600
fffcc600
0600c600
0600c600
0c00c600
0c60c600
1830c600
30188600
301c0600
63fc0600
fe0c0600
700cfe00
00001c00
00000000
00000000
ENDCHAR
STARTCHAR 245f
ENCODING 9311
SWIDTH 1529 0
DWIDTH 26 0
BBX 26 27 0 -1
BITMAP
00000000
00180400
7ffc0700
06188600
0618e600
0618c600
0618c600
0c18c600
0c18c600
1818c600
1bf0c600
30e0c600
6000c600
4018c600
bffcc600
3018c600
3018c600
3018c600
30188600
30180600
30180600
30180600
3ff80600
30103e00
20000c00
00000000
00000000
ENDCHAR
STARTCHAR 2460
ENCODING 9312
SWIDTH 1529 0
DWIDTH 26 0
BBX 26 27 0 -1
BITMAP
00000000
20300400
3ff80700
30300600
30308600
3030e600
3030c600
3030c600
3ff0c600
2420c600
0700c600
0600c600
0618c600
7ffcc600
0618c600
0618c600
0618c600
0c18c600
0c188600
18180600
18380600
30300600
20700600
47e07e00
80c01c00
00000000
00000000
ENDCHAR
STARTCHAR 2461
ENCODING 9313
SWIDTH 1529 0
DWIDTH 26 0
BBX 26 27 0 -1
BITMAP
00000000
46460400
7f7f0700
66664600
66667600
66666600
66666600
66666600
66666600
66666600
66666600
ffffe600
66666600
66666600
66666600
66666600
66666600
66666600
66666600
66664600
66660600
66660600
66660600
6e6e7e00
44440c00
00000000
00000000
ENDCHAR
STARTCHAR 2462
ENCODING 9314
SWIDTH 1529 0
DWIDTH 26 0
BBX 26 27 0 -1
BITMAP
00000000
00002000
20403c00
18303800
0c187000
0e1c6000
060cc000
04088000
20010600
3fffff00
60000e00
e0400c00
c0701800
00600000
00603000
1ffff800
00c03000
00c03000
01803000
01803000
03003000
06003000
0c007000
300fe000
c001c000
00000000
00000000
ENDCHAR
STARTCHAR 2463
ENCODING 9315
SWIDTH 1529 0
DWIDTH 26 0
BBX 26 27 0 -1
BITMAP
00000000
02008000
0380e000
0300c600
ffffff00
0300c000
0300c000
02008000
20000600
3fffff00
60000600
60200c00
c0380800
c0300000
00303000
0ffff800
00603000
00603000
00c03000
01803000
03003000
06003000
0c007000
3007e000
c000c000
00000000
00000000
ENDCHAR
STARTCHAR 2464
ENCODING 9316
SWIDTH 1529 0
DWIDTH 26 0
BBX 26 27 0 -1
BITMAP
00000000
04008000
0700e000
0600c000
4640c000
7670c000
6660c600
6667ff00
6660c600
6660c600
ffe0c600
4640c600
0600c600
0600c600
8620c600
e638c600
c6318600
c6318600
c6318600
c6330600
c6330600
fff60600
80240e00
0008fc00
00101800
00000000
00000000
ENDCHAR
STARTCHAR 2465
ENCODING 9317
SWIDTH 1529 0
DWIDTH 26 0
BBX 26 27 0 -1
BITMAP
00000000
40000c00
7ffffe00
60200000
60380000
60704000
60e02000
61803000
6307f800
67fc1800
63411800
6071c000
60618000
60618c00
6ffffe00
60618000
60618000
60c18000
60c18000
61818000
61018000
62010000
60000600
ffffff00
40000000
00000000
00000000
ENDCHAR
STARTCHAR 2466
ENCODING 9318
SWIDTH 1529 0
DWIDTH 26 0
BBX 26 27 0 -1
BITMAP
00000000
00000c00
7ffffe00
30000000
30400000
30700000
30603000
30fff800
30c60000
31860000
33060000
34060000
30060c00
33fffe00
300d0000
3018c000
30186000
30303000
30603800
30c01800
33001000
30000000
3ffffe00
1fffff00
00000000
00000000
00000000
ENDCHAR
STARTCHAR 2467
ENCODING 9319
SWIDTH 1529 0
DWIDTH 26 0
BBX 26 27 0 -1
BITMAP
00000000
04000000
07020600
0603ff00
06430600
7fe30600
06030600
06030600
06030600
06030600
06030600
06630600
fff30600
0c030600
0c030600
18030600
18830600
30430600
20630600
43f37e00
fe331c00
f0330000
40230000
00030000
00020000
00000000
00000000
ENDCHAR
STARTCHAR 2468
ENCODING 9320
SWIDTH 1529 0
DWIDTH 26 0
BBX 26 27 0 -1
BITMAP
00000000
20000600
3fffff00
30000000
30180000
300e0000
30070000
30030000
30020c00
33fffe00
30000000
30002000
30803800
30403000
30403000
30206000
30306000
3030c000
2018c000
60188000
60118000
40010600
87ffff00
00000000
00000000
00000000
00000000
ENDCHAR
STARTCHAR 2469
ENCODING 9321
SWIDTH 1529 0
DWIDTH 26 0
BBX 26 27 0 -1
BITMAP
00000000
00000000
20000600
3fffff00
30000000
30040000
30070000
30060000
30060000
30060c00
37fffe00
30060000
30060000
30060000
30060000
31061800
31fffc00
31801800
31801800
31801800
61801800
61801800
41fff800
81801000
01000000
00000000
00000000
ENDCHAR
STARTCHAR 246a
ENCODING 9322
SWIDTH 1529 0
DWIDTH 26 0
BBX 26 27 0 -1
BITMAP
00000000
20000600
3fffff00
30000000
30000000
31001800
31fffc00
31861800
31861800
31861800
31861800
31fff800
31861800
31861800
31861800
31861800
31fff800
31061000
30060000
30060000
60060000
60060000
40060000
80060000
00040000
00000000
00000000
ENDCHAR
STARTCHAR 246b
ENCODING 9323
SWIDTH 1529 0
DWIDTH 26 0
BBX 26 27 0 -1
BITMAP
00000000
00080000
00060000
43030000
7f818000
63018600
637fff00
63060000
63060000
63060000
63060c00
6307fe00
63060c00
63060c00
630c0c00
630c0c00
630c0c00
7f180c00
62180c00
40300c00
00300c00
00600c00
00c01800
0181f800
02007000
00000000
00000000
ENDCHAR
STARTCHAR 246c
ENCODING 9324
SWIDTH 1529 0
DWIDTH 26 0
BBX 26 27 0 -1
BITMAP
00000000
00010000
0001c000
86018000
ff01b800
c601fc00
c63f8000
c6018000
c6018000
c6018000
c6018800
c63ffc00
c6018000
c6018000
c6018000
c6018000
c6018600
feffff00
c4018000
80018000
00018000
00018000
00018000
00018000
00010000
00000000
00000000
ENDCHAR
STARTCHAR 246d
ENCODING 9325
SWIDTH 1529 0
DWIDTH 26 0
BBX 26 27 0 -1
BITMAP
00000000
00000000
00001800
431ffc00
7f800000
63000000
63000000
63000000
63000000
63000000
63000600
637fff00
63018000
63018000
63030000
63030000
63061000
7f060800
620c0c00
400c0600
00180600
00307f00
007fc300
003c0300
00180200
00000000
00000000
ENDCHAR
STARTCHAR 246e
ENCODING 9326
SWIDTH 1529 0
DWIDTH 26 0
BBX 26 27 0 -1
BITMAP
00000000
00020000
00038000
86030000
ff030000
c6030000
c6030c00
c6fffe00
c6030000
c6070000
c6078000
c60f8000
c60f4000
c61b6000
c61b2000
c6333000
c6331800
fe631c00
c4c30e00
81830700
01030200
02030000
00030000
00030000
00020000
00000000
00000000
ENDCHAR
STARTCHAR 246f
ENCODING 9327
SWIDTH 1529 0
DWIDTH 26 0
BBX 26 27 0 -1
BITMAP
00000000
00020000
00039000
86030800
ff030c00
c6030600
c6030600
c6030000
c6030000
c6ffff00
c6030000
c6030000
c6070000
c607c000
c6078000
c60d8000
c60d8000
fe198000
c4198200
80318200
00318200
00618300
00c1ff00
0180fe00
06000000
00000000
00000000
ENDCHAR
STARTCHAR 2470
ENCODING 9328
SWIDTH 1529 0
DWIDTH 26 0
BBX 26 27 0 -1
BITMAP
00000000
00106000
001ff000
86186000
ff186000
c6186000
c6186000
c6306000
c6306000
c6607e00
c6403f00
c6800000
c6003000
c67ff800
c6103000
c6106000
c6186000
fe08c000
c40d8000
80078000
000fc000
001ce000
00303800
00c01f00
07000600
00000000
00000000
ENDCHAR
STARTCHAR 2471
ENCODING 9329
SWIDTH 1529 0
DWIDTH 26 0
BBX 26 27 0 -1
BITMAP
00000000
00010000
00108000
861c8000
ff18c000
c6184000
c6306000
c6302000
c6303000
c6601800
c6641c00
c6c70f00
c6860600
c7060000
c60c0000
c60c0000
c6184000
fe182000
c4303000
80301800
0063f800
01fe1c00
01f00c00
00c00c00
00000000
00000000
00000000
ENDCHAR
STARTCHAR 2472
ENCODING 9330
SWIDTH 1529 0
DWIDTH 26 0
BBX 26 27 0 -1
BITMAP
00000000
00600000
00300000
00300000
00180000
40180600
7fffff00
60360600
60630600
60c18600
6180e600
66007e00
78003600
62018600
63ffc600
63018600
63018600
63018600
63018600
63018600
63ff8600
62010600
60000600
60007e00
40000c00
00000000
00000000
ENDCHAR
STARTCHAR 2473
ENCODING 9331
SWIDTH 1529 0
DWIDTH 26 0
BBX 26 27 0 -1
BITMAP
00000000
00006000
7ffff000
0180e000
0180c000
01818600
0303ff00
03010600
06000600
0c100c00
181c1c00
3019f800
c0183000
00180800
3ffffc00
00180000
00180000
08183000
0ffff800
0c003000
0c003000
0c003000
0c003000
0ffff000
08002000
00000000
00000000
ENDCHAR
STARTCHAR 2474
ENCODING 9332
SWIDTH 1529 0
DWIDTH 26 0
BBX 26 27 0 -1
BITMAP
00000000
00002000
00003800
43183000
7f8e3000
63063000
63033000
63023000
63003000
63003000
63303000
631c3000
630e3000
63073000
63023000
63003600
637fff00
63003000
7f003000
62003000
40003000
00003000
00003000
00003000
00002000
00000000
00000000
ENDCHAR
STARTCHAR 2475
ENCODING 9333
SWIDTH 1529 0
DWIDTH 26 0
BBX 26 27 0 -1
BITMAP
00000000
00080000
00060000
86038000
ff018000
c600c000
c6008000
c6080000
c60e0000
c60c0000
c60c2000
c64c1800
c64c0c00
c64c0e00
c64c0600
c6cc0700
fecc0300
c4cc0200
818c0800
018c0800
018c0800
000c0c00
000ffc00
0007f800
00000000
00000000
00000000
ENDCHAR
STARTCHAR 2476
ENCODING 9334
SWIDTH 1529 0
DWIDTH 26 0
BBX 26 27 0 -1
BITMAP
00000000
00000000
00001800
867ffc00
ff061800
c6061800
c6061800
c6061800
c6061a00
c6ffff00
c6061800
c6061800
c6061800
c6061800
c6061800
c67ff800
c60c1000
fe0c0000
c40c0000
80180000
00180000
00300000
00600000
00c00000
01000000
00000000
00000000
ENDCHAR
STARTCHAR 2477
ENCODING 9335
SWIDTH 1529 0
DWIDTH 26 0
BBX 26 27 0 -1
BITMAP
00000000
00018400
007fc700
86018600
ff018600
c6018600
c6018600
c6218600
c63f8600
c6310600
c6300600
c6600600
c6600600
c6618600
c6ffc600
c6418600
c6018600
fe018600
c4018600
80018600
00018600
00018600
00038600
003f0600
000e0400
00000000
00000000
ENDCHAR
STARTCHAR 2478
ENCODING 9336
SWIDTH 1529 0
DWIDTH 26 0
BBX 26 27 0 -1
BITMAP
00000000
00020000
00038000
86030000
ff030000
c6030c00
c67ffe00
c6030000
c6030000
c6030000
c6030000
c6030000
c6030600
c6ffff00
c6030000
c6078000
c6068000
fe0cc000
c40c4000
80186000
00303000
00603800
00c01c00
01800f00
06000600
00000000
00000000
ENDCHAR
STARTCHAR 2479
ENCODING 9337
SWIDTH 1529 0
DWIDTH 26 0
BBX 26 27 0 -1
BITMAP
00000000
00408000
0070e000
0060c000
8660c000
ff60c000
c660c000
c660c000
c664c400
c67efe00
c660c000
c660c000
c660c000
c660c000
c660c000
c660c000
c660c000
c660c000
c660c200
fe60c200
c460c200
8066c300
0078ff00
00307e00
00000000
00000000
00000000
ENDCHAR
STARTCHAR 247a
ENCODING 9338
SWIDTH 1529 0
DWIDTH 26 0
BBX 26 27 0 -1
BITMAP
00000000
00000000
00000000
80800400
fee02700
c6c03e00
c6d03600
c6c86600
c6cc6600
c6c6c600
c6c6c600
c6c38600
c6c18600
c6c38600
c6c3c600
c6c66600
c6c66600
fecc3600
c4d03600
80e02600
00c00600
00c00600
01fffe00
00800400
00000000
00000000
00000000
ENDCHAR
STARTCHAR 247b
ENCODING 9339
SWIDTH 1529 0
DWIDTH 26 0
BBX 26 27 0 -1
BITMAP
00000000
08006000
0ffff000
0c006000
0c006000
0c006000
0c006000
0fffe000
08004000
00000000
00001800
3ffffc00
00300000
00300000
00300000
00300c00
7ffffe00
00680000
00c60000
00c30000
01818000
0300e000
06007800
18003f00
60000c00
00000000
00000000
ENDCHAR
STARTCHAR 247c
ENCODING 9340
SWIDTH 1529 0
DWIDTH 26 0
BBX 26 27 0 -1
BITMAP
00000000
08006000
0ffff000
0c006000
0c006000
0c006000
0c006000
0c006000
0fffe000
02004000
03800000
03000000
06006000
0ffff000
0400e000
0000c000
00018000
00030600
ffffff00
03000000
0780c000
0e003000
18001c00
30000e00
c0000600
00000000
00000000
ENDCHAR
STARTCHAR 247d
ENCODING 9341
SWIDTH 1529 0
DWIDTH 26 0
BBX 26 27 0 -1
BITMAP
00000000
00008000
0000e000
8600c000
ff00c000
c6418600
c67fff00
c6618600
c6618600
c6618600
c663c600
c6634600
c6636600
c6663600
c6663600
c66c1e00
c6681600
fe700600
c4600600
80600600
00600600
00600600
00600600
00607e00
00401c00
00000000
00000000
ENDCHAR
STARTCHAR 247e
ENCODING 9342
SWIDTH 1529 0
DWIDTH 26 0
BBX 26 27 0 -1
BITMAP
00000000
00200000
00180000
000c0000
02060000
13862000
13001800
33000c00
33004600
73004600
63006400
63ffe000
01ffc000
00000000
00000000
08003000
0ffff800
0c003000
0c003000
0c003000
0c003000
0c003000
0ffff000
0c002000
08000000
00000000
00000000
ENDCHAR
STARTCHAR 2521
ENCODING 9505
SWIDTH 1529 0
DWIDTH 26 0
BBX 26 27 0 -1
BITMAP
00000000
04100000
071c0000
06180000
0e180000
0c183000
1ffff800
18180000
30180000
20180000
40180000
00180600
ffffff00
00180000
00180000
08183000
0ffff800
0c003000
0c003000
0c003000
0c003000
0c003000
0c003000
0ffff000
08002000
00000000
00000000
ENDCHAR
STARTCHAR 2522
ENCODING 9506
SWIDTH 1529 0
DWIDTH 26 0
BBX 26 27 0 -1
BITMAP
00000000
0003e000
007ff000
3ff80000
00180000
00180000
00180000
00300600
ffffff00
00640000
00c20000
01830000
03018000
0600c000
0c007000
1c003c00
37ffef00
c6006600
06006000
06006000
06006000
06006000
07ffe000
06004000
04000000
00000000
00000000
ENDCHAR
STARTCHAR 2523
ENCODING 9507
SWIDTH 1529 0
DWIDTH 26 0
BBX 26 27 0 -1
BITMAP
00000000
00040000
00070000
00060000
43060000
7f8c0000
630c0600
631fff00
63183000
63303000
63683000
638c3000
63047000
63046000
63066000
6302c000
6303c000
63018000
7f018000
6203c000
40066000
000c3000
00181c00
00600f00
01800600
00000000
00000000
ENDCHAR
STARTCHAR 2524
ENCODING 9508
SWIDTH 1529 0
DWIDTH 26 0
BBX 26 27 0 -1
BITMAP
00000000
0001e000
107ff800
1ff00000
18000000
18000c00
1ffffe00
18000c00
18000c00
18000c00
18000c00
1ffffc00
18000800
18000000
19001800
19fffc00
19801800
19801800
19801800
31801800
31801800
21fff800
61801000
41000000
00000000
00000000
00000000
ENDCHAR
STARTCHAR 2525
ENCODING 9509
SWIDTH 1529 0
DWIDTH 26 0
BBX 26 27 0 -1
BITMAP
00000000
00000000
00000c00
86fffe00
ff060000
c6060000
c6060000
c6060000
c6060000
c6060000
c6060000
c6061800
c6fffc00
c60c1800
c60c1800
c60c1800
c60c1800
c60c1800
fe181800
c4181800
80181800
00181800
00181a00
03ffff00
00000000
00000000
00000000
ENDCHAR
STARTCHAR 2526
ENCODING 9510
SWIDTH 1529 0
DWIDTH 26 0
BBX 26 27 0 -1
BITMAP
00000000
40000600
7fffff00
60000600
60000600
60018600
63ffc600
60000600
60000600
60000600
60006600
6ffff600
60300600
60300600
60618600
60c0c600
6180c600
630fe600
67f86600
63004600
60000600
60000600
7ffffe00
60000400
40000000
00000000
00000000
ENDCHAR
STARTCHAR 2527
ENCODING 9511
SWIDTH 1529 0
DWIDTH 26 0
BBX 26 27 0 -1
BITMAP
00000000
40000600
7fffff00
60000600
60820600
60e38600
60c30600
60c34600
67ffe600
60c30600
60c30600
60c30600
60c30600
60c30600
60c32600
6ffff600
60c30600
61830600
61830600
63030600
62030600
64020600
7ffffe00
60000400
40000000
00000000
00000000
ENDCHAR
STARTCHAR 2528
ENCODING 9512
SWIDTH 1529 0
DWIDTH 26 0
BBX 26 27 0 -1
BITMAP
00000000
40000600
7fffff00
60000600
60100600
60888600
604ce600
6064c600
6220c600
61018600
60818600
60c30600
60630600
60360600
601c0600
601c0600
60360600
60638600
60c1c600
6300f600
6c004600
60000600
7ffffe00
60000400
40000000
00000000
00000000
ENDCHAR
STARTCHAR 2529
ENCODING 9513
SWIDTH 1529 0
DWIDTH 26 0
BBX 26 27 0 -1
BITMAP
00000000
40000600
7fffff00
60000600
60000600
60006600
6ffff600
60180600
60180600
60180600
60180600
6018c600
67ffe600
60180600
60180600
60180600
60180600
60186600
6ffff600
60000600
60000600
60000600
7ffffe00
60000400
40000000
00000000
00000000
ENDCHAR
STARTCHAR 252a
ENCODING 9514
SWIDTH 1529 0
DWIDTH 26 0
BBX 26 27 0 -1
BITMAP
00000000
40000600
7fffff00
60000600
60000600
60018600
63ffc600
60000600
60000600
60000600
60006600
6ffff600
60660600
60660600
60c60600
60c62600
61862600
61863600
6307f600
6603e600
68000600
60000600
7ffffe00
60000400
40000000
00000000
00000000
ENDCHAR
STARTCHAR 252b
ENCODING 9515
SWIDTH 1529 0
DWIDTH 26 0
BBX 26 27 0 -1
BITMAP
00000000
00000000
40000600
7fffff00
61818600
61818600
61818600
61818600
61818600
61ff8600
61818600
61818600
61818600
61818600
61818600
61ff8600
61818600
61818600
61818600
61818600
61818600
61818600
7ffffe00
60000400
40000000
00000000
00000000
ENDCHAR
STARTCHAR 252c
ENCODING 9516
SWIDTH 1529 0
DWIDTH 26 0
BBX 26 27 0 -1
BITMAP
00000000
40000600
7fffff00
60000600
60080600
600e0600
600c2600
600c3600
600c6600
60cec600
6fee0600
60cd0600
60cd0600
618c8600
618cc600
630c6600
660c7600
640c3e00
680c1600
707c0600
60180600
60000600
7ffffe00
60000400
40000000
00000000
00000000
ENDCHAR
STARTCHAR 252d
ENCODING 9517
SWIDTH 1529 0
DWIDTH 26 0
BBX 26 27 0 -1
BITMAP
00000000
10400000
1c400600
18ffff00
18c00e00
19800c00
19801800
1a001000
ff000000
18108000
181ce000
1818c000
1818c000
1818c000
1818c000
1818c000
1818c000
1838c000
1b30c200
fc30c200
e060c200
4060c300
00c0ff00
01807e00
06000000
00000000
00000000
ENDCHAR
STARTCHAR 252e
ENCODING 9518
SWIDTH 1529 0
DWIDTH 26 0
BBX 26 27 0 -1
BITMAP
00000000
10001800
1c7ffc00
18001800
18003000
18306000
180d8000
1a070000
ff038000
18010600
19ffff00
18030600
18030600
18030c00
18030800
18030000
18030000
18030000
1f030000
fc030000
e0030000
40030000
00030000
003f0000
00060000
00000000
00000000
ENDCHAR
STARTCHAR 252f
ENCODING 9519
SWIDTH 1529 0
DWIDTH 26 0
BBX 26 27 0 -1
BITMAP
00000000
10103000
1c1ff800
18183000
18183000
18183000
18183000
18303000
ff303e00
18601f00
18c00000
19003000
187ff800
18103000
18103000
18086000
180c6000
1804c000
1b838000
fe038000
f006c000
400c6000
00183800
00601f00
01800c00
00000000
00000000
ENDCHAR
STARTCHAR 2530
ENCODING 9520
SWIDTH 1529 0
DWIDTH 26 0
BBX 26 27 0 -1
BITMAP
00000000
10020000
1c038000
18070000
18068000
180c4000
181c6000
1a183000
ff301800
18601c00
18c00f00
19104600
181c7000
18186000
18186000
18186000
18186000
18186000
1f306000
fc306000
e0606000
40606000
00c06000
01806000
02004000
00000000
00000000
ENDCHAR
STARTCHAR 2531
ENCODING 9521
SWIDTH 1529 0
DWIDTH 26 0
BBX 26 27 0 -1
BITMAP
00000000
00000000
08003000
0ffff800
0c003000
0c003000
0c003000
0ffff000
0c003000
0c003000
0c003000
0ffff000
0c002000
08100000
001c0000
00180000
00183000
1ffff800
00180000
00180000
00180000
00180000
00180600
ffffff00
00000000
00000000
00000000
ENDCHAR
STARTCHAR 2532
ENCODING 9522
SWIDTH 1529 0
DWIDTH 26 0
BBX 26 27 0 -1
BITMAP
00000000
01010000
01c1c000
01818000
01818c00
7ffffe00
01818000
01818000
01818000
01818600
ffffff00
01818000
03018000
06018000
0c118000
301d0000
00180000
00183000
1ffff800
00180000
00180000
00180000
00180600
ffffff00
00000000
00000000
00000000
ENDCHAR
STARTCHAR 2533
ENCODING 9523
SWIDTH 1529 0
DWIDTH 26 0
BBX 26 27 0 -1
BITMAP
00000000
00003000
1ffff800
00000000
00000000
00000000
00000600
ffffff00
01830000
01830000
03030200
03030200
0603ff00
1c11fe00
e01c0000
00180000
00180000
00181800
3ffffc00
00180000
00180000
00180000
00180600
ffffff00
00000000
00000000
00000000
ENDCHAR
STARTCHAR 2534
ENCODING 9524
SWIDTH 1529 0
DWIDTH 26 0
BBX 26 27 0 -1
BITMAP
00000000
08004000
0e007000
0c006000
0c186000
0c066000
0c036000
0c836000
ffc06000
0c006000
0c306000
0c0c6000
0c066000
0c066000
0c006000
0c006600
0c7fff00
0c006000
0fc06000
fe006000
f0006000
40006000
00006000
00006000
00004000
00000000
00000000
ENDCHAR
STARTCHAR 2535
ENCODING 9525
SWIDTH 1529 0
DWIDTH 26 0
BBX 26 27 0 -1
BITMAP
00000000
100c0000
1c070000
18038000
18018000
18010600
18ffff00
18003000
19103000
ff903000
18183000
18083000
18086000
180c6000
18046000
1804c000
1806c000
18038000
1b838000
fe07c000
f006e000
400c7000
00183c00
00301f00
00e00c00
00000000
00000000
ENDCHAR
STARTCHAR 2536
ENCODING 9526
SWIDTH 1529 0
DWIDTH 26 0
BBX 26 27 0 -1
BITMAP
00000000
10000000
1c001800
183ffc00
18000000
18000000
18000000
19000000
ff800000
18000600
18ffff00
180c6000
180c6000
180c6000
180c6000
180c6000
180c6000
181c6000
1f986200
fc386200
f0306200
40606300
00c07f00
01803e00
06000000
00000000
00000000
ENDCHAR
STARTCHAR 2537
ENCODING 9527
SWIDTH 1529 0
DWIDTH 26 0
BBX 26 27 0 -1
BITMAP
00000000
10000000
1c000c00
18fffe00
180c0000
180c0000
180c0000
1a0c0000
ff0c1800
181ffc00
18181800
18181800
18181800
18301800
18301800
18303000
187ff000
18203000
1f003000
f8006000
e0006000
40006000
00006600
01ffff00
00000000
00000000
00000000
ENDCHAR
STARTCHAR 2538
ENCODING 9528
SWIDTH 1529 0
DWIDTH 26 0
BBX 26 27 0 -1
BITMAP
00000000
10020000
1c038000
18030000
18030000
18031800
187ffc00
18031800
19031800
ff831800
18031800
18031800
18031a00
18ffff00
18030000
18030000
18068000
18066000
180c3000
1f8c1800
fc180c00
e0300600
40600300
00c00200
03000000
00000000
00000000
ENDCHAR
STARTCHAR 2539
ENCODING 9529
SWIDTH 1529 0
DWIDTH 26 0
BBX 26 27 0 -1
BITMAP
00000000
10408000
1c70e000
1860c000
1860c000
1860c000
1860c000
1a60c000
ff60c000
1864cc00
187efe00
1860c000
1860c000
1860c000
1860c000
1860c000
1860c000
1860c000
1f60c200
f860c200
e062c200
406cc300
0078ff00
00307e00
00000000
00000000
00000000
ENDCHAR
STARTCHAR 253a
ENCODING 9530
SWIDTH 1529 0
DWIDTH 26 0
BBX 26 27 0 -1
BITMAP
00000000
10003800
1c00fc00
1807c000
187f0000
18030000
18030000
1a030000
ff031800
187ffc00
18030000
18030000
18030000
18030000
18030600
18ffff00
18030000
18030000
1f030200
f8030200
e0030200
40030300
0003ff00
0001fe00
00000000
00000000
00000000
ENDCHAR
STARTCHAR 253b
ENCODING 9531
SWIDTH 1529 0
DWIDTH 26 0
BBX 26 27 0 -1
BITMAP
00000000
10200000
1c380000
18300000
18300c00
183ffe00
18600000
18400000
1a820000
ff038000
18030000
18030c00
187ffe00
18030c00
18030c00
18060c00
18060c00
180c0c00
1f0c0c00
fc180c00
f0300c00
40601800
00c03800
0181f000
06006000
00000000
00000000
ENDCHAR
STARTCHAR 253c
ENCODING 9532
SWIDTH 1529 0
DWIDTH 26 0
BBX 26 27 0 -1
BITMAP
00000000
00080000
080e0000
0e0c0000
0c0c0000
0c0c0000
0c180c00
0c1ffe00
0d183000
ffb43000
0c243000
0c443000
0c047000
0c066000
0c026000
0c026000
0c03c000
0c01c000
0fc18000
fe03c000
f8076000
400e3000
001c1c00
00300f00
01c00600
00000000
00000000
ENDCHAR
STARTCHAR 253d
ENCODING 9533
SWIDTH 1529 0
DWIDTH 26 0
BBX 26 27 0 -1
BITMAP
00000000
10100000
1c1c0000
18180000
18180600
181fff00
18300600
18300600
1a240600
ff470600
18060600
18060600
180c0600
180c0600
18188600
18184600
18306600
1821f600
1b7f3600
fe302600
f0000e00
40000c00
00001c00
0003f800
00003000
00000000
00000000
ENDCHAR
STARTCHAR 253e
ENCODING 9534
SWIDTH 1529 0
DWIDTH 26 0
BBX 26 27 0 -1
BITMAP
00000000
10100000
1c1c0000
18180000
18180000
18300600
183fff00
18366600
1a666600
ff666600
18466600
188c6600
180c6600
180cc600
1818c600
1818c600
18318600
18218600
1f430600
fc860600
f00c0e00
40180c00
00301c00
00c1f800
03003000
00000000
00000000
ENDCHAR
STARTCHAR 253f
ENCODING 9535
SWIDTH 1529 0
DWIDTH 26 0
BBX 26 27 0 -1
BITMAP
00000000
10100000
1c1c0000
18180600
1839ff00
18300600
18300600
1a640600
ff470600
18c60600
188c0600
19cc0600
18780600
18380600
18100600
18300600
18300600
1f640600
fc460600
f0c30600
409f0600
03f30600
01c20e00
01007c00
00001800
00000000
00000000
ENDCHAR
STARTCHAR 2540
ENCODING 9536
SWIDTH 1529 0
DWIDTH 26 0
BBX 26 27 0 -1
BITMAP
00000000
10000000
1c200c00
183ffe00
18300000
18300000
18300000
1a300c00
ff3ffe00
18340c00
18340c00
18340c00
18321800
18321800
18321000
18313000
1831a000
1960e000
1e61e000
f861b000
e0c31800
40c60c00
018c0f00
01180600
02600000
00000000
00000000
ENDCHAR
STARTCHAR 2541
ENCODING 9537
SWIDTH 1529 0
DWIDTH 26 0
BBX 26 27 0 -1
BITMAP
00000000
00100000
001c1000
00181c00
01983800
ffdce000
019b8000
01990000
0318c000
06186000
0c183000
18181c00
31f80f00
c0300600
00000000
00100000
001c0000
00183000
1ffff800
00180000
00180000
00180000
00180600
ffffff00
00000000
00000000
00000000
ENDCHAR
STARTCHAR 2542
ENCODING 9538
SWIDTH 1529 0
DWIDTH 26 0
BBX 26 27 0 -1
BITMAP
00000000
00006000
041ff000
07f84000
06184000
06186000
06186000
0c182000
0c183000
18181800
18181800
30180c00
60180f00
80100600
00000000
00100000
001c0000
00183000
1ffff800
00180000
00180000
00180000
00180600
ffffff00
00000000
00000000
00000000
ENDCHAR
STARTCHAR 2543
ENCODING 9539
SWIDTH 1529 0
DWIDTH 26 0
BBX 26 27 0 -1
BITMAP
00000000
00100000
001c0000
00180c00
7ffffe00
00180000
00181000
1ffff800
00000000
20000600
3fffff00
60000600
62000400
c3818800
4303c000
03070000
031c0000
03f00000
03001000
03001000
03001000
03001800
03fff800
01fff000
00000000
00000000
00000000
ENDCHAR
STARTCHAR 2544
ENCODING 9540
SWIDTH 1529 0
DWIDTH 26 0
BBX 26 27 0 -1
BITMAP
00000000
00100000
001c0000
00180c00
7ffffe00
00180000
00180000
00181000
1ffff800
00000000
00000000
20000600
3fffff00
60000600
60000400
c0820800
40e38000
00c30000
00c30200
01830200
01830200
03030300
0603ff00
1801fe00
e0000000
00000000
00000000
ENDCHAR
STARTCHAR 2545
ENCODING 9541
SWIDTH 1529 0
DWIDTH 26 0
BBX 26 27 0 -1
BITMAP
00000000
00100000
001c0000
00180600
ffffff00
00180000
00180000
00181800
3ffffc00
00000000
00000000
10001800
1ffffc00
18181800
18181800
18181800
1ffff800
18001000
18000000
30000000
30000000
20000000
60000000
40000000
80000000
00000000
00000000
ENDCHAR
STARTCHAR 2546
ENCODING 9542
SWIDTH 1529 0
DWIDTH 26 0
BBX 26 27 0 -1
BITMAP
00000000
00800000
00e00000
01c08000
03806000
06003000
0c03f800
3ffe1800
19861000
03060000
0607fc00
0d03fe00
31c00000
01806000
1bfff000
0f00e000
0700c000
0d818000
18630000
603e0000
003c0000
00f78000
0381f000
1c007f00
e0001c00
00000000
00000000
ENDCHAR
STARTCHAR 2547
ENCODING 9543
SWIDTH 1529 0
DWIDTH 26 0
BBX 26 27 0 -1
BITMAP
00000000
00100000
001c0000
00183000
1ffff800
00180000
00180000
00183000
1ffff800
00180000
00180000
00180600
ffffff00
01800000
03006000
33fff000
0e00e000
1f01c000
31c78000
c07e0000
003c0000
00778000
03c1f000
0f003f00
f0000c00
00000000
00000000
ENDCHAR
STARTCHAR 2548
ENCODING 9544
SWIDTH 1529 0
DWIDTH 26 0
BBX 26 27 0 -1
BITMAP
00000000
01000000
01c00000
03800000
03000000
46000c00
7ffffe00
60600c00
60600c00
60c0cc00
60ffec00
6180cc00
6301cc00
64c38c00
68630c00
60360c00
602c0c00
60180c00
60300c00
60600c00
61800c00
66000c00
7ffffc00
60000800
40000000
00000000
00000000
ENDCHAR
STARTCHAR 2549
ENCODING 9545
SWIDTH 1529 0
DWIDTH 26 0
BBX 26 27 0 -1
BITMAP
00000000
00100000
001c0000
00180000
00180600
ffffff00
00320000
00618000
00c0c000
03007000
0c001f00
3000c600
c3ffe000
00000000
00000000
00000c00
7ffffe00
00600000
00c10000
0180c000
03006000
0607f000
1ffc3800
1f801800
0c001800
00000000
00000000
ENDCHAR
STARTCHAR 254a
ENCODING 9546
SWIDTH 1529 0
DWIDTH 26 0
BBX 26 27 0 -1
BITMAP
00000000
00100000
001c0000
00180000
00180600
ffffff00
00340000
00620000
00c30000
01818000
0300c000
06107000
0c1c3c00
30180f00
c0186600
0ffff000
00180000
01190000
01d8c000
03986000
07183000
0c181800
18181c00
60180c00
00100000
00000000
00000000
ENDCHAR
STARTCHAR 254b
ENCODING 9547
SWIDTH 1529 0
DWIDTH 26 0
BBX 26 27 0 -1
BITMAP
00000000
20060000
38038000
3001c000
3000c000
32008600
333fff00
ffc00000
f3000000
33083000
330ff800
330c3000
330c3000
330c3000
630c3000
660c3000
f60c3000
5c0c3200
0e0c3200
1b0c3200
19983200
31983300
20303f00
40601e00
81800000
00000000
00000000
ENDCHAR
STARTCHAR 254c
ENCODING 9548
SWIDTH 1529 0
DWIDTH 26 0
BBX 26 27 0 -1
BITMAP
00000000
20041000
38071c00
30061800
30061800
32061a00
331fff00
ffc61800
f3061800
33061800
33061800
33061800
33061800
63061a00
633fff00
f6061800
5e061800
0f0c1800
0d8c1800
198c1800
19981800
30181800
20301800
40201800
80401000
00000000
00000000
ENDCHAR
STARTCHAR 254d
ENCODING 9549
SWIDTH 1529 0
DWIDTH 26 0
BBX 26 27 0 -1
BITMAP
00000000
20010000
3801c800
30018400
30018600
32018200
33018000
ffc18000
f33ffe00
33018000
33018000
33018000
73030000
63038000
6303e000
6606c000
f606c000
5e0cc000
0f0cc200
0d98c200
1998c200
3030c300
2060ff00
40c07e00
81000000
00000000
00000000
ENDCHAR
STARTCHAR 254e
ENCODING 9550
SWIDTH 1529 0
DWIDTH 26 0
BBX 26 27 0 -1
BITMAP
00000000
20020000
38038000
30030000
30030000
32031800
333ffc00
ffc31800
f3031800
33031800
33031800
33031800
33031800
63031a00
637fff00
66030000
f6034000
5c062000
0e061000
1b0c1800
198c0c00
31180e00
20300600
40600600
81800000
00000000
00000000
ENDCHAR
STARTCHAR 254f
ENCODING 9551
SWIDTH 1529 0
DWIDTH 26 0
BBX 26 27 0 -1
BITMAP
00000000
20080000
380e0000
300c0000
300c0000
32180000
33180600
ffdfff00
f3300600
33200600
33400600
33004600
331fe600
63000600
63000600
66000600
f6000600
5c004600
0f1fe600
1b800600
19800e00
31800c00
20001c00
4003f800
80007000
00000000
00000000
ENDCHAR
STARTCHAR 2550
ENCODING 9552
SWIDTH 1529 0
DWIDTH 26 0
BBX 26 27 0 -1
BITMAP
00000000
20001800
387ffc00
300c1800
300c1800
320c3000
330c3000
ffcc6000
f30c4c00
330ffe00
330c0c00
330e0c00
330e0c00
331a0c00
661b0c00
66191800
f6199800
5c30b000
0e30f000
1b306000
3360f000
3161b800
60c31c00
408c0f00
81100600
00000000
00000000
ENDCHAR
STARTCHAR 2551
ENCODING 9553
SWIDTH 1529 0
DWIDTH 26 0
BBX 26 27 0 -1
BITMAP
00000000
08003000
0ffff800
0c003000
0c003000
0c003000
0ffff000
0c003000
0c003000
0c003000
0ffff000
08802000
00e08000
00c0c600
ffffff00
0180c000
03018000
03030000
06060000
0ffe0000
043bc000
00e0f000
03803800
1c001c00
e0000c00
00000000
00000000
ENDCHAR
STARTCHAR 2552
ENCODING 9554
SWIDTH 1529 0
DWIDTH 26 0
BBX 26 27 0 -1
BITMAP
00000000
20101800
381ffc00
30181800
32181800
33181800
33181800
ff981a00
f37fff00
33181800
33181800
33181800
33181800
63181a00
637fff00
c6181800
f6181800
5c181800
0e181800
1b181800
19b01800
31b01800
20201800
4040f800
80803000
00000000
00000000
ENDCHAR
STARTCHAR 2553
ENCODING 9555
SWIDTH 1529 0
DWIDTH 26 0
BBX 26 27 0 -1
BITMAP
00000000
00100000
001c0000
10181000
1c181c00
18181800
18181800
3ffff800
10181000
00180000
00180c00
7ffffe00
00800000
00e08000
00c0c600
ffffff00
00c0c000
01818000
03018000
07e70000
007e0000
001b8000
0070e000
03803800
7c001800
00000000
00000000
ENDCHAR
STARTCHAR 2554
ENCODING 9556
SWIDTH 1529 0
DWIDTH 26 0
BBX 26 27 0 -1
BITMAP
00000000
20100000
38100600
303fff00
30300600
32600c00
33200800
ffc00000
f3083000
330ff800
330c3000
330c3000
330c3000
630c3000
630c3000
660c3000
f60c3000
5e0c3000
0f0c3200
0d8c3200
18d83200
18983300
30103f00
60201e00
80400000
00000000
00000000
ENDCHAR
STARTCHAR 2555
ENCODING 9557
SWIDTH 1529 0
DWIDTH 26 0
BBX 26 27 0 -1
BITMAP
00000000
20010000
3801c000
30018000
30018000
32118600
331fff00
ffd18600
f3318600
33318c00
33038800
3303e000
3303c000
3303c000
6303c000
6306c000
f606c000
5e06c000
0f06c200
0d8cc200
198cc200
1898c300
3030ff00
40607e00
81800000
00000000
00000000
ENDCHAR
STARTCHAR 2556
ENCODING 9558
SWIDTH 1529 0
DWIDTH 26 0
BBX 26 27 0 -1
BITMAP
00000000
20000000
38000600
307fff00
3000e000
3200c000
3300c000
ffc18000
f3018000
b3030000
33072000
33079000
330d9800
63198c00
66318600
66618700
fc818300
4e018200
0f018000
19818000
19818000
30018000
60018000
40018000
80010000
00000000
00000000
ENDCHAR
STARTCHAR 2557
ENCODING 9559
SWIDTH 1529 0
DWIDTH 26 0
BBX 26 27 0 -1
BITMAP
00000000
20003000
3800f800
3003c000
301f0000
32030000
33030000
ffc30000
f3031800
333ffc00
33030000
33030000
33030000
63030000
63030c00
667ffe00
f6030000
5e030000
0f030200
1b830200
19830200
30830300
2003ff00
4001fe00
80000000
00000000
00000000
ENDCHAR
STARTCHAR 2558
ENCODING 9560
SWIDTH 1529 0
DWIDTH 26 0
BBX 26 27 0 -1
BITMAP
00000000
00600000
00380000
00180600
ffffff00
01818000
00c30000
00660000
003c0000
00770000
01c3e000
0f00ff00
f0001e00
0000c000
0fffe000
00038000
001e0000
00180000
00180600
ffffff00
00180000
00180000
00180000
01f80000
00300000
00000000
00000000
ENDCHAR
STARTCHAR 2559
ENCODING 9561
SWIDTH 1529 0
DWIDTH 26 0
BBX 26 27 0 -1
BITMAP
00000000
00600000
00300000
20380000
20100600
7fffff00
60000600
c0000c00
c0600800
00380000
00180000
00103000
1ffff800
00007000
0000e000
00038000
000e0000
00380000
00e00000
03800000
3f000000
3be00000
00ffff00
001ffc00
00000000
00000000
00000000
ENDCHAR
STARTCHAR 255a
ENCODING 9562
SWIDTH 1529 0
DWIDTH 26 0
BBX 26 27 0 -1
BITMAP
00000000
00600000
00300000
20380000
20100600
3fffff00
60000600
60000c00
e0600800
c0301000
00380000
00180000
00100600
ffffff00
00000000
00000000
01010000
01c0c000
03806000
07003800
0c001c00
18000e00
30000600
40000600
00000000
00000000
00000000
ENDCHAR
STARTCHAR 255b
ENCODING 9563
SWIDTH 1529 0
DWIDTH 26 0
BBX 26 27 0 -1
BITMAP
00000000
00400000
00300000
00380000
20180000
20100600
3fffff00
60000600
e0000c00
c1020c00
01c10800
03818000
0700c000
0e207000
18383800
30701e00
40600c00
00c20000
01818000
0300c000
06006000
0c0ff000
1ff83800
1f803800
0c001000
00000000
00000000
ENDCHAR
STARTCHAR 255c
ENCODING 9564
SWIDTH 1529 0
DWIDTH 26 0
BBX 26 27 0 -1
BITMAP
00000000
00001000
18001c00
0c001800
0e001800
06001800
04601800
fff01800
00c01a00
00dfff00
20c01800
30c01800
19841800
19861800
0d831800
0f039800
07019800
07011800
0d801800
0cc01800
18e01800
30601800
20601800
4001f800
80007000
00000000
00000000
ENDCHAR
STARTCHAR 255d
ENCODING 9565
SWIDTH 1529 0
DWIDTH 26 0
BBX 26 27 0 -1
BITMAP
00000000
00100000
001c0000
00183000
1ffff800
00300000
00303000
1ffff800
00600000
00600c00
7ffffe00
00c0c000
0180c000
0180c000
0300c600
ffffff00
0c00c000
1980c000
30c0c000
c0e0c000
0060c000
0040c000
0000c000
000fc000
00038000
00000000
00000000
ENDCHAR
STARTCHAR 255e
ENCODING 9566
SWIDTH 1529 0
DWIDTH 26 0
BBX 26 27 0 -1
BITMAP
00000000
0001e000
0007f000
007e0000
03e01000
3e201c00
00181800
080c3000
06062000
03044000
01808000
0100e000
0000c000
0000c600
7fffff00
0000c000
0c00c000
0700c000
0380c000
0180c000
0100c000
0000c000
0000c000
001fc000
00038000
00000000
00000000
ENDCHAR
STARTCHAR 255f
ENCODING 9567
SWIDTH 1529 0
DWIDTH 26 0
BBX 26 27 0 -1
BITMAP
00000000
00180000
fffc0000
18c00c00
18dffe00
18c0c000
18c0c000
18c0c000
18c0c000
18c0c800
18cffc00
18c0c000
18c0c000
18c0c000
18c0c000
18c0c000
18c0c600
30dfff00
30c00000
30c00200
30c00200
60c00300
60ffff00
407ffe00
80000000
00000000
00000000
ENDCHAR
STARTCHAR 2560
ENCODING 9568
SWIDTH 1529 0
DWIDTH 26 0
BBX 26 27 0 -1
BITMAP
00000000
08008000
0e00e000
0c00c000
0c00c000
0c10c600
8c9fff00
ecd8c600
ccd8c600
ccd8c600
ccd8c600
ccd8c600
ccd8c600
ccd8c600
ccd8c600
ccdffe00
ccd0c400
ccc0c000
ccc0c000
ffc0c000
8080c000
0000c000
0000c000
0000c000
00008000
00000000
00000000
ENDCHAR
STARTCHAR 2561
ENCODING 9569
SWIDTH 1529 0
DWIDTH 26 0
BBX 26 27 0 -1
BITMAP
00000000
08040600
0e07ff00
0c060600
0c060600
0c060600
8c860600
ece60600
ccc7fe00
ccc60600
ccc60600
ccc60600
ccc60600
ccc60600
ccc7fe00
ccc60600
ccc60600
ccc60600
ccc60600
ffc60600
808c0600
000c0600
00180600
00107e00
00201c00
00000000
00000000
ENDCHAR
STARTCHAR 2562
ENCODING 9570
SWIDTH 1529 0
DWIDTH 26 0
BBX 26 27 0 -1
BITMAP
00000000
08006000
0e042000
0c073000
0c061000
0c061800
8c8c0800
ecec0c00
ccc80600
ccd80700
ccd00200
ccd00c00
cceffe00
ccc30c00
ccc30c00
ccc30c00
ccc30c00
ccc60c00
ccc60c00
ffcc0c00
808c0c00
00180c00
00301800
0061f800
00807000
00000000
00000000
ENDCHAR
STARTCHAR 2563
ENCODING 9571
SWIDTH 1529 0
DWIDTH 26 0
BBX 26 27 0 -1
BITMAP
00000000
00100000
001c0000
20180800
38180e00
30180c00
30180c00
7ffffc00
20000800
00000000
1ffff800
18181800
18181800
18181800
18181800
1ffff800
18001000
18000000
18000200
18000200
18000200
18000300
1fffff00
0ffffe00
00000000
00000000
00000000
ENDCHAR
STARTCHAR 2564
ENCODING 9572
SWIDTH 1529 0
DWIDTH 26 0
BBX 26 27 0 -1
BITMAP
00000000
00100000
101c1000
1c181c00
18181800
18181800
3ffff800
10601000
00380000
001c0000
00080600
ffffff00
0200e000
0100c000
0180c000
00818000
00c30000
00660000
003c0000
001c0000
00770000
00e3c000
0380f000
1e003f00
e0000e00
00000000
00000000
ENDCHAR
STARTCHAR 2565
ENCODING 9573
SWIDTH 1529 0
DWIDTH 26 0
BBX 26 27 0 -1
BITMAP
00000000
00040000
08030000
0e018000
0c01c000
0c008600
0c3fff00
8c881800
ece81800
ccc81800
cccc1800
cccc1800
ccc43000
ccc43000
ccc63000
ccc66000
ccc26000
ccc3c000
ccc18000
ffc3c000
c0c76000
808c3800
00181c00
00300f00
00c00600
00000000
00000000
ENDCHAR
STARTCHAR 2566
ENCODING 9574
SWIDTH 1529 0
DWIDTH 26 0
BBX 26 27 0 -1
BITMAP
00000000
10000000
1c200600
183fff00
18300000
18300000
18300000
99300c00
d9bffe00
99340c00
99340c00
99320c00
99321800
99331800
99311800
9931b000
9931b000
9930e000
9960e000
ff60e000
8161b000
80c31800
00861c00
010c0f00
02300600
00000000
00000000
ENDCHAR
STARTCHAR 2567
ENCODING 9575
SWIDTH 1529 0
DWIDTH 26 0
BBX 26 27 0 -1
BITMAP
00000000
00007800
0007fc00
107f8000
1fc00000
18000000
18000600
1fffff00
18000000
18000000
19000600
19ffff00
19830600
19830600
19830600
19830600
39fffe00
31800600
31800000
31800200
21800200
61800300
41ffff00
80fffe00
00000000
00000000
00000000
ENDCHAR
STARTCHAR 2568
ENCODING 9576
SWIDTH 1529 0
DWIDTH 26 0
BBX 26 27 0 -1
BITMAP
00000000
08006000
0e022000
0c03b000
0c031000
8cc71800
ffe61800
ccce0c00
cccc0e00
ccd80700
ccd00200
cce00c00
ccdffe00
ccc30c00
ccc30c00
ccc30c00
ccc30c00
cdc60c00
8c860c00
0c060c00
0c0c0c00
0c0c0c00
0c181800
0c30f800
08c03000
00000000
00000000
ENDCHAR
STARTCHAR 2569
ENCODING 9577
SWIDTH 1529 0
DWIDTH 26 0
BBX 26 27 0 -1
BITMAP
00000000
0800e000
0e00c000
0c01e000
0c01a000
8cc33000
ffe71000
ccc61800
cccc0c00
ccd80e00
ccd00700
cce41a00
ccc71800
ccc61800
ccc61800
ccc61800
ccc61800
cdc61800
8c861800
0c0c1800
0c0c1800
0c181800
0c181800
0c101800
08201000
00000000
00000000
ENDCHAR
STARTCHAR 256a
ENCODING 9578
SWIDTH 1529 0
DWIDTH 26 0
BBX 26 27 0 -1
BITMAP
00000000
00100000
001c1000
00189c00
0fffd800
00183000
00186000
0019c600
ffffff00
000e0000
00380000
00e80000
038e0000
0e0c1800
3ffffc00
e60c1800
060c1800
060c1800
060c1800
060c1800
060df800
040c7000
000c0000
000c0000
00080000
00000000
00000000
ENDCHAR
STARTCHAR 256b
ENCODING 9579
SWIDTH 1529 0
DWIDTH 26 0
BBX 26 27 0 -1
BITMAP
00000000
00078000
207fc000
3ff80000
30180000
30181800
3ffffc00
300c0000
30060000
30060400
30730400
33c1c400
3f10f600
3c1c3e00
10180c00
00180000
1ffff800
18181800
18181800
18181800
18181800
1819f800
10187000
00180000
00100000
00000000
00000000
ENDCHAR
STARTCHAR 256c
ENCODING 9580
SWIDTH 1529 0
DWIDTH 26 0
BBX 26 27 0 -1
BITMAP
00000000
00300000
001c0000
200c0600
3fffff00
30100000
301c8000
30186000
30183000
30183200
37ffff00
30180000
30182000
301c3800
300c7000
300c6000
300ec000
30078000
30070200
300f8200
601dc200
6070e200
41c07b00
4f001f00
80000600
00000000
00000000
ENDCHAR
STARTCHAR 256d
ENCODING 9581
SWIDTH 1529 0
DWIDTH 26 0
BBX 26 27 0 -1
BITMAP
00000000
00300000
001c0000
200c0600
3fffff00
30000000
30040000
30070000
30060000
30060000
30060000
30061800
31fffc00
30060000
30060000
30068000
30066000
30063000
30061800
60061800
40060000
40060600
87ffff00
80000000
00000000
00000000
00000000
ENDCHAR
STARTCHAR 256e
ENCODING 9582
SWIDTH 1529 0
DWIDTH 26 0
BBX 26 27 0 -1
BITMAP
00000000
00300000
001c0000
200c0600
3fffff00
30000000
30000000
30007000
3103f800
31fe0000
31800000
31800c00
31fffe00
31800c00
31800c00
31800c00
31fffc00
31800800
31800000
61800000
63000000
63000000
46000000
8c000000
90000000
00000000
00000000
ENDCHAR
STARTCHAR 256f
ENCODING 9583
SWIDTH 1529 0
DWIDTH 26 0
BBX 26 27 0 -1
BITMAP
00000000
00600000
00380000
00180c00
7ffffe00
00400000
00600000
00c04000
01803000
03001800
0607fc00
1ffc0c00
0f000800
00810000
00e1c000
00c18000
00c18600
ffffff00
01818000
01818000
03018000
06018000
0c018000
18018000
60010000
00000000
00000000
ENDCHAR
STARTCHAR 2570
ENCODING 9584
SWIDTH 1529 0
DWIDTH 26 0
BBX 26 27 0 -1
BITMAP
00000000
01810000
7fc1c000
01818000
01818000
01818000
01818600
41bfff00
7f830000
61030000
60030000
60034000
60067000
c1866000
ffc66000
c18cc000
018cc000
018cc800
01998c00
01998600
03b30600
03321f00
0767f300
7e4f0300
0c840200
00000000
00000000
ENDCHAR
STARTCHAR 2571
ENCODING 9585
SWIDTH 1529 0
DWIDTH 26 0
BBX 26 27 0 -1
BITMAP
00000000
03080000
ff8e0000
030c0000
030c0000
030c0000
03180c00
431ffe00
7f318c00
62218c00
60418800
60019000
c0018000
c1818000
ffc3c000
81834000
01836000
01862000
01863000
03861800
030c1800
030c0c00
06180e00
3e300700
0cc00200
00000000
00000000
ENDCHAR
STARTCHAR 2572
ENCODING 9586
SWIDTH 1529 0
DWIDTH 26 0
BBX 26 27 0 -1
BITMAP
00000000
18000800
0c000e00
0e001c00
06003800
04187000
fffcc000
20618800
20620e00
20601c00
30603800
10c06000
10c0c000
18c18000
09860400
09800f00
0d001c00
07007000
0600c000
0d030000
0d8c0000
18e00000
307fff00
601ffc00
80000000
00000000
00000000
ENDCHAR
STARTCHAR 2573
ENCODING 9587
SWIDTH 1529 0
DWIDTH 26 0
BBX 26 27 0 -1
BITMAP
00000000
10040000
1c030000
18018000
1800c000
1800c000
1c000000
5a100000
5b1c0000
5b180000
d8181800
d8580c00
d8580600
18d80600
18980700
19980300
19980300
1b181200
1b181000
18181000
18181000
18181800
181ff800
180ff000
10000000
00000000
00000000
ENDCHAR
STARTCHAR 2574
ENCODING 9588
SWIDTH 1529 0
DWIDTH 26 0
BBX 26 27 0 -1
BITMAP
00000000
10020000
1c038000
18032000
18031800
18030c00
1c030c00
5a030000
5b030600
5b7fff00
d8030000
d8030000
d8030000
98038000
1807e000
1806c000
1806c000
180cc000
180cc200
180cc200
1818c200
1818c300
1830ff00
18607e00
10800000
00000000
00000000
ENDCHAR
STARTCHAR 2575
ENCODING 9589
SWIDTH 1529 0
DWIDTH 26 0
BBX 26 27 0 -1
BITMAP
00000000
10100000
1c1c0000
18180000
18180c00
183ffe00
1c300000
5a200000
5b601800
5b4ffc00
d8800000
d8000000
d8003000
183ff800
18007000
1800c000
18018000
18070000
180c0200
18180200
18300200
18300300
183fff00
181ffe00
10000000
00000000
00000000
ENDCHAR
STARTCHAR 2576
ENCODING 9590
SWIDTH 1529 0
DWIDTH 26 0
BBX 26 27 0 -1
BITMAP
00000000
10020000
1c038000
18030000
18068000
18064000
5c0c6000
5a183000
5b183800
db301c00
d8600e00
d8c84700
190e7200
180c6000
180c6000
180c6000
180c6000
181c6000
18186000
18186000
18306000
18306000
18606000
18406000
10804000
00000000
00000000
ENDCHAR
STARTCHAR 2577
ENCODING 9591
SWIDTH 1529 0
DWIDTH 26 0
BBX 26 27 0 -1
BITMAP
00000000
00300000
001c0000
000c0000
20080600
3fffff00
30000000
30000000
30100000
300c0000
30070000
30238000
30398000
30300000
30301000
31300c00
31300600
33300700
33301300
67301300
66301000
46301800
403ff800
801ff000
00000000
00000000
00000000
ENDCHAR
STARTCHAR 2578
ENCODING 9592
SWIDTH 1529 0
DWIDTH 26 0
BBX 26 27 0 -1
BITMAP
00000000
0003c000
007ff000
1ff80000
00180000
00180000
00180c00
7ffffe00
00180000
00180000
00180000
00180000
00100000
00200000
02180000
038c2000
130e1800
13060c00
33044600
33004600
63004300
e3006300
c3ffe000
01ffc000
00000000
00000000
00000000
ENDCHAR
STARTCHAR 2579
ENCODING 9593
SWIDTH 1529 0
DWIDTH 26 0
BBX 26 27 0 -1
BITMAP
00000000
100c0000
1c070000
18038000
18018000
18010600
1cffff00
5a0c0000
5b0c0000
5b0c0000
d80c1800
d80ffc00
d80c1800
180c1800
180c1800
180c1800
180c1800
18181800
18181800
18181800
18301800
18301800
18603800
18c3f000
1100e000
00000000
00000000
ENDCHAR
STARTCHAR 257a
ENCODING 9594
SWIDTH 1529 0
DWIDTH 26 0
BBX 26 27 0 -1
BITMAP
00000000
100c0000
1c070000
18038000
18018000
18010600
1c7fff00
5a000000
5b000000
db103000
d91ff800
d8183000
98183000
18183000
18183000
18183000
18183000
18183200
18303200
18303200
18603200
18603300
18c03f00
19801e00
12000000
00000000
00000000
ENDCHAR
STARTCHAR 257b
ENCODING 9595
SWIDTH 1529 0
DWIDTH 26 0
BBX 26 27 0 -1
BITMAP
00000000
100c0000
1c060000
18070000
18030000
18020c00
1cfffe00
5a103000
5b103000
5b103000
d8183000
d8087000
d8086000
180c6000
1804c000
1806c000
1802c000
18038000
18018000
18038000
1806c000
180c6000
18183800
18301f00
10c00c00
00000000
00000000
ENDCHAR
STARTCHAR 257c
ENCODING 9596
SWIDTH 1529 0
DWIDTH 26 0
BBX 26 27 0 -1
BITMAP
00000000
10000c00
1c3ffe00
18000c00
18001800
18083000
1c066000
5a038000
5b01c000
5b00c600
d87fff00
d8018600
d8018600
18018c00
18018800
18019000
18018000
18018000
18018000
18018000
18018000
18018000
18018000
181f8000
10030000
00000000
00000000
ENDCHAR
STARTCHAR 257d
ENCODING 9597
SWIDTH 1529 0
DWIDTH 26 0
BBX 26 27 0 -1
BITMAP
00000000
10000000
1c001800
183ffc00
18000000
18000000
1c000000
5a000000
5b000000
5b000000
d9000600
d8ffff00
d8040000
18070000
18060000
18060000
180c2000
180c1000
18181800
18180c00
18300c00
18207e00
187f8e00
18780600
10200400
00000000
00000000
ENDCHAR
STARTCHAR 257e
ENCODING 9598
SWIDTH 1529 0
DWIDTH 26 0
BBX 26 27 0 -1
BITMAP
00000000
10020000
1c038000
18033000
18031c00
18030e00
1c030400
5a030000
5b030600
5b7fff00
d8030000
d8030000
d8070000
18068000
18068000
180ec000
180c4000
181c6000
18183000
18383000
18301800
18600c00
18c00e00
19800700
12000200
00000000
00000000
ENDCHAR
STARTCHAR 2621
ENCODING 9761
SWIDTH 1529 0
DWIDTH 26 0
BBX 26 27 0 -1
BITMAP
00000000
10020000
1c038000
18030000
18030000
18030000
1c030000
5a030000
5b030600
5b7fff00
db070000
d8070000
d8068000
18068000
180cc000
180c4000
180c6000
18182000
181c3000
18361800
18331800
18638c00
18c18e00
19800700
12000200
00000000
00000000
ENDCHAR
STARTCHAR 2622
ENCODING 9762
SWIDTH 1529 0
DWIDTH 26 0
BBX 26 27 0 -1
BITMAP
00000000
10040000
1c070000
18060000
18063000
18fff800
18063000
5e063000
5b063000
598c3200
d98c3200
d8183300
d8303f00
18621e00
19838000
18030000
18030600
19ffff00
18030000
18030000
18030000
18030000
18030000
18030000
10020000
00000000
00000000
ENDCHAR
STARTCHAR 2623
ENCODING 9763
SWIDTH 1529 0
DWIDTH 26 0
BBX 26 27 0 -1
BITMAP
00000000
10000000
1c000000
18001800
187ffc00
18030000
1c030000
5a030000
5b030000
5b030000
d8030000
d8030000
d8030c00
18fffe00
18030000
18030000
18030000
18030000
18030000
18030000
18030000
18030000
18031800
187ffc00
10000000
00000000
00000000
ENDCHAR
STARTCHAR 2624
ENCODING 9764
SWIDTH 1529 0
DWIDTH 26 0
BBX 26 27 0 -1
BITMAP
00000000
10000000
1c008000
1810c000
181c4000
18186000
1c182000
5a303000
5b301800
5b600c00
d8c00e00
d9003700
dafff200
180c3000
180c3000
180c3000
18183000
18183000
18183000
18303000
18307000
18606000
1860e000
18cfc000
11018000
00000000
00000000
ENDCHAR
STARTCHAR 2625
ENCODING 9765
SWIDTH 1529 0
DWIDTH 26 0
BBX 26 27 0 -1
BITMAP
00000000
00044000
00073000
00061800
00061800
00060200
ffffff00
00060000
00060000
00060400
00030700
20630600
3ff30c00
30630c00
30619800
3061b000
3061e000
3060c000
3060c200
3fe1e200
30436200
20063200
000c3b00
00301f00
00c00600
00000000
00000000
ENDCHAR
STARTCHAR 2626
ENCODING 9766
SWIDTH 1529 0
DWIDTH 26 0
BBX 26 27 0 -1
BITMAP
00000000
00042000
00073000
00061800
00061c00
00060800
ffffff00
00060000
00060000
04060400
07060700
0e030e00
0c030c00
18431800
30619800
6061b000
fff1e000
7030c000
0020c200
0001e200
01e36200
ff063200
780c1b00
40300f00
00c00600
00000000
00000000
ENDCHAR
STARTCHAR 2627
ENCODING 9767
SWIDTH 1529 0
DWIDTH 26 0
BBX 26 27 0 -1
BITMAP
00000000
00044000
00073000
00061c00
00060c00
20060200
3fffff00
30060000
30060000
30061000
30361c00
3ffb1800
31831800
31833000
31833000
31816000
3181e000
3181c000
3181c200
21836200
6f866200
430c3200
40181b00
80600f00
01800600
00000000
00000000
ENDCHAR
STARTCHAR 2628
ENCODING 9768
SWIDTH 1529 0
DWIDTH 26 0
BBX 26 27 0 -1
BITMAP
00000000
0001e000
20fff800
3fc00000
30000000
30001800
3ffffc00
30001800
30001800
30001800
3ffff800
30001800
30080000
300e0000
300c0c00
37fffe00
300c0000
301c0000
301a0000
30330000
2061c000
60c07000
43803c00
8e001f00
30000600
00000000
00000000
ENDCHAR
STARTCHAR 2629
ENCODING 9769
SWIDTH 1529 0
DWIDTH 26 0
BBX 26 27 0 -1
BITMAP
00000000
00c20c00
7fe3fe00
00c30000
00c30000
00c30000
20c30c00
3fc3fe00
30c30c00
30c30c00
30c30c00
30c30c00
30c30c00
30c30c00
30c30c00
7fc3fc00
20c30800
00c30000
00c30000
01830000
01830000
03030000
06030000
0c030000
30020000
00000000
00000000
ENDCHAR
STARTCHAR 262a
ENCODING 9770
SWIDTH 1529 0
DWIDTH 26 0
BBX 26 27 0 -1
BITMAP
00000000
08000000
0e000000
0c000c00
0c3ffe00
0c818000
ffc18000
0c018000
0c018000
0c018000
0c018000
0c018000
0cc18c00
0f3ffe00
fc018000
6c018000
0c018000
0c018000
0c018000
0c018000
0c018000
0c018000
0c018600
7cffff00
18000000
00000000
00000000
ENDCHAR
STARTCHAR 262b
ENCODING 9771
SWIDTH 1529 0
DWIDTH 26 0
BBX 26 27 0 -1
BITMAP
00000000
08000000
0e000c00
0c1ffe00
0c186000
0c986000
ffd86000
0c186000
0c186000
0c186000
0c306000
0c306600
0c3fff00
0f80e000
fc01e000
6c01e000
0c036000
0c066000
0c0c6000
0c186000
0c306000
0c606000
0c806000
7d07e000
1801c000
00000000
00000000
ENDCHAR
STARTCHAR 262c
ENCODING 9772
SWIDTH 1529 0
DWIDTH 26 0
BBX 26 27 0 -1
BITMAP
00000000
08010000
0e01d000
0c018c00
0c018600
0c818200
7fc18000
0c018000
0c018000
0cffff00
0c018000
0c018000
0c03c000
0f834000
fc034000
6c066000
0c062000
0c0c3000
0c0c1000
0c181800
0c300800
0c300c00
0c600600
7cc00700
19000200
00000000
00000000
ENDCHAR
STARTCHAR 262d
ENCODING 9773
SWIDTH 1529 0
DWIDTH 26 0
BBX 26 27 0 -1
BITMAP
00000000
08003800
0e00fc00
0c07e000
0c3f0000
0c830000
7fc30000
0c030000
0c031800
0c3ffc00
0c030000
0c030000
0c030000
0f830000
fc030c00
6c7ffe00
0c030000
0c030000
0c030200
0c030200
0c030200
0c030300
0c03ff00
7c01fe00
18000000
00000000
00000000
ENDCHAR
STARTCHAR 262e
ENCODING 9774
SWIDTH 1529 0
DWIDTH 26 0
BBX 26 27 0 -1
BITMAP
00000000
08080800
0e0e0e00
0c0c0c00
0c0c0c00
0c0c0c00
0d8c0c00
ffcc0c00
0c0ffc00
0c0c0800
0c0c0000
0c0c0000
0dcc0c00
1f0ffe00
fc0c0c00
6c0c0c00
0c0c0c00
0c180c00
0c180c00
0c180c00
0c300c00
0c300c00
0c600c00
7c400c00
18800800
00000000
00000000
ENDCHAR
STARTCHAR 262f
ENCODING 9775
SWIDTH 1529 0
DWIDTH 26 0
BBX 26 27 0 -1
BITMAP
00000000
10000000
1c030000
1801c000
1800e000
19006000
ff804000
18080000
180e0000
180c0000
180c0000
180c1000
184c0c00
1f4c0600
f8cc0600
d88c0300
198c0300
198c1300
1b8c1000
1b0c1000
180c1800
180c1800
180ff800
f807f000
30000000
00000000
00000000
ENDCHAR
STARTCHAR 2630
ENCODING 9776
SWIDTH 1529 0
DWIDTH 26 0
BBX 26 27 0 -1
BITMAP
00000000
100c0000
1c070000
18038000
18018000
1a010600
ff7fff00
180c0000
180c0000
180c0000
180c1800
180ffc00
180c1800
1f0c1800
f80c1800
d80c1800
180c1800
18181800
18181800
18181800
18301800
18301800
18603800
f8c3f000
3100e000
00000000
00000000
ENDCHAR
STARTCHAR 2631
ENCODING 9777
SWIDTH 1529 0
DWIDTH 26 0
BBX 26 27 0 -1
BITMAP
00000000
10100c00
1c1ffe00
18180c00
18180c00
1b180c00
ff980c00
18180c00
18180c00
18180c00
181ffc00
18190800
18190000
1f198000
f8188000
d8188000
1830c000
18304000
18306000
18603000
18603800
18c01c00
18800f00
f9000600
32000000
00000000
00000000
ENDCHAR
STARTCHAR 2632
ENCODING 9778
SWIDTH 1529 0
DWIDTH 26 0
BBX 26 27 0 -1
BITMAP
00000000
08100c00
0e1ffe00
0c180c00
0c180c00
0c980c00
ffd80c00
0c180c00
0c187c00
0c181800
0c180000
0c180c00
0c9ffe00
0f190c00
fc190c00
6c191800
0c189800
0c18b000
0c18f000
0c186000
0c18f000
0c199800
0c1b1c00
7c1e0f00
18100400
00000000
00000000
ENDCHAR
STARTCHAR 2633
ENCODING 9779
SWIDTH 1529 0
DWIDTH 26 0
BBX 26 27 0 -1
BITMAP
00000000
10402000
1c703800
18603000
18603000
18603000
18603600
fe66ff00
19ff3600
18663600
18663600
18663600
1b663600
3c663600
f8666600
d8666600
1866c600
18e68e00
18c73c00
18c60800
19860200
19860200
1b07ff00
fa03fe00
34000000
00000000
00000000
ENDCHAR
STARTCHAR 2634
ENCODING 9780
SWIDTH 1529 0
DWIDTH 26 0
BBX 26 27 0 -1
BITMAP
00000000
10040000
1c070000
18060000
18060000
19060600
ffbfff00
180c0000
180c0000
180c0000
180c1800
181ffc00
1b181800
1e3c1800
f8341800
d8363000
18623000
18636000
18c1c000
18c1c000
19836000
19063000
1a0c1c00
f8380f00
30e00600
00000000
00000000
ENDCHAR
STARTCHAR 2635
ENCODING 9781
SWIDTH 1529 0
DWIDTH 26 0
BBX 26 27 0 -1
BITMAP
00000000
08001800
0e00fc00
0c07e000
0c3d8000
0c018000
0c818000
ffc18000
0c018c00
0c7ffe00
0c018000
0c018000
0d818000
1e018000
fc018600
6cffff00
0c018000
0c018000
0c018000
0c018000
0c018000
0c018000
0c018000
7c1f8000
18070000
00000000
00000000
ENDCHAR
STARTCHAR 2636
ENCODING 9782
SWIDTH 1529 0
DWIDTH 26 0
BBX 26 27 0 -1
BITMAP
00000000
10032000
1c0fb800
187c3000
180c3000
180c3000
190c3000
ff8c3000
180c3000
180c3000
180c3200
18ffff00
190c3000
1e0c3000
f80c3000
d80c3000
180c3000
18183000
18183000
18303000
18303000
18603000
18c03000
f9803000
32002000
00000000
00000000
ENDCHAR
STARTCHAR 2637
ENCODING 9783
SWIDTH 1529 0
DWIDTH 26 0
BBX 26 27 0 -1
BITMAP
00000000
10100000
1c1c0000
18180000
18300600
183fff00
18600600
fe600600
18c80600
188e0600
190c0600
180c0600
19180600
3e190600
f8188600
d830c600
18306600
1863e600
18fe3600
18702600
18000e00
18000c00
18001c00
f801f800
30003000
00000000
00000000
ENDCHAR
STARTCHAR 2638
ENCODING 9784
SWIDTH 1529 0
DWIDTH 26 0
BBX 26 27 0 -1
BITMAP
00000000
10200000
1c380000
18300600
1831ff00
18600600
1a600600
ff440600
18c70600
19860600
19cc0600
186c0600
18380600
1f180600
f8300600
d8300600
18640600
18660600
18c60600
199f0600
1bf30600
19c20600
18000e00
f800fc00
30001800
00000000
00000000
ENDCHAR
STARTCHAR 2639
ENCODING 9785
SWIDTH 1529 0
DWIDTH 26 0
BBX 26 27 0 -1
BITMAP
00000000
08020000
0e038000
0c030000
0c068000
0c86c000
ffcc6000
0c183000
0c303800
0c601c00
0cc00f00
0d040400
0c030000
0f818000
fc01c000
6c00c000
0c000000
0c000000
0c000000
0c040000
0c030000
0c018000
0c00c000
7c00e000
18006000
00000000
00000000
ENDCHAR
STARTCHAR 263a
ENCODING 9786
SWIDTH 1529 0
DWIDTH 26 0
BBX 26 27 0 -1
BITMAP
00000000
00040000
00070000
01860000
7fc60000
0c0c0000
0c0c0600
0c0fff00
0c181800
0c141800
0c241800
0c861800
ffc63000
0c023000
0c036000
0c036000
0c01c000
0c018000
0c01c000
0c036000
0c063000
0c0c3800
7c181c00
18300f00
00c00600
00000000
00000000
ENDCHAR
STARTCHAR 263b
ENCODING 9787
SWIDTH 1529 0
DWIDTH 26 0
BBX 26 27 0 -1
BITMAP
00000000
00600000
00380000
00180600
ffffff00
0200c000
01818000
00c30000
00660000
003c0000
00770000
01c1c000
07107800
3c1c1f00
e0182c00
0ffff000
00180000
00180000
00180c00
7ffffe00
00180000
00180000
00180000
00180000
00100000
00000000
00000000
ENDCHAR
STARTCHAR 263c
ENCODING 9788
SWIDTH 1529 0
DWIDTH 26 0
BBX 26 27 0 -1
BITMAP
00000000
00100000
861c0000
ff180000
c6300c00
c63ffe00
c6600000
c6400000
c6800000
c6006000
c63ff000
fe006000
c6006000
c600c000
c6018000
c6030000
c6060000
c60c0000
c6180200
fe300200
c4600200
80600300
007fff00
003ffe00
00000000
00000000
00000000
ENDCHAR
STARTCHAR 263d
ENCODING 9789
SWIDTH 1529 0
DWIDTH 26 0
BBX 26 27 0 -1
BITMAP
00000000
00002000
00003800
41803000
7fc03000
61803000
61803000
61803600
61bfff00
61803000
61803000
7f903000
61883000
618c3000
61863000
61863000
61803000
61803000
61803000
7f803000
61003000
40003000
00003000
0007f000
0000e000
00000000
00000000
ENDCHAR
STARTCHAR 263e
ENCODING 9790
SWIDTH 1529 0
DWIDTH 26 0
BBX 26 27 0 -1
BITMAP
00000000
08003000
0ffff800
0c003000
0c003000
0c003000
0ffff000
0c003000
0c003000
0c003000
0ffff000
08002000
00000000
00000600
ffffff00
00c30000
00c30000
00c30000
00c30000
01830000
01830000
03030000
0603fe00
1801ff00
60000000
00000000
00000000
ENDCHAR
STARTCHAR 263f
ENCODING 9791
SWIDTH 1529 0
DWIDTH 26 0
BBX 26 27 0 -1
BITMAP
00000000
10001800
1ffffc00
18001800
18001800
18001800
1ffff800
18001800
18001800
18001800
1ffff800
10001000
00200000
00380000
00300000
00300000
00303000
003ff800
00300000
00300000
00300000
00300000
00300600
ffffff00
00000000
00000000
00000000
ENDCHAR
STARTCHAR 2640
ENCODING 9792
SWIDTH 1529 0
DWIDTH 26 0
BBX 26 27 0 -1
BITMAP
00000000
10001800
1ffffc00
18001800
18001800
1ffff800
18001800
18001800
1ffff800
10001000
0000c000
07ffe000
0001c000
00030000
000e0000
00180000
00180600
ffffff00
00180000
00180000
00180000
00180000
00180000
01f80000
00300000
00000000
00000000
ENDCHAR
STARTCHAR 2641
ENCODING 9793
SWIDTH 1529 0
DWIDTH 26 0
BBX 26 27 0 -1
BITMAP
00000000
00201000
00380c00
00300700
20303300
3ffff800
30303000
30303000
30303000
3ffff000
30303000
30303000
30303000
3ffff000
30300000
20301000
00183c00
00187000
000dc000
00070200
000f8200
0038c200
01e07300
0f003f00
f0000e00
00000000
00000000
ENDCHAR
STARTCHAR 2642
ENCODING 9794
SWIDTH 1529 0
DWIDTH 26 0
BBX 26 27 0 -1
BITMAP
00000000
08000000
0e000c00
0c1ffe00
0c000c00
0c000c00
0c800c00
ffc00c00
0c080c00
0c0ffc00
1c0c0800
1e0c0000
1d0c0000
3d980600
2cdfff00
6cd00600
4c000600
8c000600
0c000600
0c000600
0c000e00
0c000c00
0c001c00
0c03f800
08007000
00000000
00000000
ENDCHAR
STARTCHAR 2643
ENCODING 9795
SWIDTH 1529 0
DWIDTH 26 0
BBX 26 27 0 -1
BITMAP
00000000
08010000
0e01c000
0c018000
0c018000
0c018000
0c818000
ffc18000
0c018000
0c11a000
1c1d9000
1e199800
1f198c00
3db18c00
2db18600
6c218600
4c618300
8c418300
0c818200
0c018000
0c018000
0c018000
0c018000
0c1f8000
08030000
00000000
00000000
ENDCHAR
STARTCHAR 2644
ENCODING 9796
SWIDTH 1529 0
DWIDTH 26 0
BBX 26 27 0 -1
BITMAP
00000000
08001800
0e003c00
0c01f000
0c1f8000
0c018000
0c818000
ffc18000
0c018000
0c018000
1c018000
1f018600
3dbfff00
2cc18000
6cc18000
4c018000
8c018000
0c018000
0c018200
0c018200
0c018200
0c018300
0c01ff00
0c00fe00
08000000
00000000
00000000
ENDCHAR
STARTCHAR 2645
ENCODING 9797
SWIDTH 1529 0
DWIDTH 26 0
BBX 26 27 0 -1
BITMAP
00000000
08000000
0e000600
0c3fff00
0c018600
0c018600
0c818600
ffc18600
0c018600
1c318600
1c1d8600
1f0f8600
3d878600
3cc18600
2cc30600
6c030600
4c030600
8c030600
0c060600
0c060600
0c0c0600
0c0c0600
0c180c00
0c107c00
08201800
00000000
00000000
ENDCHAR
STARTCHAR 2646
ENCODING 9798
SWIDTH 1529 0
DWIDTH 26 0
BBX 26 27 0 -1
BITMAP
00000000
08000000
0e003000
0c7ff800
0c0c3000
0c0c3000
0c8c3000
ffcc3000
0c0c3000
1c0c3000
1c0c3000
1f0d3000
3dbfb000
3ccc3000
2ccc3000
6c0c3000
4c0c3000
8c0c3200
0c0c3200
0c0c3200
0c0c3200
0c0c3300
0c0c3f00
0c0c1e00
08080000
00000000
00000000
ENDCHAR
STARTCHAR 2647
ENCODING 9799
SWIDTH 1529 0
DWIDTH 26 0
BBX 26 27 0 -1
BITMAP
00000000
10000c00
1ffffe00
18000c00
18000c00
18000c00
1ffffc00
18000800
18040000
18070000
18060000
18060c00
1bfffe00
18060000
18060000
18460000
30766000
30e63000
30c61800
61860c00
63060e00
c6060600
88060000
00060000
00040000
00000000
00000000
ENDCHAR
STARTCHAR 2648
ENCODING 9800
SWIDTH 1529 0
DWIDTH 26 0
BBX 26 27 0 -1
BITMAP
00000000
08001c00
0e01fe00
0c3f8000
0c018000
0c018000
0c818000
ffc18000
0c018000
0c018000
1c018600
1f7fff00
3d818000
3d818000
6c818000
4c018000
8c018000
0c018000
0c018000
0c018000
0c018000
0c018000
0c018000
0c018000
08010000
00000000
00000000
ENDCHAR
STARTCHAR 2649
ENCODING 9801
SWIDTH 1529 0
DWIDTH 26 0
BBX 26 27 0 -1
BITMAP
00000000
08080400
0e0e0700
0c0c8600
0c0ce600
0c8cc600
ffccc600
0c0cc600
0c0cc600
1c0cc600
1e0cc600
3d0cc600
2d8cc600
6cccc600
4c8cc600
cc0cc600
8c0cc600
0c18c600
0c18c600
0c18c600
0c18c600
0c308600
0c300600
0c200600
08400400
00000000
00000000
ENDCHAR
STARTCHAR 264a
ENCODING 9802
SWIDTH 1529 0
DWIDTH 26 0
BBX 26 27 0 -1
BITMAP
00000000
02000000
03800000
03003000
07fff800
06006000
0d80c000
18618000
30370000
401e0000
00778000
00e1e000
03907e00
0e1c1800
30180000
00180c00
7ffffe00
00180000
02190000
0398c000
07186000
0e183800
18181c00
30180c00
40100000
00000000
00000000
ENDCHAR
STARTCHAR 264b
ENCODING 9803
SWIDTH 1529 0
DWIDTH 26 0
BBX 26 27 0 -1
BITMAP
00000000
00004000
30007000
1c206000
0c186000
000e6000
00066000
02006000
c2006000
66606000
64386000
0c1c6000
0c0c6000
18086000
18006000
38006600
30ffff00
f0006000
70006000
60006000
60006000
30006000
30006000
30006000
30004000
00000000
00000000
ENDCHAR
STARTCHAR 264c
ENCODING 9804
SWIDTH 1529 0
DWIDTH 26 0
BBX 26 27 0 -1
BITMAP
00000000
18001800
0c7ffc00
06003800
04007000
00b0c000
808d8000
c0860000
61030000
61010600
037fff00
02030600
06030c00
06030800
0c031000
0c030000
1c030000
78030000
38030000
18030000
18030000
0c030000
0c030000
0c3f0000
0c060000
00000000
00000000
ENDCHAR
STARTCHAR 264d
ENCODING 9805
SWIDTH 1529 0
DWIDTH 26 0
BBX 26 27 0 -1
BITMAP
00000000
00000000
18003000
0e7ff800
060c3000
000c3000
000c3000
410c3000
610c3000
330c3000
320c3000
060c3000
060c3000
0dfffe00
0c183000
18183000
38183000
f8183000
70183000
30183000
38183000
18183000
18183600
1bffff00
18000000
00000000
00000000
ENDCHAR
STARTCHAR 264e
ENCODING 9806
SWIDTH 1529 0
DWIDTH 26 0
BBX 26 27 0 -1
BITMAP
00000000
00000600
18ffff00
0e018000
06018000
00018000
00218c00
013ffe00
61318c00
33318c00
32318c00
06318c00
06318c00
0c318c00
0c318c00
1c318c00
18318c00
78318c00
38318c00
30318c00
3031bc00
18219800
18018000
18018000
18010000
00000000
00000000
ENDCHAR
STARTCHAR 264f
ENCODING 9807
SWIDTH 1529 0
DWIDTH 26 0
BBX 26 27 0 -1
BITMAP
00000000
00040000
18074000
0e063000
06061800
00061800
01060000
01060c00
617ffe00
33060000
32060000
06061000
06061c00
0c061800
0c033000
1c033000
1803e000
7801c000
38018200
3003c200
3006c200
180c6200
18183a00
18601f00
19800600
00000000
00000000
ENDCHAR
STARTCHAR 2650
ENCODING 9808
SWIDTH 1529 0
DWIDTH 26 0
BBX 26 27 0 -1
BITMAP
00000000
30080000
180e0000
0c0c0000
080c0000
00180000
01180600
613fff00
33300600
32600600
02400600
06800600
0400c600
0c3fe600
0c000600
18000600
78000600
3000c600
303fe600
30000600
18000600
18000c00
18001c00
1803f800
18007000
00000000
00000000
ENDCHAR
STARTCHAR 2651
ENCODING 9809
SWIDTH 1529 0
DWIDTH 26 0
BBX 26 27 0 -1
BITMAP
00000000
00010000
3021c000
1c398000
0c318000
00318000
00618c00
027ffe00
c2618000
66c18000
64818000
0d018000
0c018000
18018000
18018600
18ffff00
30018000
30018000
f0018000
60018000
60018000
30018000
30018000
30018000
30010000
00000000
00000000
ENDCHAR
STARTCHAR 2652
ENCODING 9810
SWIDTH 1529 0
DWIDTH 26 0
BBX 26 27 0 -1
BITMAP
00000000
00100000
301c0000
1c180000
0c300000
00300600
003fff00
02600600
c2400600
66840600
65070600
0c060600
0c0c0600
180c0600
18190600
38188600
3030c600
f021e600
70ff6600
60706600
60000e00
30000c00
30001c00
3000f800
30003000
00000000
00000000
ENDCHAR
STARTCHAR 2653
ENCODING 9811
SWIDTH 1529 0
DWIDTH 26 0
BBX 26 27 0 -1
BITMAP
00000000
30020000
18038000
0c030000
08068000
0106c000
010c6000
c1183800
62301c00
62600f00
06c01600
053ff800
0c000000
0c000000
18001800
187ffc00
38001800
f0001800
70001800
30003000
30003000
18006000
18006000
1800c000
18008000
00000000
00000000
ENDCHAR
STARTCHAR 2654
ENCODING 9812
SWIDTH 1529 0
DWIDTH 26 0
BBX 26 27 0 -1
BITMAP
00000000
00600000
00300000
00380000
20100600
3fffff00
60000600
e0000c00
c0100800
001c0000
00181000
00181800
01983000
7fdc6000
019c8000
019a0000
019b0000
03198000
0318c000
06187000
0c183c00
18181f00
30180600
c1f80000
00300000
00000000
00000000
ENDCHAR
STARTCHAR 2655
ENCODING 9813
SWIDTH 1529 0
DWIDTH 26 0
BBX 26 27 0 -1
BITMAP
00000000
00100000
101c1000
1c181c00
18181800
18181800
18181800
3ffff800
10001000
00100000
001c0000
00181000
01983800
7fdc6000
019cc000
019a0000
031b0000
03198000
0618c000
0c186000
18183800
30181f00
60180c00
81f80000
00300000
00000000
00000000
ENDCHAR
STARTCHAR 2656
ENCODING 9814
SWIDTH 1529 0
DWIDTH 26 0
BBX 26 27 0 -1
BITMAP
00000000
00200c00
303ffe00
1c300c00
0c300c00
00300c00
00300c00
02300c00
c2300c00
66300c00
643ffc00
0c320800
0c320000
18330000
18330000
38318000
30718000
f060c000
7060c000
60c06000
60c07000
31803800
31001e00
32000f00
34000400
00000000
00000000
ENDCHAR
STARTCHAR 2657
ENCODING 9815
SWIDTH 1529 0
DWIDTH 26 0
BBX 26 27 0 -1
BITMAP
00000000
60004000
30007000
18806400
10e06700
00c06600
02c06600
c2d0c600
66c8c600
64ccc600
04c6c600
0cc38600
08c38600
18c38600
18c6c600
30c66600
f0cc6600
60cc3600
60d83600
60d00600
30e00600
30c00600
31fffe00
30800400
30000000
00000000
00000000
ENDCHAR
STARTCHAR 2658
ENCODING 9816
SWIDTH 1529 0
DWIDTH 26 0
BBX 26 27 0 -1
BITMAP
00000000
00080000
300e0000
1c0c0000
0c1c0000
00180000
00180600
023fff00
c2381800
66681800
64481800
0c883800
0d0c3000
18043000
18046000
38066000
3002c000
f003c000
70018000
6003c000
6006e000
300c7000
30183c00
30601f00
31800600
00000000
00000000
ENDCHAR
STARTCHAR 2659
ENCODING 9817
SWIDTH 1529 0
DWIDTH 26 0
BBX 26 27 0 -1
BITMAP
00000000
30103000
181ff800
0c183000
08183000
00183000
02183000
c2303000
64303e00
64601f00
0cc00000
09000000
1a001800
187ffc00
30101800
30103800
70183000
f0086000
600cc000
60078000
60070000
300dc000
3018f000
30603f00
33800e00
00000000
00000000
ENDCHAR
STARTCHAR 265a
ENCODING 9818
SWIDTH 1529 0
DWIDTH 26 0
BBX 26 27 0 -1
BITMAP
00000000
00080000
300e0000
1c0c0000
0c1c0000
00180c00
013ffe00
03330c00
c2630c00
66430800
64831000
0c030000
0c038000
18078000
18068000
3806c000
300cc000
f00c6000
70186000
60183000
60303000
30601800
30c01c00
31800f00
36000600
00000000
00000000
ENDCHAR
STARTCHAR 265b
ENCODING 9819
SWIDTH 1529 0
DWIDTH 26 0
BBX 26 27 0 -1
BITMAP
00000000
00000c00
60007e00
3843c000
187e0000
00600000
02600000
02600600
c27fff00
64600600
64600600
0c600600
08600600
18600600
187ffe00
10600400
30600000
30c00000
f0c00000
60c00000
61800000
61800000
33000000
32000000
34000000
00000000
00000000
ENDCHAR
STARTCHAR 265c
ENCODING 9820
SWIDTH 1529 0
DWIDTH 26 0
BBX 26 27 0 -1
BITMAP
00000000
00003800
3043fc00
1c7f4000
0c664000
00664000
00664000
02664000
c2664000
66664000
64664000
0c666000
0c666000
18666000
18666000
38663000
30663000
f0c63000
70c61800
60c61800
61860c00
31860e00
33060600
32060700
34040200
00000000
00000000
ENDCHAR
STARTCHAR 265d
ENCODING 9821
SWIDTH 1529 0
DWIDTH 26 0
BBX 26 27 0 -1
BITMAP
00000000
0000c000
18006000
0c006000
06082000
060e3000
008c3000
c08c1000
61981800
31181800
33300c00
02320e00
06638700
06430200
0c830000
0c060000
18060000
f80c3000
700c1800
30180c00
30180c00
1830fe00
187f8600
187c0600
18300600
00000000
00000000
ENDCHAR
STARTCHAR 265e
ENCODING 9822
SWIDTH 1529 0
DWIDTH 26 0
BBX 26 27 0 -1
BITMAP
00000000
08000000
0e001c00
0c007e00
0c03f000
8c9f0000
cce30000
4cc30000
6d830000
6d030000
6e030000
0c030600
0c7fff00
0c030000
0c030000
0c030000
0e030000
0d030000
19830200
19c30200
18c30200
30830300
2003ff00
4001fe00
80000000
00000000
00000000
ENDCHAR
STARTCHAR 265f
ENCODING 9823
SWIDTH 1529 0
DWIDTH 26 0
BBX 26 27 0 -1
BITMAP
00000000
00100000
001c1000
10181c00
0c183800
06183000
06386000
02344000
00630000
00c0c000
01807000
03001c00
0e010e00
39c1c600
e1818000
01818000
01818600
ffffff00
01818000
03018000
03018000
06018000
0c018000
30018000
c0010000
00000000
00000000
ENDCHAR
STARTCHAR 2660
ENCODING 9824
SWIDTH 1529 0
DWIDTH 26 0
BBX 26 27 0 -1
BITMAP
00000000
00600000
00300000
20380000
20100600
3fffff00
60000600
60000c00
c0100800
c01c0000
00180000
00182000
08183800
06187000
031c6000
0334c000
01330000
00630000
00c18000
0180c000
0300e000
06007000
0c003c00
30001f00
c0000600
00000000
00000000
ENDCHAR
STARTCHAR 2661
ENCODING 9825
SWIDTH 1529 0
DWIDTH 26 0
BBX 26 27 0 -1
BITMAP
00000000
08020000
0e038000
0c030000
0c830000
0ce60000
8cc60c00
cd8ffe00
6d0c0c00
6e180c00
6c180c00
0c360c00
0c631800
0c839800
0c01b000
0c013000
0e006000
0d006000
1980c000
19818000
18c30000
30c60000
200c0000
40300000
80c00000
00000000
00000000
ENDCHAR
STARTCHAR 2662
ENCODING 9826
SWIDTH 1529 0
DWIDTH 26 0
BBX 26 27 0 -1
BITMAP
00000000
00003000
0ffff800
00003000
00003000
00003600
ffffff00
00003000
00003000
00003000
0ffff000
00002000
00100000
001c1000
30181c00
1c183800
0e387000
06346000
04368000
00630000
00e18000
01c0e000
07007c00
1c001f00
f0000400
00000000
00000000
ENDCHAR
STARTCHAR 2663
ENCODING 9827
SWIDTH 1529 0
DWIDTH 26 0
BBX 26 27 0 -1
BITMAP
00000000
00100000
001c0000
00180000
00183000
1ffff800
00180000
00180000
00180000
00180600
ffffff00
00000000
00100000
001c0000
20182000
18183800
0c383000
0e346000
04668000
00c30000
01818000
0300e000
06007800
1c001f00
e0000600
00000000
00000000
ENDCHAR
STARTCHAR 2664
ENCODING 9828
SWIDTH 1529 0
DWIDTH 26 0
BBX 26 27 0 -1
BITMAP
00000000
08000000
0e000000
4c060000
6c038000
6c018000
4d01c000
ff80c000
cc008600
8cffff00
0c180000
0c180000
0c980000
0f180000
1c180000
fc180000
6c180000
0c180000
0c180000
0c180000
0c180000
0c180000
0c1ffe00
0c0fff00
08000000
00000000
00000000
ENDCHAR
STARTCHAR 2665
ENCODING 9829
SWIDTH 1529 0
DWIDTH 26 0
BBX 26 27 0 -1
BITMAP
00000000
08000000
0e000c00
4c1ffe00
6c00c000
6c00c000
4c80c000
ffc0c000
8c00c000
8c00c000
0c00c000
0c00c600
0dbfff00
0f00c000
1c00c000
fc00c000
6c00c000
0c00c000
0c00c000
0c00c000
0c00c000
0c00c000
0c00c000
0c00c000
08008000
00000000
00000000
ENDCHAR
STARTCHAR 2666
ENCODING 9830
SWIDTH 1529 0
DWIDTH 26 0
BBX 26 27 0 -1
BITMAP
00000000
82010000
4701c000
26018000
3c018600
1cffff00
18018000
3c018000
4c018000
86218c00
063ffe00
0e318c00
0f318c00
1b318c00
33318c00
63318c00
83318c00
03318c00
03318c00
03318c00
03318c00
0631bc00
0e219800
7c018000
18010000
00000000
00000000
ENDCHAR
STARTCHAR 2667
ENCODING 9831
SWIDTH 1529 0
DWIDTH 26 0
BBX 26 27 0 -1
BITMAP
00000000
08004000
8e067000
4cff6000
58066000
38066000
300c6000
70106000
98186000
08186000
0c186000
1c1f6000
1dfc6000
36d86000
66186000
86186000
06186000
06186200
06186200
06186200
06186200
0c186300
1c187f00
f8f83e00
30300000
00000000
00000000
ENDCHAR
STARTCHAR 2668
ENCODING 9832
SWIDTH 1529 0
DWIDTH 26 0
BBX 26 27 0 -1
BITMAP
00000000
04010000
8701c000
66018000
3c018000
1c018000
18018600
38ffff00
6c018000
84038000
0603c000
0e07c000
0e07e000
1b0da000
330db000
63199800
83198c00
03318e00
03618700
03818200
03018000
06018000
0e018000
7c018000
18010000
00000000
00000000
ENDCHAR
STARTCHAR 2669
ENCODING 9833
SWIDTH 1529 0
DWIDTH 26 0
BBX 26 27 0 -1
BITMAP
00000000
84020000
47039000
26030c00
3c030600
1c030200
18030000
3c030000
6c030c00
86fffe00
06030000
0e038000
0f06e000
1b06c000
3306c000
630cc000
830cc000
030cc000
0318c200
0318c200
0330c200
0630c300
0e60ff00
7cc07e00
19000000
00000000
00000000
ENDCHAR
STARTCHAR 266a
ENCODING 9834
SWIDTH 1529 0
DWIDTH 26 0
BBX 26 27 0 -1
BITMAP
00000000
04020000
8703a000
66031800
3c030c00
1c030c00
18030000
3c030600
6cffff00
86030000
06030000
06030000
0f068000
1b068000
3306c000
63064000
830c4000
030c6000
030c2000
03183000
03181800
06301c00
0e600e00
7cc00700
1b000200
00000000
00000000
ENDCHAR
STARTCHAR 266b
ENCODING 9835
SWIDTH 1529 0
DWIDTH 26 0
BBX 26 27 0 -1
BITMAP
00000000
02010000
0381d800
03018c00
03018600
83018400
63018000
33018600
3b7fff00
1b018000
03018000
03018000
03034000
07034000
0b034000
1b066000
33062000
33062000
630c3000
e30c1000
43181800
03180c00
03300e00
03600700
02800200
00000000
00000000
ENDCHAR
STARTCHAR 266c
ENCODING 9836
SWIDTH 1529 0
DWIDTH 26 0
BBX 26 27 0 -1
BITMAP
00000000
82010000
4701c000
26018000
3c018600
1cffff00
18018000
3c018000
6c218800
c6398e00
06318c00
0e318c00
0f318c00
1b318c00
33318c00
637ffc00
83218800
03018000
03018200
03018200
03018200
06018300
0e01ff00
7c00fe00
18000000
00000000
00000000
ENDCHAR
STARTCHAR 266d
ENCODING 9837
SWIDTH 1529 0
DWIDTH 26 0
BBX 26 27 0 -1
BITMAP
00000000
84001e00
6710ff00
361fc000
3c180000
1c180000
18180000
3c180000
6c180000
c6180600
061fff00
0e183000
0f183000
1b183000
33183000
63183000
83303000
03303000
03303000
03303000
03603000
06603000
0e403000
7c803000
19002000
00000000
00000000
ENDCHAR
STARTCHAR 266e
ENCODING 9838
SWIDTH 1529 0
DWIDTH 26 0
BBX 26 27 0 -1
BITMAP
00000000
00000000
02000c00
ff3ffe00
18000c00
18000c00
18000c00
18000c00
18000c00
18000c00
1a100c00
ff1ffc00
18180800
18180000
18180000
18180000
18180000
18180000
18180200
1f180200
fc180200
60180300
001fff00
000ffe00
00000000
00000000
00000000
ENDCHAR
STARTCHAR 266f
ENCODING 9839
SWIDTH 1529 0
DWIDTH 26 0
BBX 26 27 0 -1
BITMAP
00000000
00000c00
013ffe00
ff800c00
0c001800
0c003000
0c006000
0c004000
0c018000
0c018000
0d018000
7f818000
0c018600
0cffff00
0c018000
0c018000
0c018000
0c018000
0c018000
0f818000
fc018000
70018000
00018000
001f8000
00070000
00000000
00000000
ENDCHAR
STARTCHAR 2670
ENCODING 9840
SWIDTH 1529 0
DWIDTH 26 0
BBX 26 27 0 -1
BITMAP
00000000
00001800
011ffc00
ff800000
18000000
18000000
18000000
18000600
187fff00
180c0000
190c0000
ff980000
18180c00
183ffe00
18100c00
18000c00
18000c00
18000c00
19800c00
1f000c00
fc001c00
60001800
00003800
0003f000
00006000
00000000
00000000
ENDCHAR
STARTCHAR 2671
ENCODING 9841
SWIDTH 1529 0
DWIDTH 26 0
BBX 26 27 0 -1
BITMAP
00000000
00003000
017ff800
ff8c3000
180c3000
180c3000
180c3000
180c3000
182c3000
181c3000
1a0e3000
ff0f3000
180f3000
180db000
180db000
180c3000
180c3000
180c3200
188c3200
1f183200
fc183200
e0303300
00603f00
00c01e00
03000000
00000000
00000000
ENDCHAR
STARTCHAR 2672
ENCODING 9842
SWIDTH 1529 0
DWIDTH 26 0
BBX 26 27 0 -1
BITMAP
00000000
00020000
00038000
80c30000
ffe30000
ccc30000
ccc30000
ccc30000
ccc30000
ccc30000
ccc30000
ffc30000
ccc68000
ccc68000
ccc68000
ccccc000
cccc4000
cccc4000
ccd86000
ffd82000
c0b03000
80301800
00601c00
00c00f00
03000600
00000000
00000000
ENDCHAR
STARTCHAR 2673
ENCODING 9843
SWIDTH 1529 0
DWIDTH 26 0
BBX 26 27 0 -1
BITMAP
00000000
00300000
001c0000
100c0600
1fffff00
18000000
98000000
d8006000
59fff000
78306000
78306000
58306000
1830c000
1830cc00
1861fe00
78618c00
d8600c00
98c00c00
18c00c00
31800c00
31000c00
23000c00
62001c00
4403f800
88007000
00000000
00000000
ENDCHAR
STARTCHAR 2674
ENCODING 9844
SWIDTH 1529 0
DWIDTH 26 0
BBX 26 27 0 -1
BITMAP
00000000
00700000
00600000
10c01800
1ffffc00
18001800
18001800
18001800
1ffff800
18001800
18001800
18001800
1ffff800
10001000
04000000
07006000
0607f000
063e0000
07e00400
06000400
06000400
06000600
07fffe00
03fffc00
00000000
00000000
00000000
ENDCHAR
STARTCHAR 2675
ENCODING 9845
SWIDTH 1529 0
DWIDTH 26 0
BBX 26 27 0 -1
BITMAP
00000000
00200000
00380000
00600000
10c01800
1ffffc00
18001800
18001800
18001800
1ffff800
18001800
18001800
18001800
1ffff800
10801000
00e00000
00c00000
01804000
03003000
03001800
06001800
0c0ffc00
1ffe1c00
0f800c00
04000800
00000000
00000000
ENDCHAR
STARTCHAR 2676
ENCODING 9846
SWIDTH 1529 0
DWIDTH 26 0
BBX 26 27 0 -1
BITMAP
00000000
00800000
00e00000
01800000
13001800
1ffffc00
18001800
18001800
18001800
1ffff800
18001800
18001800
18001800
1ffff800
10c31000
00c30000
00c30000
01830000
01830200
03030200
03030200
06030300
0c03ff00
1801fe00
60000000
00000000
00000000
ENDCHAR
STARTCHAR 2677
ENCODING 9847
SWIDTH 1529 0
DWIDTH 26 0
BBX 26 27 0 -1
BITMAP
00000000
00200000
00380000
00300000
00300000
00300000
003c0000
00330000
0031c000
0030e000
00307000
00302000
00300000
00300000
00200000
10003000
1ffff800
18c63000
18c63000
18c63000
18c63000
18c63000
18c63600
ffffff00
00000000
00000000
00000000
ENDCHAR
STARTCHAR 2678
ENCODING 9848
SWIDTH 1529 0
DWIDTH 26 0
BBX 26 27 0 -1
BITMAP
00000000
00018000
3fffc000
01818000
01818000
01830c00
0187fe00
03020c00
03000c00
06000c00
06000c00
0c001c00
1801f800
30007000
60000000
90001800
1ffffc00
18c31800
18c31800
18c31800
18c31800
18c31800
18c31a00
ffffff00
00000000
00000000
00000000
ENDCHAR
STARTCHAR 2679
ENCODING 9849
SWIDTH 1529 0
DWIDTH 26 0
BBX 26 27 0 -1
BITMAP
00000000
43000000
7f800600
633fff00
63060000
63060000
63060000
63060000
7f0c0000
630c0000
630c0c00
631ffe00
63180c00
63000c00
7f000c00
63000c00
63000c00
63000c00
63000c00
63001c00
63001800
7f003800
62007000
400fe000
0001c000
00000000
00000000
ENDCHAR
STARTCHAR 267a
ENCODING 9850
SWIDTH 1529 0
DWIDTH 26 0
BBX 26 27 0 -1
BITMAP
00000000
00080000
008e0000
7fcc0000
0c0c0000
0c0c0000
0c0c0000
180c0000
180c0c00
198c3e00
3fccf000
318f8000
318c0000
718c0000
718c0000
b18c0000
318c0000
318c0200
318c0200
318c0200
3f8c0200
310c0300
200fff00
0007fe00
00000000
00000000
00000000
ENDCHAR
STARTCHAR 267b
ENCODING 9851
SWIDTH 1529 0
DWIDTH 26 0
BBX 26 27 0 -1
BITMAP
00000000
00000000
00800600
7fdfff00
0c006000
0c006000
0c006000
18006000
18006000
19806000
3fc06000
31806000
31806000
71806000
71806000
b1806000
31806000
31806000
31806000
31806000
3f806000
31006000
20006000
0007e000
0001c000
00000000
00000000
ENDCHAR
STARTCHAR 267c
ENCODING 9852
SWIDTH 1529 0
DWIDTH 26 0
BBX 26 27 0 -1
BITMAP
00000000
00000800
00400e00
7fe20c00
0c038c00
0c030c00
0c030c00
18030c00
18030c00
18c30c00
3fe30c00
30c30c00
30c30c00
70c30c00
70c30c00
b0c30c00
30c30c00
30c30c00
30c30c00
30c20c00
3fc00c00
30800c00
20000c00
0001fc00
00003800
00000000
00000000
ENDCHAR
STARTCHAR 267d
ENCODING 9853
SWIDTH 1529 0
DWIDTH 26 0
BBX 26 27 0 -1
BITMAP
00000000
03000000
1f803000
fc3ff800
0c0c3000
0c0c3000
0c0c3000
0c0c3000
0c8c6000
ffcc6600
0c0c7f00
1c0c0600
1e0c0600
1d8c0600
3cdc0600
3cd80600
6c180600
4c180600
cc300600
8c300600
0c600600
0c600600
0c400c00
0c81fc00
09003800
00000000
00000000
ENDCHAR
STARTCHAR 267e
ENCODING 9854
SWIDTH 1529 0
DWIDTH 26 0
BBX 26 27 0 -1
BITMAP
00000000
30083000
1c0ff800
0e0c3000
060c3000
04cc3000
ffec3000
000c3000
010c3000
41cc3000
418c3000
218c3000
230c3000
230c3000
330c3000
320c3000
360c3200
24183200
04183200
01d83200
1f303200
fc303300
60603f00
00c01e00
01000000
00000000
00000000
ENDCHAR
STARTCHAR 2721
ENCODING 10017
SWIDTH 1529 0
DWIDTH 26 0
BBX 26 27 0 -1
BITMAP
00000000
30008000
1c00e000
0e00c000
0600c000
0460c000
fff0c000
0000c000
0080c000
40e0c000
40c0c600
20dfff00
2180c000
2180c000
3180c000
3100c000
3300c000
2200c000
0200c000
04c0c000
1f00c000
f800c000
e000c000
0000c000
00008000
00000000
00000000
ENDCHAR
STARTCHAR 2722
ENCODING 10018
SWIDTH 1529 0
DWIDTH 26 0
BBX 26 27 0 -1
BITMAP
00000000
08040000
0e070000
0c060000
18060000
18060000
32060000
33860000
63060000
c6060000
76060000
1c060000
0c060000
19860000
10c60000
23e60000
fe660000
f0460200
60060200
00860200
48c60200
4cc60300
cc87ff00
c803fe00
c0000000
00000000
00000000
ENDCHAR
STARTCHAR 2723
ENCODING 10019
SWIDTH 1529 0
DWIDTH 26 0
BBX 26 27 0 -1
BITMAP
00000000
43000000
7f801800
631ffc00
63000000
63000000
63000000
7b000600
6f7fff00
670c0000
630c0000
63180000
63180c00
633ffe00
67100c00
6f000c00
7b000c00
63000c00
63000c00
63000c00
43001c00
43001800
c3003800
9f03f000
8600e000
00000000
00000000
ENDCHAR
STARTCHAR 2724
ENCODING 10020
SWIDTH 1529 0
DWIDTH 26 0
BBX 26 27 0 -1
BITMAP
00000000
43040000
7f870000
63060000
630c0000
630c0600
631fff00
73300600
7b200600
6f400600
63000600
63080600
63060600
63030600
6f038600
7b018600
73010600
63000600
63000600
63000600
63000e00
43000c00
43001c00
8f01f800
86007000
00000000
00000000
ENDCHAR
STARTCHAR 2725
ENCODING 10021
SWIDTH 1529 0
DWIDTH 26 0
BBX 26 27 0 -1
BITMAP
00000000
43040000
7f870000
63060000
63061000
63061c00
63061800
7b061a00
6f7fff00
630c1800
630c1800
630c1800
630c1800
63183000
6f183000
7b183000
63306000
633e6000
6313c000
6300e000
4301b000
43031c00
c3060e00
9f1c0600
86700000
00000000
00000000
ENDCHAR
STARTCHAR 2726
ENCODING 10022
SWIDTH 1529 0
DWIDTH 26 0
BBX 26 27 0 -1
BITMAP
00000000
43010000
7f81c000
63218000
63398000
63318000
63318000
7b318000
6f318c00
6731fe00
633f8c00
63f18c00
63318c00
63318800
67319800
6f319000
7b318000
63318000
63310200
63300200
43300200
43300300
c33fff00
9f1ffe00
86000000
00000000
00000000
ENDCHAR
STARTCHAR 2727
ENCODING 10023
SWIDTH 1529 0
DWIDTH 26 0
BBX 26 27 0 -1
BITMAP
00000000
04004000
07007000
06406600
ffe7ff00
06006000
06006000
06006000
04104000
001c0000
00180000
00180000
00180000
04188000
07186000
06183000
0c181800
0c180c00
18180e00
30180600
60180600
80180000
00180000
01f80000
00700000
00000000
00000000
ENDCHAR
STARTCHAR 2728
ENCODING 10024
SWIDTH 1529 0
DWIDTH 26 0
BBX 26 27 0 -1
BITMAP
00000000
04004000
07007000
06406600
ffe7ff00
06006000
06006000
04004000
00200000
02184000
020c7000
010c6000
0184c000
0080c000
00c18000
00630000
00360000
001c0000
001c0000
00360000
00630000
01c1c000
03007800
1c003f00
e0000c00
00000000
00000000
ENDCHAR
STARTCHAR 2729
ENCODING 10025
SWIDTH 1529 0
DWIDTH 26 0
BBX 26 27 0 -1
BITMAP
00000000
04004000
07007000
06406600
ffe7ff00
06006000
04004000
00001000
1ffff800
00000000
00000000
00000600
ffffff00
03000000
03000000
06003000
0ffff800
04003000
00003000
00003000
00006000
0000e000
0001c000
007f8000
00070000
00000000
00000000
ENDCHAR
STARTCHAR 272a
ENCODING 10026
SWIDTH 1529 0
DWIDTH 26 0
BBX 26 27 0 -1
BITMAP
00000000
04004000
07007000
06406600
ffe7ff00
06006000
06006000
04004000
00003000
3ffff800
00003000
00003000
20003000
38003000
30003000
3ffff000
30002000
30000000
30000000
30000400
30000400
30000600
3ffffe00
1ffffc00
00000000
00000000
00000000
ENDCHAR
STARTCHAR 272b
ENCODING 10027
SWIDTH 1529 0
DWIDTH 26 0
BBX 26 27 0 -1
BITMAP
00000000
04004000
07007000
06406600
ffe7ff00
06006000
06006000
04804000
00e00000
01c03000
01fff800
03003000
06003000
0d806000
18c06000
2070c000
00318000
00130000
00060000
000c0000
00180000
00600000
01c00000
07000000
78000000
00000000
00000000
ENDCHAR
STARTCHAR 272c
ENCODING 10028
SWIDTH 1529 0
DWIDTH 26 0
BBX 26 27 0 -1
BITMAP
00000000
04004000
07007000
06406600
ffe7ff00
06006000
04804000
00e00000
00c00000
0180c000
01ffe000
0300c000
0600c000
0d018000
18c18000
20630000
00360000
001c0000
001e0000
003b0000
0071c000
01c07000
07003c00
1c001f00
e0000600
00000000
00000000
ENDCHAR
STARTCHAR 272d
ENCODING 10029
SWIDTH 1529 0
DWIDTH 26 0
BBX 26 27 0 -1
BITMAP
00000000
08040000
0e070000
0c060000
0c060000
0c060000
8cc60000
ffe60000
ccc60000
ccc60000
ccc60000
ccc60000
ccc60000
ccc60000
ffc60000
8c860000
0c060000
0d860200
0cc60200
0cc60200
0fe60200
fc660300
e047ff00
0003fe00
00000000
00000000
00000000
ENDCHAR
STARTCHAR 272e
ENCODING 10030
SWIDTH 1529 0
DWIDTH 26 0
BBX 26 27 0 -1
BITMAP
00000000
00007000
0003f800
003f8000
03f80000
3c180000
00180000
00180000
10181800
1ffffc00
18181800
18181800
18181800
18181800
18181800
1ffff800
18181000
10180000
00182000
00181800
00180c00
001ffc00
7ffc0e00
7f800600
20000600
00000000
00000000
ENDCHAR
STARTCHAR 272f
ENCODING 10031
SWIDTH 1529 0
DWIDTH 26 0
BBX 26 27 0 -1
BITMAP
00000000
0001c000
0007e000
003e0000
03e03000
1e00f800
0007c000
007e0000
03e03800
3e00fc00
0007c000
007c0000
07d80000
7c180000
00180000
00181800
041ffc00
07180000
0e180000
0e180000
1b180000
31d80000
60f80000
403fff00
800ffc00
00000000
00000000
ENDCHAR
STARTCHAR 2730
ENCODING 10032
SWIDTH 1529 0
DWIDTH 26 0
BBX 26 27 0 -1
BITMAP
00000000
00020000
40038000
30030000
18030000
18030000
00030000
00030600
0cffff00
fe030000
0c068000
0c068000
1806c000
320c4000
7f0c6000
06186000
06183000
06303800
0c601c00
0cc00f00
19000600
fe000000
c3c00000
00ffff00
003ffc00
00000000
00000000
ENDCHAR
STARTCHAR 2731
ENCODING 10033
SWIDTH 1529 0
DWIDTH 26 0
BBX 26 27 0 -1
BITMAP
00000000
00004000
00007000
30006000
18006000
0c006000
0c006400
00fffe00
0c006000
fe006000
0c206000
0c106000
18186000
320c6000
7f0c6000
06006000
06006000
06006000
0c006000
0c0fe000
1801c000
fe000000
c3c00000
00ffff00
003ffc00
00000000
00000000
ENDCHAR
STARTCHAR 2732
ENCODING 10034
SWIDTH 1529 0
DWIDTH 26 0
BBX 26 27 0 -1
BITMAP
00000000
00000000
40001800
203ffc00
30001800
18003000
18006000
0000c000
0c010000
fe018000
0c018c00
0cfffe00
18018000
30018000
7e018000
06018000
06018000
06018000
0c018000
0c018000
181f8000
fe030000
c3c00000
00ffff00
003ffc00
00000000
00000000
ENDCHAR
STARTCHAR 2733
ENCODING 10035
SWIDTH 1529 0
DWIDTH 26 0
BBX 26 27 0 -1
BITMAP
00000000
00003800
4001fc00
300fc000
18398000
18018000
00018000
00018000
0c018000
fe018600
0cffff00
0c018000
18018000
30018000
7e018000
06018000
06018000
06018000
0c018000
0c018000
18018000
fe010000
c3c00000
00ffff00
003ffc00
00000000
00000000
ENDCHAR
STARTCHAR 2734
ENCODING 10036
SWIDTH 1529 0
DWIDTH 26 0
BBX 26 27 0 -1
BITMAP
00000000
04010600
0701ff00
06018600
06218600
86398c00
c6318c00
66618800
66419000
36818800
26018c00
06018600
06018600
06018300
07018300
0c818300
0cc18300
0ce18300
18618700
1871be00
30318c00
30318000
60018000
40018000
80010000
00000000
00000000
ENDCHAR
STARTCHAR 2735
ENCODING 10037
SWIDTH 1529 0
DWIDTH 26 0
BBX 26 27 0 -1
BITMAP
00000000
00e10600
27f1ff00
3e018600
30018600
30018c00
30019800
30019000
3011a000
3ff99000
30c18800
30c18400
30c18600
30c18600
30c18300
30c18300
30c18300
30c18300
60c18700
60c1be00
60c18c00
40c18000
c0c18000
80c18000
00810000
00000000
00000000
ENDCHAR
STARTCHAR 2736
ENCODING 10038
SWIDTH 1529 0
DWIDTH 26 0
BBX 26 27 0 -1
BITMAP
00000000
00010600
00c1ff00
3fe18600
00018600
00018c00
00018c00
00018800
00019000
00018800
00318c00
fff98600
06018600
06018300
0e018300
0c018300
0c818300
18418300
18618700
3031be00
20318c00
fff98000
fc198000
40198000
00010000
00000000
00000000
ENDCHAR
STARTCHAR 2737
ENCODING 10039
SWIDTH 1529 0
DWIDTH 26 0
BBX 26 27 0 -1
BITMAP
00000000
04020600
0703ff00
06030600
06030600
06030c00
06630800
fff31000
06032000
0e031000
0e030800
1f830c00
1ec30600
36630600
36730300
66330300
46030300
86030300
06030700
06037e00
06031c00
06030000
06030000
06030000
04020000
00000000
00000000
ENDCHAR
STARTCHAR 2738
ENCODING 10040
SWIDTH 1529 0
DWIDTH 26 0
BBX 26 27 0 -1
BITMAP
00000000
20310600
3ff9ff00
30318600
30318600
34318c00
36318c00
33318800
33319000
30318800
30358c00
ffff8600
30318600
30318300
30318300
30318300
30318300
30318300
30318700
6031be00
60318c00
60318000
40318000
c1f18000
80610000
00000000
00000000
ENDCHAR
STARTCHAR 2739
ENCODING 10041
SWIDTH 1529 0
DWIDTH 26 0
BBX 26 27 0 -1
BITMAP
00000000
04010600
0701ff00
06018600
06318600
fff98400
06018c00
06018800
06019000
86218800
e6398c00
c6318400
c6318600
c6318600
c6318300
fff18300
86218300
06018300
06018700
0601be00
06018c00
06198000
06718000
07c18000
03010000
00000000
00000000
ENDCHAR
STARTCHAR 273a
ENCODING 10042
SWIDTH 1529 0
DWIDTH 26 0
BBX 26 27 0 -1
BITMAP
00000000
43002000
7f883800
63063000
63033000
6301b000
6601b000
64003000
68003000
64103000
660c3000
63063000
63033000
61833000
61803000
61803600
61bfff00
63803000
7f003000
66003000
60003000
60003000
60003000
60003000
40002000
00000000
00000000
ENDCHAR
STARTCHAR 273b
ENCODING 10043
SWIDTH 1529 0
DWIDTH 26 0
BBX 26 27 0 -1
BITMAP
00000000
86020000
ff038000
c6030000
c6030000
c6030800
cc830e00
c8431c00
d0631800
c8333000
cc332000
c6234000
c6030000
c3070000
c3068000
c3068000
c30ec000
c70c4000
fe0c6000
cc186000
c0183000
c0303800
c0601c00
c0c00f00
83000600
00000000
00000000
ENDCHAR
STARTCHAR 273c
ENCODING 10044
SWIDTH 1529 0
DWIDTH 26 0
BBX 26 27 0 -1
BITMAP
00000000
43000000
7f800600
633fff00
6300e000
6300c000
6601c000
64018000
68038000
64032000
66031000
63079800
630d8c00
618d8600
61998600
61918300
61a18300
63c18000
7f018000
66018000
60018000
60018000
60018000
60018000
40010000
00000000
00000000
ENDCHAR
STARTCHAR 273d
ENCODING 10045
SWIDTH 1529 0
DWIDTH 26 0
BBX 26 27 0 -1
BITMAP
00000000
43000000
7f900c00
631ffe00
63180c00
63180c00
66180c00
64180c00
68180c00
64180c00
66180c00
63180c00
631ffc00
61980c00
61980c00
61980c00
61980c00
63980c00
7f180c00
66180c00
60180c00
601ffc00
60180800
60100000
40000000
00000000
00000000
ENDCHAR
STARTCHAR 273e
ENCODING 10046
SWIDTH 1529 0
DWIDTH 26 0
BBX 26 27 0 -1
BITMAP
00000000
43080c00
7f8ffe00
630c0c00
630c0c00
630c0c00
660c0c00
640c0c00
680ffc00
640c0c00
660c0c00
630c0c00
630c0c00
618c0c00
618ffc00
618c0c00
618c0c00
63980c00
7f180c00
66180c00
60300c00
60300c00
60600c00
6041fc00
40803800
00000000
00000000
ENDCHAR
STARTCHAR 273f
ENCODING 10047
SWIDTH 1529 0
DWIDTH 26 0
BBX 26 27 0 -1
BITMAP
00000000
43022000
7f87b800
630e3000
633c3000
630c3000
660c3000
640c3000
680c3000
640c3000
660c3600
637fff00
630c3000
618c3000
618c3000
618c3000
61983000
63983000
7f183000
66303000
60303000
60603000
60403000
60803000
41002000
00000000
00000000
ENDCHAR
STARTCHAR 2740
ENCODING 10048
SWIDTH 1529 0
DWIDTH 26 0
BBX 26 27 0 -1
BITMAP
00000000
00600600
fff7ff00
00000000
00000000
00000000
40640600
7ff7ff00
60660600
60660600
60660600
78660600
6c678600
6666c600
67666600
63666600
62663600
60662600
60660600
60660600
60660600
60660600
60660600
63e63e00
40c40c00
00000000
00000000
ENDCHAR
STARTCHAR 2741
ENCODING 10049
SWIDTH 1529 0
DWIDTH 26 0
BBX 26 27 0 -1
BITMAP
00000000
01800c00
ffcffe00
01800c00
03001800
06023000
28014000
1800c000
0c006000
04c04600
ffefff00
0cc0c600
0c80c400
0d00c800
0c00c000
0c00c000
0c00c000
0c00c000
0c00c000
0c00c000
0c00c000
0c00c000
0c00c000
7c07c000
18018000
00000000
00000000
ENDCHAR
STARTCHAR 2742
ENCODING 10050
SWIDTH 1529 0
DWIDTH 26 0
BBX 26 27 0 -1
BITMAP
00000000
00400000
00700000
00c18000
0180c000
070fe000
1ffc3000
0e003000
00000000
08010000
0e01c000
0c818800
18c30400
30660600
ffeffe00
60660600
00000000
00006000
0ffff000
00000000
00000000
00000000
00000c00
7ffffe00
00000000
00000000
00000000
ENDCHAR
STARTCHAR 2743
ENCODING 10051
SWIDTH 1529 0
DWIDTH 26 0
BBX 26 27 0 -1
BITMAP
00000000
08020000
0e038000
0c030c00
0cfffe00
18030c00
18030c00
18030c00
10ffff00
38030c00
38030c00
58030c00
98fffc00
18030000
18030400
19fffe00
18030000
18030000
18030600
1bffff00
18030000
18030000
18030000
18030000
10020000
00000000
00000000
ENDCHAR
STARTCHAR 2744
ENCODING 10052
SWIDTH 1529 0
DWIDTH 26 0
BBX 26 27 0 -1
BITMAP
00000000
08040000
0e070000
0c861000
0cc61c00
18463800
18663000
18666000
10364000
38268000
38060c00
59fffe00
9818c000
1818c000
1818c000
1818c000
1818c000
1818c000
1818c000
1830c200
1830c200
1860c300
1860ff00
18c07e00
13000000
00000000
00000000
ENDCHAR
STARTCHAR 2745
ENCODING 10053
SWIDTH 1529 0
DWIDTH 26 0
BBX 26 27 0 -1
BITMAP
00000000
08038000
0e031000
0c037800
0c0fc000
187b0000
18030000
18030000
10031800
38fffc00
38030000
58030000
98030600
1bffff00
18070000
180f8000
181b4000
181b6000
18333000
18631800
18c31c00
19830f00
1a030400
18030000
10020000
00000000
00000000
ENDCHAR
STARTCHAR 2746
ENCODING 10054
SWIDTH 1529 0
DWIDTH 26 0
BBX 26 27 0 -1
BITMAP
00000000
08800c00
0efffe00
0cc00c00
0cc00c00
18c02c00
18fffc00
18c60c00
10c60c00
38c66c00
38c7fc00
58cc6c00
98c86c00
18d86c00
18d4cc00
18e6cc00
18c38c00
18c18c00
18c30d00
19860d00
198c0d00
1b180d00
1a600700
1c000700
10000200
00000000
00000000
ENDCHAR
STARTCHAR 2747
ENCODING 10055
SWIDTH 1529 0
DWIDTH 26 0
BBX 26 27 0 -1
BITMAP
00000000
08080000
0e0e0000
0c0c3000
0c1ff800
18303000
18686000
1886c000
10038000
3806e000
380c3800
58301f00
98c10600
1b01c000
18019800
187ffc00
18618000
18618000
18618000
18618600
18ffff00
18418000
18018000
18018000
10010000
00000000
00000000
ENDCHAR
STARTCHAR 2748
ENCODING 10056
SWIDTH 1529 0
DWIDTH 26 0
BBX 26 27 0 -1
BITMAP
00000000
08020000
0e038000
0c030800
0c830e00
18431c00
18631800
18333000
10334000
38030000
38030600
5bffff00
98030000
18030000
18432000
18731000
18631800
18c30c00
18c30e00
19830700
1b030300
1c030200
18030000
18030000
10020000
00000000
00000000
ENDCHAR
STARTCHAR 2749
ENCODING 10057
SWIDTH 1529 0
DWIDTH 26 0
BBX 26 27 0 -1
BITMAP
00000000
08040000
0e070000
0c060000
0c060000
18060c00
19fffe00
18060000
11061000
38861c00
38c63000
58662000
98664000
18060600
1bffff00
180d0000
180d8000
18188000
1818c000
18306000
18307000
18603800
18c01c00
19800f00
12000600
00000000
00000000
ENDCHAR
STARTCHAR 274a
ENCODING 10058
SWIDTH 1529 0
DWIDTH 26 0
BBX 26 27 0 -1
BITMAP
00000000
08000600
0effff00
0c030000
0c030000
18030000
18830c00
18fffe00
10c30c00
38c30c00
38c30c00
58c30c00
9bffff00
18c30c00
18c30c00
18c30c00
18c30c00
1bffff00
18c00c00
18c00c00
18c00c00
18c00c00
18c00c00
18c0fc00
10803800
00000000
00000000
ENDCHAR
ENDFONT
